%TF.GenerationSoftware,KiCad,Pcbnew,8.0.0*%
%TF.CreationDate,2024-03-16T16:39:28+00:00*%
%TF.ProjectId,pcb,7063622e-6b69-4636-9164-5f7063625858,rev?*%
%TF.SameCoordinates,Original*%
%TF.FileFunction,Copper,L2,Bot*%
%TF.FilePolarity,Positive*%
%FSLAX46Y46*%
G04 Gerber Fmt 4.6, Leading zero omitted, Abs format (unit mm)*
G04 Created by KiCad (PCBNEW 8.0.0) date 2024-03-16 16:39:28*
%MOMM*%
%LPD*%
G01*
G04 APERTURE LIST*
%TA.AperFunction,ComponentPad*%
%ADD10O,1.700000X1.700000*%
%TD*%
%TA.AperFunction,ComponentPad*%
%ADD11R,1.700000X1.700000*%
%TD*%
%TA.AperFunction,ViaPad*%
%ADD12C,0.700000*%
%TD*%
%TA.AperFunction,Conductor*%
%ADD13C,0.400000*%
%TD*%
%TA.AperFunction,Conductor*%
%ADD14C,0.300000*%
%TD*%
G04 APERTURE END LIST*
D10*
%TO.P,REF\u002A\u002A,1*%
%TO.N,GPIO4*%
X29840000Y-61540000D03*
D11*
%TO.P,REF\u002A\u002A,2*%
%TO.N,GND*%
X29840000Y-59000000D03*
D10*
%TO.P,REF\u002A\u002A,3*%
%TO.N,GPIO5*%
X32380000Y-61540000D03*
%TO.P,REF\u002A\u002A,4*%
%TO.N,N/C*%
X32380000Y-59000000D03*
%TO.P,REF\u002A\u002A,5*%
X34920000Y-61540000D03*
%TO.P,REF\u002A\u002A,6*%
%TO.N,+5V*%
X34920000Y-59000000D03*
%TO.P,REF\u002A\u002A,7*%
%TO.N,LAD3*%
X37460000Y-61540000D03*
%TO.P,REF\u002A\u002A,8*%
%TO.N,LAD2*%
X37460000Y-59000000D03*
%TO.P,REF\u002A\u002A,9*%
%TO.N,N/C*%
X40000000Y-61540000D03*
%TO.P,REF\u002A\u002A,10*%
%TO.N,LAD1*%
X40000000Y-59000000D03*
%TO.P,REF\u002A\u002A,11*%
%TO.N,LAD0*%
X42540000Y-61540000D03*
%TO.P,REF\u002A\u002A,12*%
%TO.N,N/C*%
X42540000Y-59000000D03*
%TO.P,REF\u002A\u002A,13*%
X45080000Y-61540000D03*
%TO.P,REF\u002A\u002A,14*%
X45080000Y-59000000D03*
%TO.P,REF\u002A\u002A,15*%
X47620000Y-61540000D03*
%TO.P,REF\u002A\u002A,16*%
X47620000Y-59000000D03*
%TD*%
D12*
%TO.N,GND*%
X29000000Y-57000000D03*
X29000000Y-53000000D03*
X46700000Y-35200000D03*
%TD*%
D13*
%TO.N,GND*%
X29840000Y-59000000D02*
X29840000Y-57840000D01*
D14*
X46500000Y-35000000D02*
X46700000Y-35200000D01*
X26000000Y-54000000D02*
X26000000Y-36000000D01*
X26000000Y-36000000D02*
X27000000Y-35000000D01*
X29840000Y-57840000D02*
X26000000Y-54000000D01*
X27000000Y-35000000D02*
X46500000Y-35000000D01*
%TD*%
%TA.AperFunction,Conductor*%
%TO.N,GND*%
G36*
X50822539Y-30955183D02*
G01*
X50868294Y-31007987D01*
X50879500Y-31059498D01*
X50879500Y-35595500D01*
X50859815Y-35662539D01*
X50807011Y-35708294D01*
X50755500Y-35719500D01*
X30314108Y-35719500D01*
X30186812Y-35753608D01*
X30072686Y-35819500D01*
X30072683Y-35819502D01*
X29979502Y-35912683D01*
X29979500Y-35912686D01*
X29913608Y-36026812D01*
X29879500Y-36154108D01*
X29879500Y-47285891D01*
X29913608Y-47413187D01*
X29946554Y-47470250D01*
X29979500Y-47527314D01*
X30072686Y-47620500D01*
X30186814Y-47686392D01*
X30314108Y-47720500D01*
X50755500Y-47720500D01*
X50822539Y-47740185D01*
X50868294Y-47792989D01*
X50879500Y-47844500D01*
X50879500Y-63810500D01*
X50859815Y-63877539D01*
X50807011Y-63923294D01*
X50755500Y-63934500D01*
X26124500Y-63934500D01*
X26057461Y-63914815D01*
X26011706Y-63862011D01*
X26000500Y-63810500D01*
X26000500Y-59897844D01*
X28490000Y-59897844D01*
X28496401Y-59957372D01*
X28496403Y-59957379D01*
X28546645Y-60092086D01*
X28546649Y-60092093D01*
X28632809Y-60207187D01*
X28632812Y-60207190D01*
X28747906Y-60293350D01*
X28747913Y-60293354D01*
X28882620Y-60343596D01*
X28882627Y-60343598D01*
X28942155Y-60349999D01*
X28942172Y-60350000D01*
X29140634Y-60350000D01*
X29207673Y-60369685D01*
X29253428Y-60422489D01*
X29263372Y-60491647D01*
X29234347Y-60555203D01*
X29205911Y-60579427D01*
X29143701Y-60617945D01*
X28986127Y-60761593D01*
X28857632Y-60931746D01*
X28762596Y-61122605D01*
X28762596Y-61122607D01*
X28704244Y-61327689D01*
X28684571Y-61539999D01*
X28684571Y-61540000D01*
X28704244Y-61752310D01*
X28762596Y-61957392D01*
X28762596Y-61957394D01*
X28857632Y-62148253D01*
X28857634Y-62148255D01*
X28986128Y-62318407D01*
X29143698Y-62462052D01*
X29324981Y-62574298D01*
X29523802Y-62651321D01*
X29733390Y-62690500D01*
X29733392Y-62690500D01*
X29946608Y-62690500D01*
X29946610Y-62690500D01*
X30156198Y-62651321D01*
X30355019Y-62574298D01*
X30536302Y-62462052D01*
X30693872Y-62318407D01*
X30822366Y-62148255D01*
X30917405Y-61957389D01*
X30975756Y-61752310D01*
X30986529Y-61636047D01*
X31012315Y-61571111D01*
X31056869Y-61539194D01*
X31020497Y-61518331D01*
X30988307Y-61456318D01*
X30986529Y-61443951D01*
X30985849Y-61436613D01*
X30975756Y-61327690D01*
X30917405Y-61122611D01*
X30917403Y-61122606D01*
X30917403Y-61122605D01*
X30822367Y-60931746D01*
X30693872Y-60761593D01*
X30536302Y-60617948D01*
X30536299Y-60617946D01*
X30536298Y-60617945D01*
X30474089Y-60579427D01*
X30427453Y-60527399D01*
X30416349Y-60458418D01*
X30444302Y-60394383D01*
X30502437Y-60355627D01*
X30539366Y-60350000D01*
X30737828Y-60350000D01*
X30737844Y-60349999D01*
X30797372Y-60343598D01*
X30797379Y-60343596D01*
X30932086Y-60293354D01*
X30932093Y-60293350D01*
X31047187Y-60207190D01*
X31047190Y-60207187D01*
X31133350Y-60092093D01*
X31133354Y-60092086D01*
X31183596Y-59957379D01*
X31183598Y-59957372D01*
X31189999Y-59897844D01*
X31190000Y-59897827D01*
X31190000Y-59703268D01*
X31209685Y-59636229D01*
X31262489Y-59590474D01*
X31331647Y-59580530D01*
X31395203Y-59609555D01*
X31412950Y-59628537D01*
X31526128Y-59778407D01*
X31683698Y-59922052D01*
X31864981Y-60034298D01*
X32063802Y-60111321D01*
X32260613Y-60148111D01*
X32322893Y-60179779D01*
X32358166Y-60240092D01*
X32355232Y-60309900D01*
X32315023Y-60367040D01*
X32260613Y-60391888D01*
X32063802Y-60428679D01*
X32063799Y-60428679D01*
X32063799Y-60428680D01*
X31864982Y-60505701D01*
X31864980Y-60505702D01*
X31683699Y-60617947D01*
X31526127Y-60761593D01*
X31397632Y-60931746D01*
X31302596Y-61122605D01*
X31302596Y-61122607D01*
X31244244Y-61327689D01*
X31233471Y-61443951D01*
X31207685Y-61508888D01*
X31163130Y-61540804D01*
X31199503Y-61561668D01*
X31231693Y-61623681D01*
X31233471Y-61636048D01*
X31244244Y-61752310D01*
X31302596Y-61957392D01*
X31302596Y-61957394D01*
X31397632Y-62148253D01*
X31397634Y-62148255D01*
X31526128Y-62318407D01*
X31683698Y-62462052D01*
X31864981Y-62574298D01*
X32063802Y-62651321D01*
X32273390Y-62690500D01*
X32273392Y-62690500D01*
X32486608Y-62690500D01*
X32486610Y-62690500D01*
X32696198Y-62651321D01*
X32895019Y-62574298D01*
X33076302Y-62462052D01*
X33233872Y-62318407D01*
X33362366Y-62148255D01*
X33457405Y-61957389D01*
X33515756Y-61752310D01*
X33526529Y-61636047D01*
X33552315Y-61571111D01*
X33594622Y-61540804D01*
X33703130Y-61540804D01*
X33739503Y-61561668D01*
X33771693Y-61623681D01*
X33773471Y-61636048D01*
X33784244Y-61752310D01*
X33842596Y-61957392D01*
X33842596Y-61957394D01*
X33937632Y-62148253D01*
X33937634Y-62148255D01*
X34066128Y-62318407D01*
X34223698Y-62462052D01*
X34404981Y-62574298D01*
X34603802Y-62651321D01*
X34813390Y-62690500D01*
X34813392Y-62690500D01*
X35026608Y-62690500D01*
X35026610Y-62690500D01*
X35236198Y-62651321D01*
X35435019Y-62574298D01*
X35616302Y-62462052D01*
X35773872Y-62318407D01*
X35902366Y-62148255D01*
X35997405Y-61957389D01*
X36055756Y-61752310D01*
X36066529Y-61636047D01*
X36092315Y-61571111D01*
X36134622Y-61540804D01*
X36243130Y-61540804D01*
X36279503Y-61561668D01*
X36311693Y-61623681D01*
X36313471Y-61636048D01*
X36324244Y-61752310D01*
X36382596Y-61957392D01*
X36382596Y-61957394D01*
X36477632Y-62148253D01*
X36477634Y-62148255D01*
X36606128Y-62318407D01*
X36763698Y-62462052D01*
X36944981Y-62574298D01*
X37143802Y-62651321D01*
X37353390Y-62690500D01*
X37353392Y-62690500D01*
X37566608Y-62690500D01*
X37566610Y-62690500D01*
X37776198Y-62651321D01*
X37975019Y-62574298D01*
X38156302Y-62462052D01*
X38313872Y-62318407D01*
X38442366Y-62148255D01*
X38537405Y-61957389D01*
X38595756Y-61752310D01*
X38606529Y-61636047D01*
X38632315Y-61571111D01*
X38674622Y-61540804D01*
X38783130Y-61540804D01*
X38819503Y-61561668D01*
X38851693Y-61623681D01*
X38853471Y-61636048D01*
X38864244Y-61752310D01*
X38922596Y-61957392D01*
X38922596Y-61957394D01*
X39017632Y-62148253D01*
X39017634Y-62148255D01*
X39146128Y-62318407D01*
X39303698Y-62462052D01*
X39484981Y-62574298D01*
X39683802Y-62651321D01*
X39893390Y-62690500D01*
X39893392Y-62690500D01*
X40106608Y-62690500D01*
X40106610Y-62690500D01*
X40316198Y-62651321D01*
X40515019Y-62574298D01*
X40696302Y-62462052D01*
X40853872Y-62318407D01*
X40982366Y-62148255D01*
X41077405Y-61957389D01*
X41135756Y-61752310D01*
X41146529Y-61636047D01*
X41172315Y-61571111D01*
X41214622Y-61540804D01*
X41323130Y-61540804D01*
X41359503Y-61561668D01*
X41391693Y-61623681D01*
X41393471Y-61636048D01*
X41404244Y-61752310D01*
X41462596Y-61957392D01*
X41462596Y-61957394D01*
X41557632Y-62148253D01*
X41557634Y-62148255D01*
X41686128Y-62318407D01*
X41843698Y-62462052D01*
X42024981Y-62574298D01*
X42223802Y-62651321D01*
X42433390Y-62690500D01*
X42433392Y-62690500D01*
X42646608Y-62690500D01*
X42646610Y-62690500D01*
X42856198Y-62651321D01*
X43055019Y-62574298D01*
X43236302Y-62462052D01*
X43393872Y-62318407D01*
X43522366Y-62148255D01*
X43617405Y-61957389D01*
X43675756Y-61752310D01*
X43686529Y-61636047D01*
X43712315Y-61571111D01*
X43754622Y-61540804D01*
X43863130Y-61540804D01*
X43899503Y-61561668D01*
X43931693Y-61623681D01*
X43933471Y-61636048D01*
X43944244Y-61752310D01*
X44002596Y-61957392D01*
X44002596Y-61957394D01*
X44097632Y-62148253D01*
X44097634Y-62148255D01*
X44226128Y-62318407D01*
X44383698Y-62462052D01*
X44564981Y-62574298D01*
X44763802Y-62651321D01*
X44973390Y-62690500D01*
X44973392Y-62690500D01*
X45186608Y-62690500D01*
X45186610Y-62690500D01*
X45396198Y-62651321D01*
X45595019Y-62574298D01*
X45776302Y-62462052D01*
X45933872Y-62318407D01*
X46062366Y-62148255D01*
X46157405Y-61957389D01*
X46215756Y-61752310D01*
X46226529Y-61636047D01*
X46252315Y-61571111D01*
X46294622Y-61540804D01*
X46403130Y-61540804D01*
X46439503Y-61561668D01*
X46471693Y-61623681D01*
X46473471Y-61636048D01*
X46484244Y-61752310D01*
X46542596Y-61957392D01*
X46542596Y-61957394D01*
X46637632Y-62148253D01*
X46637634Y-62148255D01*
X46766128Y-62318407D01*
X46923698Y-62462052D01*
X47104981Y-62574298D01*
X47303802Y-62651321D01*
X47513390Y-62690500D01*
X47513392Y-62690500D01*
X47726608Y-62690500D01*
X47726610Y-62690500D01*
X47936198Y-62651321D01*
X48135019Y-62574298D01*
X48316302Y-62462052D01*
X48473872Y-62318407D01*
X48602366Y-62148255D01*
X48697405Y-61957389D01*
X48755756Y-61752310D01*
X48775429Y-61540000D01*
X48755756Y-61327690D01*
X48697405Y-61122611D01*
X48697403Y-61122606D01*
X48697403Y-61122605D01*
X48602367Y-60931746D01*
X48473872Y-60761593D01*
X48316302Y-60617948D01*
X48135019Y-60505702D01*
X48135017Y-60505701D01*
X48012964Y-60458418D01*
X47936198Y-60428679D01*
X47739385Y-60391888D01*
X47677106Y-60360221D01*
X47641833Y-60299908D01*
X47644767Y-60230100D01*
X47684976Y-60172960D01*
X47739384Y-60148111D01*
X47936198Y-60111321D01*
X48135019Y-60034298D01*
X48316302Y-59922052D01*
X48473872Y-59778407D01*
X48602366Y-59608255D01*
X48656270Y-59500000D01*
X48697403Y-59417394D01*
X48697403Y-59417393D01*
X48697405Y-59417389D01*
X48755756Y-59212310D01*
X48775429Y-59000000D01*
X48755756Y-58787690D01*
X48697405Y-58582611D01*
X48697403Y-58582606D01*
X48697403Y-58582605D01*
X48602367Y-58391746D01*
X48473872Y-58221593D01*
X48342874Y-58102172D01*
X48316302Y-58077948D01*
X48135019Y-57965702D01*
X48135017Y-57965701D01*
X47985829Y-57907906D01*
X47936198Y-57888679D01*
X47726610Y-57849500D01*
X47513390Y-57849500D01*
X47303802Y-57888679D01*
X47303799Y-57888679D01*
X47303799Y-57888680D01*
X47104982Y-57965701D01*
X47104980Y-57965702D01*
X46923699Y-58077947D01*
X46766127Y-58221593D01*
X46637632Y-58391746D01*
X46542596Y-58582605D01*
X46542596Y-58582607D01*
X46484244Y-58787689D01*
X46473471Y-58903951D01*
X46447685Y-58968888D01*
X46403130Y-59000804D01*
X46439503Y-59021668D01*
X46471693Y-59083681D01*
X46473470Y-59096047D01*
X46484244Y-59212310D01*
X46537675Y-59400099D01*
X46542596Y-59417392D01*
X46542596Y-59417394D01*
X46637632Y-59608253D01*
X46652953Y-59628541D01*
X46766128Y-59778407D01*
X46923698Y-59922052D01*
X47104981Y-60034298D01*
X47303802Y-60111321D01*
X47500613Y-60148111D01*
X47562893Y-60179779D01*
X47598166Y-60240092D01*
X47595232Y-60309900D01*
X47555023Y-60367040D01*
X47500613Y-60391888D01*
X47303802Y-60428679D01*
X47303799Y-60428679D01*
X47303799Y-60428680D01*
X47104982Y-60505701D01*
X47104980Y-60505702D01*
X46923699Y-60617947D01*
X46766127Y-60761593D01*
X46637632Y-60931746D01*
X46542596Y-61122605D01*
X46542596Y-61122607D01*
X46484244Y-61327689D01*
X46473471Y-61443951D01*
X46447685Y-61508888D01*
X46403130Y-61540804D01*
X46294622Y-61540804D01*
X46296869Y-61539194D01*
X46260497Y-61518331D01*
X46228307Y-61456318D01*
X46226529Y-61443951D01*
X46225849Y-61436613D01*
X46215756Y-61327690D01*
X46157405Y-61122611D01*
X46157403Y-61122606D01*
X46157403Y-61122605D01*
X46062367Y-60931746D01*
X45933872Y-60761593D01*
X45776302Y-60617948D01*
X45595019Y-60505702D01*
X45595017Y-60505701D01*
X45472964Y-60458418D01*
X45396198Y-60428679D01*
X45199385Y-60391888D01*
X45137106Y-60360221D01*
X45101833Y-60299908D01*
X45104767Y-60230100D01*
X45144976Y-60172960D01*
X45199384Y-60148111D01*
X45396198Y-60111321D01*
X45595019Y-60034298D01*
X45776302Y-59922052D01*
X45933872Y-59778407D01*
X46062366Y-59608255D01*
X46116270Y-59500000D01*
X46157403Y-59417394D01*
X46157403Y-59417393D01*
X46157405Y-59417389D01*
X46215756Y-59212310D01*
X46226529Y-59096047D01*
X46252315Y-59031111D01*
X46296869Y-58999194D01*
X46260497Y-58978331D01*
X46228307Y-58916318D01*
X46226529Y-58903951D01*
X46225849Y-58896613D01*
X46215756Y-58787690D01*
X46157405Y-58582611D01*
X46157403Y-58582606D01*
X46157403Y-58582605D01*
X46062367Y-58391746D01*
X45933872Y-58221593D01*
X45802874Y-58102172D01*
X45776302Y-58077948D01*
X45595019Y-57965702D01*
X45595017Y-57965701D01*
X45445829Y-57907906D01*
X45396198Y-57888679D01*
X45186610Y-57849500D01*
X44973390Y-57849500D01*
X44763802Y-57888679D01*
X44763799Y-57888679D01*
X44763799Y-57888680D01*
X44564982Y-57965701D01*
X44564980Y-57965702D01*
X44383699Y-58077947D01*
X44226127Y-58221593D01*
X44097632Y-58391746D01*
X44002596Y-58582605D01*
X44002596Y-58582607D01*
X43944244Y-58787689D01*
X43933471Y-58903951D01*
X43907685Y-58968888D01*
X43863130Y-59000804D01*
X43899503Y-59021668D01*
X43931693Y-59083681D01*
X43933470Y-59096047D01*
X43944244Y-59212310D01*
X43997675Y-59400099D01*
X44002596Y-59417392D01*
X44002596Y-59417394D01*
X44097632Y-59608253D01*
X44112953Y-59628541D01*
X44226128Y-59778407D01*
X44383698Y-59922052D01*
X44564981Y-60034298D01*
X44763802Y-60111321D01*
X44960613Y-60148111D01*
X45022893Y-60179779D01*
X45058166Y-60240092D01*
X45055232Y-60309900D01*
X45015023Y-60367040D01*
X44960613Y-60391888D01*
X44763802Y-60428679D01*
X44763799Y-60428679D01*
X44763799Y-60428680D01*
X44564982Y-60505701D01*
X44564980Y-60505702D01*
X44383699Y-60617947D01*
X44226127Y-60761593D01*
X44097632Y-60931746D01*
X44002596Y-61122605D01*
X44002596Y-61122607D01*
X43944244Y-61327689D01*
X43933471Y-61443951D01*
X43907685Y-61508888D01*
X43863130Y-61540804D01*
X43754622Y-61540804D01*
X43756869Y-61539194D01*
X43720497Y-61518331D01*
X43688307Y-61456318D01*
X43686529Y-61443951D01*
X43685849Y-61436613D01*
X43675756Y-61327690D01*
X43617405Y-61122611D01*
X43617403Y-61122606D01*
X43617403Y-61122605D01*
X43522367Y-60931746D01*
X43393872Y-60761593D01*
X43236302Y-60617948D01*
X43055019Y-60505702D01*
X43055017Y-60505701D01*
X42932964Y-60458418D01*
X42856198Y-60428679D01*
X42659385Y-60391888D01*
X42597106Y-60360221D01*
X42561833Y-60299908D01*
X42564767Y-60230100D01*
X42604976Y-60172960D01*
X42659384Y-60148111D01*
X42856198Y-60111321D01*
X43055019Y-60034298D01*
X43236302Y-59922052D01*
X43393872Y-59778407D01*
X43522366Y-59608255D01*
X43576270Y-59500000D01*
X43617403Y-59417394D01*
X43617403Y-59417393D01*
X43617405Y-59417389D01*
X43675756Y-59212310D01*
X43686529Y-59096047D01*
X43712315Y-59031111D01*
X43756869Y-58999194D01*
X43720497Y-58978331D01*
X43688307Y-58916318D01*
X43686529Y-58903951D01*
X43685849Y-58896613D01*
X43675756Y-58787690D01*
X43617405Y-58582611D01*
X43617403Y-58582606D01*
X43617403Y-58582605D01*
X43522367Y-58391746D01*
X43393872Y-58221593D01*
X43262874Y-58102172D01*
X43236302Y-58077948D01*
X43055019Y-57965702D01*
X43055017Y-57965701D01*
X42905829Y-57907906D01*
X42856198Y-57888679D01*
X42646610Y-57849500D01*
X42433390Y-57849500D01*
X42223802Y-57888679D01*
X42223799Y-57888679D01*
X42223799Y-57888680D01*
X42024982Y-57965701D01*
X42024980Y-57965702D01*
X41843699Y-58077947D01*
X41686127Y-58221593D01*
X41557632Y-58391746D01*
X41462596Y-58582605D01*
X41462596Y-58582607D01*
X41404244Y-58787689D01*
X41393471Y-58903951D01*
X41367685Y-58968888D01*
X41323130Y-59000804D01*
X41359503Y-59021668D01*
X41391693Y-59083681D01*
X41393470Y-59096047D01*
X41404244Y-59212310D01*
X41457675Y-59400099D01*
X41462596Y-59417392D01*
X41462596Y-59417394D01*
X41557632Y-59608253D01*
X41572953Y-59628541D01*
X41686128Y-59778407D01*
X41843698Y-59922052D01*
X42024981Y-60034298D01*
X42223802Y-60111321D01*
X42420613Y-60148111D01*
X42482893Y-60179779D01*
X42518166Y-60240092D01*
X42515232Y-60309900D01*
X42475023Y-60367040D01*
X42420613Y-60391888D01*
X42223802Y-60428679D01*
X42223799Y-60428679D01*
X42223799Y-60428680D01*
X42024982Y-60505701D01*
X42024980Y-60505702D01*
X41843699Y-60617947D01*
X41686127Y-60761593D01*
X41557632Y-60931746D01*
X41462596Y-61122605D01*
X41462596Y-61122607D01*
X41404244Y-61327689D01*
X41393471Y-61443951D01*
X41367685Y-61508888D01*
X41323130Y-61540804D01*
X41214622Y-61540804D01*
X41216869Y-61539194D01*
X41180497Y-61518331D01*
X41148307Y-61456318D01*
X41146529Y-61443951D01*
X41145849Y-61436613D01*
X41135756Y-61327690D01*
X41077405Y-61122611D01*
X41077403Y-61122606D01*
X41077403Y-61122605D01*
X40982367Y-60931746D01*
X40853872Y-60761593D01*
X40696302Y-60617948D01*
X40515019Y-60505702D01*
X40515017Y-60505701D01*
X40392964Y-60458418D01*
X40316198Y-60428679D01*
X40119385Y-60391888D01*
X40057106Y-60360221D01*
X40021833Y-60299908D01*
X40024767Y-60230100D01*
X40064976Y-60172960D01*
X40119384Y-60148111D01*
X40316198Y-60111321D01*
X40515019Y-60034298D01*
X40696302Y-59922052D01*
X40853872Y-59778407D01*
X40982366Y-59608255D01*
X41036270Y-59500000D01*
X41077403Y-59417394D01*
X41077403Y-59417393D01*
X41077405Y-59417389D01*
X41135756Y-59212310D01*
X41146529Y-59096047D01*
X41172315Y-59031111D01*
X41216869Y-58999194D01*
X41180497Y-58978331D01*
X41148307Y-58916318D01*
X41146529Y-58903951D01*
X41145849Y-58896613D01*
X41135756Y-58787690D01*
X41077405Y-58582611D01*
X41077403Y-58582606D01*
X41077403Y-58582605D01*
X40982367Y-58391746D01*
X40853872Y-58221593D01*
X40722874Y-58102172D01*
X40696302Y-58077948D01*
X40515019Y-57965702D01*
X40515017Y-57965701D01*
X40365829Y-57907906D01*
X40316198Y-57888679D01*
X40106610Y-57849500D01*
X39893390Y-57849500D01*
X39683802Y-57888679D01*
X39683799Y-57888679D01*
X39683799Y-57888680D01*
X39484982Y-57965701D01*
X39484980Y-57965702D01*
X39303699Y-58077947D01*
X39146127Y-58221593D01*
X39017632Y-58391746D01*
X38922596Y-58582605D01*
X38922596Y-58582607D01*
X38864244Y-58787689D01*
X38853471Y-58903951D01*
X38827685Y-58968888D01*
X38783130Y-59000804D01*
X38819503Y-59021668D01*
X38851693Y-59083681D01*
X38853470Y-59096047D01*
X38864244Y-59212310D01*
X38917675Y-59400099D01*
X38922596Y-59417392D01*
X38922596Y-59417394D01*
X39017632Y-59608253D01*
X39032953Y-59628541D01*
X39146128Y-59778407D01*
X39303698Y-59922052D01*
X39484981Y-60034298D01*
X39683802Y-60111321D01*
X39880613Y-60148111D01*
X39942893Y-60179779D01*
X39978166Y-60240092D01*
X39975232Y-60309900D01*
X39935023Y-60367040D01*
X39880613Y-60391888D01*
X39683802Y-60428679D01*
X39683799Y-60428679D01*
X39683799Y-60428680D01*
X39484982Y-60505701D01*
X39484980Y-60505702D01*
X39303699Y-60617947D01*
X39146127Y-60761593D01*
X39017632Y-60931746D01*
X38922596Y-61122605D01*
X38922596Y-61122607D01*
X38864244Y-61327689D01*
X38853471Y-61443951D01*
X38827685Y-61508888D01*
X38783130Y-61540804D01*
X38674622Y-61540804D01*
X38676869Y-61539194D01*
X38640497Y-61518331D01*
X38608307Y-61456318D01*
X38606529Y-61443951D01*
X38605849Y-61436613D01*
X38595756Y-61327690D01*
X38537405Y-61122611D01*
X38537403Y-61122606D01*
X38537403Y-61122605D01*
X38442367Y-60931746D01*
X38313872Y-60761593D01*
X38156302Y-60617948D01*
X37975019Y-60505702D01*
X37975017Y-60505701D01*
X37852964Y-60458418D01*
X37776198Y-60428679D01*
X37579385Y-60391888D01*
X37517106Y-60360221D01*
X37481833Y-60299908D01*
X37484767Y-60230100D01*
X37524976Y-60172960D01*
X37579384Y-60148111D01*
X37776198Y-60111321D01*
X37975019Y-60034298D01*
X38156302Y-59922052D01*
X38313872Y-59778407D01*
X38442366Y-59608255D01*
X38496270Y-59500000D01*
X38537403Y-59417394D01*
X38537403Y-59417393D01*
X38537405Y-59417389D01*
X38595756Y-59212310D01*
X38606529Y-59096047D01*
X38632315Y-59031111D01*
X38676869Y-58999194D01*
X38640497Y-58978331D01*
X38608307Y-58916318D01*
X38606529Y-58903951D01*
X38605849Y-58896613D01*
X38595756Y-58787690D01*
X38537405Y-58582611D01*
X38537403Y-58582606D01*
X38537403Y-58582605D01*
X38442367Y-58391746D01*
X38313872Y-58221593D01*
X38182874Y-58102172D01*
X38156302Y-58077948D01*
X37975019Y-57965702D01*
X37975017Y-57965701D01*
X37825829Y-57907906D01*
X37776198Y-57888679D01*
X37566610Y-57849500D01*
X37353390Y-57849500D01*
X37143802Y-57888679D01*
X37143799Y-57888679D01*
X37143799Y-57888680D01*
X36944982Y-57965701D01*
X36944980Y-57965702D01*
X36763699Y-58077947D01*
X36606127Y-58221593D01*
X36477632Y-58391746D01*
X36382596Y-58582605D01*
X36382596Y-58582607D01*
X36324244Y-58787689D01*
X36313471Y-58903951D01*
X36287685Y-58968888D01*
X36243130Y-59000804D01*
X36279503Y-59021668D01*
X36311693Y-59083681D01*
X36313470Y-59096047D01*
X36324244Y-59212310D01*
X36377675Y-59400099D01*
X36382596Y-59417392D01*
X36382596Y-59417394D01*
X36477632Y-59608253D01*
X36492953Y-59628541D01*
X36606128Y-59778407D01*
X36763698Y-59922052D01*
X36944981Y-60034298D01*
X37143802Y-60111321D01*
X37340613Y-60148111D01*
X37402893Y-60179779D01*
X37438166Y-60240092D01*
X37435232Y-60309900D01*
X37395023Y-60367040D01*
X37340613Y-60391888D01*
X37143802Y-60428679D01*
X37143799Y-60428679D01*
X37143799Y-60428680D01*
X36944982Y-60505701D01*
X36944980Y-60505702D01*
X36763699Y-60617947D01*
X36606127Y-60761593D01*
X36477632Y-60931746D01*
X36382596Y-61122605D01*
X36382596Y-61122607D01*
X36324244Y-61327689D01*
X36313471Y-61443951D01*
X36287685Y-61508888D01*
X36243130Y-61540804D01*
X36134622Y-61540804D01*
X36136869Y-61539194D01*
X36100497Y-61518331D01*
X36068307Y-61456318D01*
X36066529Y-61443951D01*
X36065849Y-61436613D01*
X36055756Y-61327690D01*
X35997405Y-61122611D01*
X35997403Y-61122606D01*
X35997403Y-61122605D01*
X35902367Y-60931746D01*
X35773872Y-60761593D01*
X35616302Y-60617948D01*
X35435019Y-60505702D01*
X35435017Y-60505701D01*
X35312964Y-60458418D01*
X35236198Y-60428679D01*
X35039385Y-60391888D01*
X34977106Y-60360221D01*
X34941833Y-60299908D01*
X34944767Y-60230100D01*
X34984976Y-60172960D01*
X35039384Y-60148111D01*
X35236198Y-60111321D01*
X35435019Y-60034298D01*
X35616302Y-59922052D01*
X35773872Y-59778407D01*
X35902366Y-59608255D01*
X35956270Y-59500000D01*
X35997403Y-59417394D01*
X35997403Y-59417393D01*
X35997405Y-59417389D01*
X36055756Y-59212310D01*
X36066529Y-59096047D01*
X36092315Y-59031111D01*
X36136869Y-58999194D01*
X36100497Y-58978331D01*
X36068307Y-58916318D01*
X36066529Y-58903951D01*
X36065849Y-58896613D01*
X36055756Y-58787690D01*
X35997405Y-58582611D01*
X35997403Y-58582606D01*
X35997403Y-58582605D01*
X35902367Y-58391746D01*
X35773872Y-58221593D01*
X35642874Y-58102172D01*
X35616302Y-58077948D01*
X35435019Y-57965702D01*
X35435017Y-57965701D01*
X35285829Y-57907906D01*
X35236198Y-57888679D01*
X35026610Y-57849500D01*
X34813390Y-57849500D01*
X34603802Y-57888679D01*
X34603799Y-57888679D01*
X34603799Y-57888680D01*
X34404982Y-57965701D01*
X34404980Y-57965702D01*
X34223699Y-58077947D01*
X34066127Y-58221593D01*
X33937632Y-58391746D01*
X33842596Y-58582605D01*
X33842596Y-58582607D01*
X33784244Y-58787689D01*
X33773471Y-58903951D01*
X33747685Y-58968888D01*
X33703130Y-59000804D01*
X33739503Y-59021668D01*
X33771693Y-59083681D01*
X33773470Y-59096047D01*
X33784244Y-59212310D01*
X33837675Y-59400099D01*
X33842596Y-59417392D01*
X33842596Y-59417394D01*
X33937632Y-59608253D01*
X33952953Y-59628541D01*
X34066128Y-59778407D01*
X34223698Y-59922052D01*
X34404981Y-60034298D01*
X34603802Y-60111321D01*
X34800613Y-60148111D01*
X34862893Y-60179779D01*
X34898166Y-60240092D01*
X34895232Y-60309900D01*
X34855023Y-60367040D01*
X34800613Y-60391888D01*
X34603802Y-60428679D01*
X34603799Y-60428679D01*
X34603799Y-60428680D01*
X34404982Y-60505701D01*
X34404980Y-60505702D01*
X34223699Y-60617947D01*
X34066127Y-60761593D01*
X33937632Y-60931746D01*
X33842596Y-61122605D01*
X33842596Y-61122607D01*
X33784244Y-61327689D01*
X33773471Y-61443951D01*
X33747685Y-61508888D01*
X33703130Y-61540804D01*
X33594622Y-61540804D01*
X33596869Y-61539194D01*
X33560497Y-61518331D01*
X33528307Y-61456318D01*
X33526529Y-61443951D01*
X33525849Y-61436613D01*
X33515756Y-61327690D01*
X33457405Y-61122611D01*
X33457403Y-61122606D01*
X33457403Y-61122605D01*
X33362367Y-60931746D01*
X33233872Y-60761593D01*
X33076302Y-60617948D01*
X32895019Y-60505702D01*
X32895017Y-60505701D01*
X32772964Y-60458418D01*
X32696198Y-60428679D01*
X32499385Y-60391888D01*
X32437106Y-60360221D01*
X32401833Y-60299908D01*
X32404767Y-60230100D01*
X32444976Y-60172960D01*
X32499384Y-60148111D01*
X32696198Y-60111321D01*
X32895019Y-60034298D01*
X33076302Y-59922052D01*
X33233872Y-59778407D01*
X33362366Y-59608255D01*
X33416270Y-59500000D01*
X33457403Y-59417394D01*
X33457403Y-59417393D01*
X33457405Y-59417389D01*
X33515756Y-59212310D01*
X33526529Y-59096047D01*
X33552315Y-59031111D01*
X33596869Y-58999194D01*
X33560497Y-58978331D01*
X33528307Y-58916318D01*
X33526529Y-58903951D01*
X33525849Y-58896613D01*
X33515756Y-58787690D01*
X33457405Y-58582611D01*
X33457403Y-58582606D01*
X33457403Y-58582605D01*
X33362367Y-58391746D01*
X33233872Y-58221593D01*
X33102874Y-58102172D01*
X33076302Y-58077948D01*
X32895019Y-57965702D01*
X32895017Y-57965701D01*
X32745829Y-57907906D01*
X32696198Y-57888679D01*
X32486610Y-57849500D01*
X32273390Y-57849500D01*
X32063802Y-57888679D01*
X32063799Y-57888679D01*
X32063799Y-57888680D01*
X31864982Y-57965701D01*
X31864980Y-57965702D01*
X31683699Y-58077947D01*
X31526127Y-58221593D01*
X31412954Y-58371458D01*
X31356845Y-58413094D01*
X31287133Y-58417785D01*
X31225951Y-58384043D01*
X31192724Y-58322579D01*
X31190000Y-58296731D01*
X31190000Y-58102172D01*
X31189999Y-58102155D01*
X31183598Y-58042627D01*
X31183596Y-58042620D01*
X31133354Y-57907913D01*
X31133350Y-57907906D01*
X31047190Y-57792812D01*
X31047187Y-57792809D01*
X30932093Y-57706649D01*
X30932086Y-57706645D01*
X30797379Y-57656403D01*
X30797372Y-57656401D01*
X30737844Y-57650000D01*
X30090000Y-57650000D01*
X30090000Y-58566988D01*
X30032993Y-58534075D01*
X29905826Y-58500000D01*
X29774174Y-58500000D01*
X29647007Y-58534075D01*
X29590000Y-58566988D01*
X29590000Y-57650000D01*
X28942155Y-57650000D01*
X28882627Y-57656401D01*
X28882620Y-57656403D01*
X28747913Y-57706645D01*
X28747906Y-57706649D01*
X28632812Y-57792809D01*
X28632809Y-57792812D01*
X28546649Y-57907906D01*
X28546645Y-57907913D01*
X28496403Y-58042620D01*
X28496401Y-58042627D01*
X28490000Y-58102155D01*
X28490000Y-58750000D01*
X29406988Y-58750000D01*
X29374075Y-58807007D01*
X29340000Y-58934174D01*
X29340000Y-59065826D01*
X29374075Y-59192993D01*
X29406988Y-59250000D01*
X28490000Y-59250000D01*
X28490000Y-59897844D01*
X26000500Y-59897844D01*
X26000500Y-31059498D01*
X26020185Y-30992459D01*
X26072989Y-30946704D01*
X26124500Y-30935498D01*
X50755500Y-30935498D01*
X50822539Y-30955183D01*
G37*
%TD.AperFunction*%
%TD*%
M02*
