%TF.GenerationSoftware,KiCad,Pcbnew,8.0.0*%
%TF.CreationDate,2024-03-16T16:39:28+00:00*%
%TF.ProjectId,pcb,7063622e-6b69-4636-9164-5f7063625858,rev?*%
%TF.SameCoordinates,Original*%
%TF.FileFunction,Legend,Top*%
%TF.FilePolarity,Positive*%
%FSLAX46Y46*%
G04 Gerber Fmt 4.6, Leading zero omitted, Abs format (unit mm)*
G04 Created by KiCad (PCBNEW 8.0.0) date 2024-03-16 16:39:28*
%MOMM*%
%LPD*%
G01*
G04 APERTURE LIST*
%ADD10C,0.550000*%
%ADD11C,0.150000*%
%ADD12C,0.120000*%
G04 APERTURE END LIST*
D10*
X30155000Y-56500000D02*
G75*
G02*
X29605000Y-56500000I-275000J0D01*
G01*
X29605000Y-56500000D02*
G75*
G02*
X30155000Y-56500000I275000J0D01*
G01*
D11*
X28950000Y-53452611D02*
X29416666Y-54152611D01*
X29416666Y-53452611D02*
X28950000Y-54152611D01*
X29683333Y-54152611D02*
X29683333Y-53452611D01*
X29683333Y-53719278D02*
X29750000Y-53685944D01*
X29750000Y-53685944D02*
X29883333Y-53685944D01*
X29883333Y-53685944D02*
X29950000Y-53719278D01*
X29950000Y-53719278D02*
X29983333Y-53752611D01*
X29983333Y-53752611D02*
X30016667Y-53819278D01*
X30016667Y-53819278D02*
X30016667Y-54019278D01*
X30016667Y-54019278D02*
X29983333Y-54085944D01*
X29983333Y-54085944D02*
X29950000Y-54119278D01*
X29950000Y-54119278D02*
X29883333Y-54152611D01*
X29883333Y-54152611D02*
X29750000Y-54152611D01*
X29750000Y-54152611D02*
X29683333Y-54119278D01*
X30416666Y-54152611D02*
X30350000Y-54119278D01*
X30350000Y-54119278D02*
X30316666Y-54085944D01*
X30316666Y-54085944D02*
X30283333Y-54019278D01*
X30283333Y-54019278D02*
X30283333Y-53819278D01*
X30283333Y-53819278D02*
X30316666Y-53752611D01*
X30316666Y-53752611D02*
X30350000Y-53719278D01*
X30350000Y-53719278D02*
X30416666Y-53685944D01*
X30416666Y-53685944D02*
X30516666Y-53685944D01*
X30516666Y-53685944D02*
X30583333Y-53719278D01*
X30583333Y-53719278D02*
X30616666Y-53752611D01*
X30616666Y-53752611D02*
X30650000Y-53819278D01*
X30650000Y-53819278D02*
X30650000Y-54019278D01*
X30650000Y-54019278D02*
X30616666Y-54085944D01*
X30616666Y-54085944D02*
X30583333Y-54119278D01*
X30583333Y-54119278D02*
X30516666Y-54152611D01*
X30516666Y-54152611D02*
X30416666Y-54152611D01*
X30883333Y-54152611D02*
X31249999Y-53685944D01*
X30883333Y-53685944D02*
X31249999Y-54152611D01*
X32449999Y-54152611D02*
X32216666Y-53819278D01*
X32049999Y-54152611D02*
X32049999Y-53452611D01*
X32049999Y-53452611D02*
X32316666Y-53452611D01*
X32316666Y-53452611D02*
X32383333Y-53485944D01*
X32383333Y-53485944D02*
X32416666Y-53519278D01*
X32416666Y-53519278D02*
X32449999Y-53585944D01*
X32449999Y-53585944D02*
X32449999Y-53685944D01*
X32449999Y-53685944D02*
X32416666Y-53752611D01*
X32416666Y-53752611D02*
X32383333Y-53785944D01*
X32383333Y-53785944D02*
X32316666Y-53819278D01*
X32316666Y-53819278D02*
X32049999Y-53819278D01*
X32749999Y-54152611D02*
X32749999Y-53452611D01*
X32749999Y-53452611D02*
X33016666Y-53452611D01*
X33016666Y-53452611D02*
X33083333Y-53485944D01*
X33083333Y-53485944D02*
X33116666Y-53519278D01*
X33116666Y-53519278D02*
X33149999Y-53585944D01*
X33149999Y-53585944D02*
X33149999Y-53685944D01*
X33149999Y-53685944D02*
X33116666Y-53752611D01*
X33116666Y-53752611D02*
X33083333Y-53785944D01*
X33083333Y-53785944D02*
X33016666Y-53819278D01*
X33016666Y-53819278D02*
X32749999Y-53819278D01*
X33416666Y-53519278D02*
X33449999Y-53485944D01*
X33449999Y-53485944D02*
X33516666Y-53452611D01*
X33516666Y-53452611D02*
X33683333Y-53452611D01*
X33683333Y-53452611D02*
X33749999Y-53485944D01*
X33749999Y-53485944D02*
X33783333Y-53519278D01*
X33783333Y-53519278D02*
X33816666Y-53585944D01*
X33816666Y-53585944D02*
X33816666Y-53652611D01*
X33816666Y-53652611D02*
X33783333Y-53752611D01*
X33783333Y-53752611D02*
X33383333Y-54152611D01*
X33383333Y-54152611D02*
X33816666Y-54152611D01*
X34250000Y-53452611D02*
X34316666Y-53452611D01*
X34316666Y-53452611D02*
X34383333Y-53485944D01*
X34383333Y-53485944D02*
X34416666Y-53519278D01*
X34416666Y-53519278D02*
X34450000Y-53585944D01*
X34450000Y-53585944D02*
X34483333Y-53719278D01*
X34483333Y-53719278D02*
X34483333Y-53885944D01*
X34483333Y-53885944D02*
X34450000Y-54019278D01*
X34450000Y-54019278D02*
X34416666Y-54085944D01*
X34416666Y-54085944D02*
X34383333Y-54119278D01*
X34383333Y-54119278D02*
X34316666Y-54152611D01*
X34316666Y-54152611D02*
X34250000Y-54152611D01*
X34250000Y-54152611D02*
X34183333Y-54119278D01*
X34183333Y-54119278D02*
X34150000Y-54085944D01*
X34150000Y-54085944D02*
X34116666Y-54019278D01*
X34116666Y-54019278D02*
X34083333Y-53885944D01*
X34083333Y-53885944D02*
X34083333Y-53719278D01*
X34083333Y-53719278D02*
X34116666Y-53585944D01*
X34116666Y-53585944D02*
X34150000Y-53519278D01*
X34150000Y-53519278D02*
X34183333Y-53485944D01*
X34183333Y-53485944D02*
X34250000Y-53452611D01*
X35083333Y-53685944D02*
X35083333Y-54152611D01*
X34916667Y-53419278D02*
X34750000Y-53919278D01*
X34750000Y-53919278D02*
X35183333Y-53919278D01*
X35583334Y-53452611D02*
X35650000Y-53452611D01*
X35650000Y-53452611D02*
X35716667Y-53485944D01*
X35716667Y-53485944D02*
X35750000Y-53519278D01*
X35750000Y-53519278D02*
X35783334Y-53585944D01*
X35783334Y-53585944D02*
X35816667Y-53719278D01*
X35816667Y-53719278D02*
X35816667Y-53885944D01*
X35816667Y-53885944D02*
X35783334Y-54019278D01*
X35783334Y-54019278D02*
X35750000Y-54085944D01*
X35750000Y-54085944D02*
X35716667Y-54119278D01*
X35716667Y-54119278D02*
X35650000Y-54152611D01*
X35650000Y-54152611D02*
X35583334Y-54152611D01*
X35583334Y-54152611D02*
X35516667Y-54119278D01*
X35516667Y-54119278D02*
X35483334Y-54085944D01*
X35483334Y-54085944D02*
X35450000Y-54019278D01*
X35450000Y-54019278D02*
X35416667Y-53885944D01*
X35416667Y-53885944D02*
X35416667Y-53719278D01*
X35416667Y-53719278D02*
X35450000Y-53585944D01*
X35450000Y-53585944D02*
X35483334Y-53519278D01*
X35483334Y-53519278D02*
X35516667Y-53485944D01*
X35516667Y-53485944D02*
X35583334Y-53452611D01*
X36116667Y-53885944D02*
X36650001Y-53885944D01*
X36916668Y-53452611D02*
X37383334Y-53452611D01*
X37383334Y-53452611D02*
X36916668Y-54152611D01*
X36916668Y-54152611D02*
X37383334Y-54152611D01*
X37916668Y-54119278D02*
X37850001Y-54152611D01*
X37850001Y-54152611D02*
X37716668Y-54152611D01*
X37716668Y-54152611D02*
X37650001Y-54119278D01*
X37650001Y-54119278D02*
X37616668Y-54052611D01*
X37616668Y-54052611D02*
X37616668Y-53785944D01*
X37616668Y-53785944D02*
X37650001Y-53719278D01*
X37650001Y-53719278D02*
X37716668Y-53685944D01*
X37716668Y-53685944D02*
X37850001Y-53685944D01*
X37850001Y-53685944D02*
X37916668Y-53719278D01*
X37916668Y-53719278D02*
X37950001Y-53785944D01*
X37950001Y-53785944D02*
X37950001Y-53852611D01*
X37950001Y-53852611D02*
X37616668Y-53919278D01*
X38250001Y-54152611D02*
X38250001Y-53685944D01*
X38250001Y-53819278D02*
X38283335Y-53752611D01*
X38283335Y-53752611D02*
X38316668Y-53719278D01*
X38316668Y-53719278D02*
X38383335Y-53685944D01*
X38383335Y-53685944D02*
X38450001Y-53685944D01*
X38783334Y-54152611D02*
X38716668Y-54119278D01*
X38716668Y-54119278D02*
X38683334Y-54085944D01*
X38683334Y-54085944D02*
X38650001Y-54019278D01*
X38650001Y-54019278D02*
X38650001Y-53819278D01*
X38650001Y-53819278D02*
X38683334Y-53752611D01*
X38683334Y-53752611D02*
X38716668Y-53719278D01*
X38716668Y-53719278D02*
X38783334Y-53685944D01*
X38783334Y-53685944D02*
X38883334Y-53685944D01*
X38883334Y-53685944D02*
X38950001Y-53719278D01*
X38950001Y-53719278D02*
X38983334Y-53752611D01*
X38983334Y-53752611D02*
X39016668Y-53819278D01*
X39016668Y-53819278D02*
X39016668Y-54019278D01*
X39016668Y-54019278D02*
X38983334Y-54085944D01*
X38983334Y-54085944D02*
X38950001Y-54119278D01*
X38950001Y-54119278D02*
X38883334Y-54152611D01*
X38883334Y-54152611D02*
X38783334Y-54152611D01*
X29800001Y-55279572D02*
X29800001Y-54579572D01*
X29800001Y-54579572D02*
X30033335Y-55079572D01*
X30033335Y-55079572D02*
X30266668Y-54579572D01*
X30266668Y-54579572D02*
X30266668Y-55279572D01*
X30700001Y-55279572D02*
X30633335Y-55246239D01*
X30633335Y-55246239D02*
X30600001Y-55212905D01*
X30600001Y-55212905D02*
X30566668Y-55146239D01*
X30566668Y-55146239D02*
X30566668Y-54946239D01*
X30566668Y-54946239D02*
X30600001Y-54879572D01*
X30600001Y-54879572D02*
X30633335Y-54846239D01*
X30633335Y-54846239D02*
X30700001Y-54812905D01*
X30700001Y-54812905D02*
X30800001Y-54812905D01*
X30800001Y-54812905D02*
X30866668Y-54846239D01*
X30866668Y-54846239D02*
X30900001Y-54879572D01*
X30900001Y-54879572D02*
X30933335Y-54946239D01*
X30933335Y-54946239D02*
X30933335Y-55146239D01*
X30933335Y-55146239D02*
X30900001Y-55212905D01*
X30900001Y-55212905D02*
X30866668Y-55246239D01*
X30866668Y-55246239D02*
X30800001Y-55279572D01*
X30800001Y-55279572D02*
X30700001Y-55279572D01*
X31533334Y-55279572D02*
X31533334Y-54579572D01*
X31533334Y-55246239D02*
X31466668Y-55279572D01*
X31466668Y-55279572D02*
X31333334Y-55279572D01*
X31333334Y-55279572D02*
X31266668Y-55246239D01*
X31266668Y-55246239D02*
X31233334Y-55212905D01*
X31233334Y-55212905D02*
X31200001Y-55146239D01*
X31200001Y-55146239D02*
X31200001Y-54946239D01*
X31200001Y-54946239D02*
X31233334Y-54879572D01*
X31233334Y-54879572D02*
X31266668Y-54846239D01*
X31266668Y-54846239D02*
X31333334Y-54812905D01*
X31333334Y-54812905D02*
X31466668Y-54812905D01*
X31466668Y-54812905D02*
X31533334Y-54846239D01*
X32166667Y-55246239D02*
X32100001Y-55279572D01*
X32100001Y-55279572D02*
X31966667Y-55279572D01*
X31966667Y-55279572D02*
X31900001Y-55246239D01*
X31900001Y-55246239D02*
X31866667Y-55212905D01*
X31866667Y-55212905D02*
X31833334Y-55146239D01*
X31833334Y-55146239D02*
X31833334Y-54946239D01*
X31833334Y-54946239D02*
X31866667Y-54879572D01*
X31866667Y-54879572D02*
X31900001Y-54846239D01*
X31900001Y-54846239D02*
X31966667Y-54812905D01*
X31966667Y-54812905D02*
X32100001Y-54812905D01*
X32100001Y-54812905D02*
X32166667Y-54846239D01*
X32466667Y-55279572D02*
X32466667Y-54579572D01*
X32766667Y-55279572D02*
X32766667Y-54912905D01*
X32766667Y-54912905D02*
X32733334Y-54846239D01*
X32733334Y-54846239D02*
X32666667Y-54812905D01*
X32666667Y-54812905D02*
X32566667Y-54812905D01*
X32566667Y-54812905D02*
X32500001Y-54846239D01*
X32500001Y-54846239D02*
X32466667Y-54879572D01*
X33100000Y-55279572D02*
X33100000Y-54812905D01*
X33100000Y-54579572D02*
X33066667Y-54612905D01*
X33066667Y-54612905D02*
X33100000Y-54646239D01*
X33100000Y-54646239D02*
X33133334Y-54612905D01*
X33133334Y-54612905D02*
X33100000Y-54579572D01*
X33100000Y-54579572D02*
X33100000Y-54646239D01*
X33433333Y-54812905D02*
X33433333Y-55512905D01*
X33433333Y-54846239D02*
X33500000Y-54812905D01*
X33500000Y-54812905D02*
X33633333Y-54812905D01*
X33633333Y-54812905D02*
X33700000Y-54846239D01*
X33700000Y-54846239D02*
X33733333Y-54879572D01*
X33733333Y-54879572D02*
X33766667Y-54946239D01*
X33766667Y-54946239D02*
X33766667Y-55146239D01*
X33766667Y-55146239D02*
X33733333Y-55212905D01*
X33733333Y-55212905D02*
X33700000Y-55246239D01*
X33700000Y-55246239D02*
X33633333Y-55279572D01*
X33633333Y-55279572D02*
X33500000Y-55279572D01*
X33500000Y-55279572D02*
X33433333Y-55246239D01*
X34566666Y-55079572D02*
X34899999Y-55079572D01*
X34499999Y-55279572D02*
X34733333Y-54579572D01*
X34733333Y-54579572D02*
X34966666Y-55279572D01*
X35499999Y-55279572D02*
X35499999Y-54579572D01*
X35499999Y-55246239D02*
X35433333Y-55279572D01*
X35433333Y-55279572D02*
X35299999Y-55279572D01*
X35299999Y-55279572D02*
X35233333Y-55246239D01*
X35233333Y-55246239D02*
X35199999Y-55212905D01*
X35199999Y-55212905D02*
X35166666Y-55146239D01*
X35166666Y-55146239D02*
X35166666Y-54946239D01*
X35166666Y-54946239D02*
X35199999Y-54879572D01*
X35199999Y-54879572D02*
X35233333Y-54846239D01*
X35233333Y-54846239D02*
X35299999Y-54812905D01*
X35299999Y-54812905D02*
X35433333Y-54812905D01*
X35433333Y-54812905D02*
X35499999Y-54846239D01*
X36133332Y-55279572D02*
X36133332Y-54912905D01*
X36133332Y-54912905D02*
X36099999Y-54846239D01*
X36099999Y-54846239D02*
X36033332Y-54812905D01*
X36033332Y-54812905D02*
X35899999Y-54812905D01*
X35899999Y-54812905D02*
X35833332Y-54846239D01*
X36133332Y-55246239D02*
X36066666Y-55279572D01*
X36066666Y-55279572D02*
X35899999Y-55279572D01*
X35899999Y-55279572D02*
X35833332Y-55246239D01*
X35833332Y-55246239D02*
X35799999Y-55179572D01*
X35799999Y-55179572D02*
X35799999Y-55112905D01*
X35799999Y-55112905D02*
X35833332Y-55046239D01*
X35833332Y-55046239D02*
X35899999Y-55012905D01*
X35899999Y-55012905D02*
X36066666Y-55012905D01*
X36066666Y-55012905D02*
X36133332Y-54979572D01*
X36466665Y-54812905D02*
X36466665Y-55512905D01*
X36466665Y-54846239D02*
X36533332Y-54812905D01*
X36533332Y-54812905D02*
X36666665Y-54812905D01*
X36666665Y-54812905D02*
X36733332Y-54846239D01*
X36733332Y-54846239D02*
X36766665Y-54879572D01*
X36766665Y-54879572D02*
X36799999Y-54946239D01*
X36799999Y-54946239D02*
X36799999Y-55146239D01*
X36799999Y-55146239D02*
X36766665Y-55212905D01*
X36766665Y-55212905D02*
X36733332Y-55246239D01*
X36733332Y-55246239D02*
X36666665Y-55279572D01*
X36666665Y-55279572D02*
X36533332Y-55279572D01*
X36533332Y-55279572D02*
X36466665Y-55246239D01*
X36999998Y-54812905D02*
X37266665Y-54812905D01*
X37099998Y-54579572D02*
X37099998Y-55179572D01*
X37099998Y-55179572D02*
X37133332Y-55246239D01*
X37133332Y-55246239D02*
X37199998Y-55279572D01*
X37199998Y-55279572D02*
X37266665Y-55279572D01*
X37766665Y-55246239D02*
X37699998Y-55279572D01*
X37699998Y-55279572D02*
X37566665Y-55279572D01*
X37566665Y-55279572D02*
X37499998Y-55246239D01*
X37499998Y-55246239D02*
X37466665Y-55179572D01*
X37466665Y-55179572D02*
X37466665Y-54912905D01*
X37466665Y-54912905D02*
X37499998Y-54846239D01*
X37499998Y-54846239D02*
X37566665Y-54812905D01*
X37566665Y-54812905D02*
X37699998Y-54812905D01*
X37699998Y-54812905D02*
X37766665Y-54846239D01*
X37766665Y-54846239D02*
X37799998Y-54912905D01*
X37799998Y-54912905D02*
X37799998Y-54979572D01*
X37799998Y-54979572D02*
X37466665Y-55046239D01*
X38099998Y-55279572D02*
X38099998Y-54812905D01*
X38099998Y-54946239D02*
X38133332Y-54879572D01*
X38133332Y-54879572D02*
X38166665Y-54846239D01*
X38166665Y-54846239D02*
X38233332Y-54812905D01*
X38233332Y-54812905D02*
X38299998Y-54812905D01*
X32550000Y-56406533D02*
X32316667Y-56073200D01*
X32150000Y-56406533D02*
X32150000Y-55706533D01*
X32150000Y-55706533D02*
X32416667Y-55706533D01*
X32416667Y-55706533D02*
X32483334Y-55739866D01*
X32483334Y-55739866D02*
X32516667Y-55773200D01*
X32516667Y-55773200D02*
X32550000Y-55839866D01*
X32550000Y-55839866D02*
X32550000Y-55939866D01*
X32550000Y-55939866D02*
X32516667Y-56006533D01*
X32516667Y-56006533D02*
X32483334Y-56039866D01*
X32483334Y-56039866D02*
X32416667Y-56073200D01*
X32416667Y-56073200D02*
X32150000Y-56073200D01*
X33116667Y-56373200D02*
X33050000Y-56406533D01*
X33050000Y-56406533D02*
X32916667Y-56406533D01*
X32916667Y-56406533D02*
X32850000Y-56373200D01*
X32850000Y-56373200D02*
X32816667Y-56306533D01*
X32816667Y-56306533D02*
X32816667Y-56039866D01*
X32816667Y-56039866D02*
X32850000Y-55973200D01*
X32850000Y-55973200D02*
X32916667Y-55939866D01*
X32916667Y-55939866D02*
X33050000Y-55939866D01*
X33050000Y-55939866D02*
X33116667Y-55973200D01*
X33116667Y-55973200D02*
X33150000Y-56039866D01*
X33150000Y-56039866D02*
X33150000Y-56106533D01*
X33150000Y-56106533D02*
X32816667Y-56173200D01*
X33383334Y-55939866D02*
X33550000Y-56406533D01*
X33550000Y-56406533D02*
X33716667Y-55939866D01*
X34883333Y-56406533D02*
X34483333Y-56406533D01*
X34683333Y-56406533D02*
X34683333Y-55706533D01*
X34683333Y-55706533D02*
X34616666Y-55806533D01*
X34616666Y-55806533D02*
X34550000Y-55873200D01*
X34550000Y-55873200D02*
X34483333Y-55906533D01*
X35183333Y-56339866D02*
X35216667Y-56373200D01*
X35216667Y-56373200D02*
X35183333Y-56406533D01*
X35183333Y-56406533D02*
X35150000Y-56373200D01*
X35150000Y-56373200D02*
X35183333Y-56339866D01*
X35183333Y-56339866D02*
X35183333Y-56406533D01*
X35650000Y-55706533D02*
X35716666Y-55706533D01*
X35716666Y-55706533D02*
X35783333Y-55739866D01*
X35783333Y-55739866D02*
X35816666Y-55773200D01*
X35816666Y-55773200D02*
X35850000Y-55839866D01*
X35850000Y-55839866D02*
X35883333Y-55973200D01*
X35883333Y-55973200D02*
X35883333Y-56139866D01*
X35883333Y-56139866D02*
X35850000Y-56273200D01*
X35850000Y-56273200D02*
X35816666Y-56339866D01*
X35816666Y-56339866D02*
X35783333Y-56373200D01*
X35783333Y-56373200D02*
X35716666Y-56406533D01*
X35716666Y-56406533D02*
X35650000Y-56406533D01*
X35650000Y-56406533D02*
X35583333Y-56373200D01*
X35583333Y-56373200D02*
X35550000Y-56339866D01*
X35550000Y-56339866D02*
X35516666Y-56273200D01*
X35516666Y-56273200D02*
X35483333Y-56139866D01*
X35483333Y-56139866D02*
X35483333Y-55973200D01*
X35483333Y-55973200D02*
X35516666Y-55839866D01*
X35516666Y-55839866D02*
X35550000Y-55773200D01*
X35550000Y-55773200D02*
X35583333Y-55739866D01*
X35583333Y-55739866D02*
X35650000Y-55706533D01*
D12*
X47400000Y-54771331D02*
X47200000Y-54485617D01*
X47057143Y-54771331D02*
X47057143Y-54171331D01*
X47057143Y-54171331D02*
X47285714Y-54171331D01*
X47285714Y-54171331D02*
X47342857Y-54199902D01*
X47342857Y-54199902D02*
X47371428Y-54228474D01*
X47371428Y-54228474D02*
X47400000Y-54285617D01*
X47400000Y-54285617D02*
X47400000Y-54371331D01*
X47400000Y-54371331D02*
X47371428Y-54428474D01*
X47371428Y-54428474D02*
X47342857Y-54457045D01*
X47342857Y-54457045D02*
X47285714Y-54485617D01*
X47285714Y-54485617D02*
X47057143Y-54485617D01*
X47628571Y-54228474D02*
X47657143Y-54199902D01*
X47657143Y-54199902D02*
X47714286Y-54171331D01*
X47714286Y-54171331D02*
X47857143Y-54171331D01*
X47857143Y-54171331D02*
X47914286Y-54199902D01*
X47914286Y-54199902D02*
X47942857Y-54228474D01*
X47942857Y-54228474D02*
X47971428Y-54285617D01*
X47971428Y-54285617D02*
X47971428Y-54342760D01*
X47971428Y-54342760D02*
X47942857Y-54428474D01*
X47942857Y-54428474D02*
X47600000Y-54771331D01*
X47600000Y-54771331D02*
X47971428Y-54771331D01*
X44900000Y-54771331D02*
X44700000Y-54485617D01*
X44557143Y-54771331D02*
X44557143Y-54171331D01*
X44557143Y-54171331D02*
X44785714Y-54171331D01*
X44785714Y-54171331D02*
X44842857Y-54199902D01*
X44842857Y-54199902D02*
X44871428Y-54228474D01*
X44871428Y-54228474D02*
X44900000Y-54285617D01*
X44900000Y-54285617D02*
X44900000Y-54371331D01*
X44900000Y-54371331D02*
X44871428Y-54428474D01*
X44871428Y-54428474D02*
X44842857Y-54457045D01*
X44842857Y-54457045D02*
X44785714Y-54485617D01*
X44785714Y-54485617D02*
X44557143Y-54485617D01*
X45100000Y-54171331D02*
X45471428Y-54171331D01*
X45471428Y-54171331D02*
X45271428Y-54399902D01*
X45271428Y-54399902D02*
X45357143Y-54399902D01*
X45357143Y-54399902D02*
X45414286Y-54428474D01*
X45414286Y-54428474D02*
X45442857Y-54457045D01*
X45442857Y-54457045D02*
X45471428Y-54514188D01*
X45471428Y-54514188D02*
X45471428Y-54657045D01*
X45471428Y-54657045D02*
X45442857Y-54714188D01*
X45442857Y-54714188D02*
X45414286Y-54742760D01*
X45414286Y-54742760D02*
X45357143Y-54771331D01*
X45357143Y-54771331D02*
X45185714Y-54771331D01*
X45185714Y-54771331D02*
X45128571Y-54742760D01*
X45128571Y-54742760D02*
X45100000Y-54714188D01*
X49900001Y-54771331D02*
X49700001Y-54485617D01*
X49557144Y-54771331D02*
X49557144Y-54171331D01*
X49557144Y-54171331D02*
X49785715Y-54171331D01*
X49785715Y-54171331D02*
X49842858Y-54199902D01*
X49842858Y-54199902D02*
X49871429Y-54228474D01*
X49871429Y-54228474D02*
X49900001Y-54285617D01*
X49900001Y-54285617D02*
X49900001Y-54371331D01*
X49900001Y-54371331D02*
X49871429Y-54428474D01*
X49871429Y-54428474D02*
X49842858Y-54457045D01*
X49842858Y-54457045D02*
X49785715Y-54485617D01*
X49785715Y-54485617D02*
X49557144Y-54485617D01*
X50471429Y-54771331D02*
X50128572Y-54771331D01*
X50300001Y-54771331D02*
X50300001Y-54171331D01*
X50300001Y-54171331D02*
X50242858Y-54257045D01*
X50242858Y-54257045D02*
X50185715Y-54314188D01*
X50185715Y-54314188D02*
X50128572Y-54342760D01*
X42400000Y-54771331D02*
X42200000Y-54485617D01*
X42057143Y-54771331D02*
X42057143Y-54171331D01*
X42057143Y-54171331D02*
X42285714Y-54171331D01*
X42285714Y-54171331D02*
X42342857Y-54199902D01*
X42342857Y-54199902D02*
X42371428Y-54228474D01*
X42371428Y-54228474D02*
X42400000Y-54285617D01*
X42400000Y-54285617D02*
X42400000Y-54371331D01*
X42400000Y-54371331D02*
X42371428Y-54428474D01*
X42371428Y-54428474D02*
X42342857Y-54457045D01*
X42342857Y-54457045D02*
X42285714Y-54485617D01*
X42285714Y-54485617D02*
X42057143Y-54485617D01*
X42914286Y-54371331D02*
X42914286Y-54771331D01*
X42771428Y-54142760D02*
X42628571Y-54571331D01*
X42628571Y-54571331D02*
X43000000Y-54571331D01*
%TO.C,R2*%
X45977500Y-54262742D02*
X45977500Y-54737258D01*
X47022500Y-54262742D02*
X47022500Y-54737258D01*
%TO.C,REF\u002A\u002A*%
X27330000Y-32380000D02*
X27330000Y-50380000D01*
X27330000Y-50380000D02*
X50830000Y-50380000D01*
X50830000Y-32380000D02*
X27330000Y-32380000D01*
X50830000Y-50380000D02*
X50830000Y-32380000D01*
X28505000Y-62890000D02*
X28510000Y-57670000D01*
X28505000Y-62890000D02*
X48950000Y-62870000D01*
X28510000Y-57670000D02*
X48950000Y-57670000D01*
X48950000Y-62870000D02*
X48950000Y-57670000D01*
%TO.C,R3*%
X43477500Y-54262742D02*
X43477500Y-54737258D01*
X44522500Y-54262742D02*
X44522500Y-54737258D01*
%TO.C,R1*%
X48477500Y-54262742D02*
X48477500Y-54737258D01*
X49522500Y-54262742D02*
X49522500Y-54737258D01*
%TO.C,R4*%
X40977500Y-54262742D02*
X40977500Y-54737258D01*
X42022500Y-54262742D02*
X42022500Y-54737258D01*
%TD*%
M02*
