%TF.GenerationSoftware,KiCad,Pcbnew,8.0.1*%
%TF.CreationDate,2024-03-19T13:28:27+00:00*%
%TF.ProjectId,pcb,7063622e-6b69-4636-9164-5f7063625858,rev?*%
%TF.SameCoordinates,Original*%
%TF.FileFunction,Legend,Top*%
%TF.FilePolarity,Positive*%
%FSLAX46Y46*%
G04 Gerber Fmt 4.6, Leading zero omitted, Abs format (unit mm)*
G04 Created by KiCad (PCBNEW 8.0.1) date 2024-03-19 13:28:27*
%MOMM*%
%LPD*%
G01*
G04 APERTURE LIST*
%ADD10C,0.120000*%
%ADD11C,0.200000*%
%ADD12C,0.550000*%
G04 APERTURE END LIST*
D10*
X59950000Y-48708093D02*
X59716667Y-48374760D01*
X59550000Y-48708093D02*
X59550000Y-48008093D01*
X59550000Y-48008093D02*
X59816667Y-48008093D01*
X59816667Y-48008093D02*
X59883334Y-48041426D01*
X59883334Y-48041426D02*
X59916667Y-48074760D01*
X59916667Y-48074760D02*
X59950000Y-48141426D01*
X59950000Y-48141426D02*
X59950000Y-48241426D01*
X59950000Y-48241426D02*
X59916667Y-48308093D01*
X59916667Y-48308093D02*
X59883334Y-48341426D01*
X59883334Y-48341426D02*
X59816667Y-48374760D01*
X59816667Y-48374760D02*
X59550000Y-48374760D01*
X60516667Y-48674760D02*
X60450000Y-48708093D01*
X60450000Y-48708093D02*
X60316667Y-48708093D01*
X60316667Y-48708093D02*
X60250000Y-48674760D01*
X60250000Y-48674760D02*
X60216667Y-48608093D01*
X60216667Y-48608093D02*
X60216667Y-48341426D01*
X60216667Y-48341426D02*
X60250000Y-48274760D01*
X60250000Y-48274760D02*
X60316667Y-48241426D01*
X60316667Y-48241426D02*
X60450000Y-48241426D01*
X60450000Y-48241426D02*
X60516667Y-48274760D01*
X60516667Y-48274760D02*
X60550000Y-48341426D01*
X60550000Y-48341426D02*
X60550000Y-48408093D01*
X60550000Y-48408093D02*
X60216667Y-48474760D01*
X60783334Y-48241426D02*
X60950000Y-48708093D01*
X60950000Y-48708093D02*
X61116667Y-48241426D01*
X62283333Y-48708093D02*
X61883333Y-48708093D01*
X62083333Y-48708093D02*
X62083333Y-48008093D01*
X62083333Y-48008093D02*
X62016666Y-48108093D01*
X62016666Y-48108093D02*
X61950000Y-48174760D01*
X61950000Y-48174760D02*
X61883333Y-48208093D01*
X62583333Y-48641426D02*
X62616667Y-48674760D01*
X62616667Y-48674760D02*
X62583333Y-48708093D01*
X62583333Y-48708093D02*
X62550000Y-48674760D01*
X62550000Y-48674760D02*
X62583333Y-48641426D01*
X62583333Y-48641426D02*
X62583333Y-48708093D01*
X63283333Y-48708093D02*
X62883333Y-48708093D01*
X63083333Y-48708093D02*
X63083333Y-48008093D01*
X63083333Y-48008093D02*
X63016666Y-48108093D01*
X63016666Y-48108093D02*
X62950000Y-48174760D01*
X62950000Y-48174760D02*
X62883333Y-48208093D01*
D11*
X59242857Y-43647331D02*
X59242857Y-42647331D01*
X59242857Y-42647331D02*
X59576190Y-43361616D01*
X59576190Y-43361616D02*
X59909523Y-42647331D01*
X59909523Y-42647331D02*
X59909523Y-43647331D01*
X60576190Y-42647331D02*
X60766666Y-42647331D01*
X60766666Y-42647331D02*
X60861904Y-42694950D01*
X60861904Y-42694950D02*
X60957142Y-42790188D01*
X60957142Y-42790188D02*
X61004761Y-42980664D01*
X61004761Y-42980664D02*
X61004761Y-43313997D01*
X61004761Y-43313997D02*
X60957142Y-43504473D01*
X60957142Y-43504473D02*
X60861904Y-43599712D01*
X60861904Y-43599712D02*
X60766666Y-43647331D01*
X60766666Y-43647331D02*
X60576190Y-43647331D01*
X60576190Y-43647331D02*
X60480952Y-43599712D01*
X60480952Y-43599712D02*
X60385714Y-43504473D01*
X60385714Y-43504473D02*
X60338095Y-43313997D01*
X60338095Y-43313997D02*
X60338095Y-42980664D01*
X60338095Y-42980664D02*
X60385714Y-42790188D01*
X60385714Y-42790188D02*
X60480952Y-42694950D01*
X60480952Y-42694950D02*
X60576190Y-42647331D01*
X61433333Y-43647331D02*
X61433333Y-42647331D01*
X61433333Y-42647331D02*
X61671428Y-42647331D01*
X61671428Y-42647331D02*
X61814285Y-42694950D01*
X61814285Y-42694950D02*
X61909523Y-42790188D01*
X61909523Y-42790188D02*
X61957142Y-42885426D01*
X61957142Y-42885426D02*
X62004761Y-43075902D01*
X62004761Y-43075902D02*
X62004761Y-43218759D01*
X62004761Y-43218759D02*
X61957142Y-43409235D01*
X61957142Y-43409235D02*
X61909523Y-43504473D01*
X61909523Y-43504473D02*
X61814285Y-43599712D01*
X61814285Y-43599712D02*
X61671428Y-43647331D01*
X61671428Y-43647331D02*
X61433333Y-43647331D01*
X62338095Y-42647331D02*
X63004761Y-43647331D01*
X63004761Y-42647331D02*
X62338095Y-43647331D01*
X63576190Y-42647331D02*
X63766666Y-42647331D01*
X63766666Y-42647331D02*
X63861904Y-42694950D01*
X63861904Y-42694950D02*
X63957142Y-42790188D01*
X63957142Y-42790188D02*
X64004761Y-42980664D01*
X64004761Y-42980664D02*
X64004761Y-43313997D01*
X64004761Y-43313997D02*
X63957142Y-43504473D01*
X63957142Y-43504473D02*
X63861904Y-43599712D01*
X63861904Y-43599712D02*
X63766666Y-43647331D01*
X63766666Y-43647331D02*
X63576190Y-43647331D01*
X63576190Y-43647331D02*
X63480952Y-43599712D01*
X63480952Y-43599712D02*
X63385714Y-43504473D01*
X63385714Y-43504473D02*
X63338095Y-43313997D01*
X63338095Y-43313997D02*
X63338095Y-42980664D01*
X63338095Y-42980664D02*
X63385714Y-42790188D01*
X63385714Y-42790188D02*
X63480952Y-42694950D01*
X63480952Y-42694950D02*
X63576190Y-42647331D01*
X57219047Y-45257275D02*
X56885714Y-44781084D01*
X56647619Y-45257275D02*
X56647619Y-44257275D01*
X56647619Y-44257275D02*
X57028571Y-44257275D01*
X57028571Y-44257275D02*
X57123809Y-44304894D01*
X57123809Y-44304894D02*
X57171428Y-44352513D01*
X57171428Y-44352513D02*
X57219047Y-44447751D01*
X57219047Y-44447751D02*
X57219047Y-44590608D01*
X57219047Y-44590608D02*
X57171428Y-44685846D01*
X57171428Y-44685846D02*
X57123809Y-44733465D01*
X57123809Y-44733465D02*
X57028571Y-44781084D01*
X57028571Y-44781084D02*
X56647619Y-44781084D01*
X57647619Y-45257275D02*
X57647619Y-44257275D01*
X57647619Y-44257275D02*
X58028571Y-44257275D01*
X58028571Y-44257275D02*
X58123809Y-44304894D01*
X58123809Y-44304894D02*
X58171428Y-44352513D01*
X58171428Y-44352513D02*
X58219047Y-44447751D01*
X58219047Y-44447751D02*
X58219047Y-44590608D01*
X58219047Y-44590608D02*
X58171428Y-44685846D01*
X58171428Y-44685846D02*
X58123809Y-44733465D01*
X58123809Y-44733465D02*
X58028571Y-44781084D01*
X58028571Y-44781084D02*
X57647619Y-44781084D01*
X58600000Y-44352513D02*
X58647619Y-44304894D01*
X58647619Y-44304894D02*
X58742857Y-44257275D01*
X58742857Y-44257275D02*
X58980952Y-44257275D01*
X58980952Y-44257275D02*
X59076190Y-44304894D01*
X59076190Y-44304894D02*
X59123809Y-44352513D01*
X59123809Y-44352513D02*
X59171428Y-44447751D01*
X59171428Y-44447751D02*
X59171428Y-44542989D01*
X59171428Y-44542989D02*
X59123809Y-44685846D01*
X59123809Y-44685846D02*
X58552381Y-45257275D01*
X58552381Y-45257275D02*
X59171428Y-45257275D01*
X59790476Y-44257275D02*
X59885714Y-44257275D01*
X59885714Y-44257275D02*
X59980952Y-44304894D01*
X59980952Y-44304894D02*
X60028571Y-44352513D01*
X60028571Y-44352513D02*
X60076190Y-44447751D01*
X60076190Y-44447751D02*
X60123809Y-44638227D01*
X60123809Y-44638227D02*
X60123809Y-44876322D01*
X60123809Y-44876322D02*
X60076190Y-45066798D01*
X60076190Y-45066798D02*
X60028571Y-45162036D01*
X60028571Y-45162036D02*
X59980952Y-45209656D01*
X59980952Y-45209656D02*
X59885714Y-45257275D01*
X59885714Y-45257275D02*
X59790476Y-45257275D01*
X59790476Y-45257275D02*
X59695238Y-45209656D01*
X59695238Y-45209656D02*
X59647619Y-45162036D01*
X59647619Y-45162036D02*
X59600000Y-45066798D01*
X59600000Y-45066798D02*
X59552381Y-44876322D01*
X59552381Y-44876322D02*
X59552381Y-44638227D01*
X59552381Y-44638227D02*
X59600000Y-44447751D01*
X59600000Y-44447751D02*
X59647619Y-44352513D01*
X59647619Y-44352513D02*
X59695238Y-44304894D01*
X59695238Y-44304894D02*
X59790476Y-44257275D01*
X60980952Y-44590608D02*
X60980952Y-45257275D01*
X60742857Y-44209656D02*
X60504762Y-44923941D01*
X60504762Y-44923941D02*
X61123809Y-44923941D01*
X61695238Y-44257275D02*
X61790476Y-44257275D01*
X61790476Y-44257275D02*
X61885714Y-44304894D01*
X61885714Y-44304894D02*
X61933333Y-44352513D01*
X61933333Y-44352513D02*
X61980952Y-44447751D01*
X61980952Y-44447751D02*
X62028571Y-44638227D01*
X62028571Y-44638227D02*
X62028571Y-44876322D01*
X62028571Y-44876322D02*
X61980952Y-45066798D01*
X61980952Y-45066798D02*
X61933333Y-45162036D01*
X61933333Y-45162036D02*
X61885714Y-45209656D01*
X61885714Y-45209656D02*
X61790476Y-45257275D01*
X61790476Y-45257275D02*
X61695238Y-45257275D01*
X61695238Y-45257275D02*
X61600000Y-45209656D01*
X61600000Y-45209656D02*
X61552381Y-45162036D01*
X61552381Y-45162036D02*
X61504762Y-45066798D01*
X61504762Y-45066798D02*
X61457143Y-44876322D01*
X61457143Y-44876322D02*
X61457143Y-44638227D01*
X61457143Y-44638227D02*
X61504762Y-44447751D01*
X61504762Y-44447751D02*
X61552381Y-44352513D01*
X61552381Y-44352513D02*
X61600000Y-44304894D01*
X61600000Y-44304894D02*
X61695238Y-44257275D01*
X62457143Y-44876322D02*
X63219048Y-44876322D01*
X63600000Y-44257275D02*
X64266666Y-44257275D01*
X64266666Y-44257275D02*
X63600000Y-45257275D01*
X63600000Y-45257275D02*
X64266666Y-45257275D01*
X65028571Y-45209656D02*
X64933333Y-45257275D01*
X64933333Y-45257275D02*
X64742857Y-45257275D01*
X64742857Y-45257275D02*
X64647619Y-45209656D01*
X64647619Y-45209656D02*
X64600000Y-45114417D01*
X64600000Y-45114417D02*
X64600000Y-44733465D01*
X64600000Y-44733465D02*
X64647619Y-44638227D01*
X64647619Y-44638227D02*
X64742857Y-44590608D01*
X64742857Y-44590608D02*
X64933333Y-44590608D01*
X64933333Y-44590608D02*
X65028571Y-44638227D01*
X65028571Y-44638227D02*
X65076190Y-44733465D01*
X65076190Y-44733465D02*
X65076190Y-44828703D01*
X65076190Y-44828703D02*
X64600000Y-44923941D01*
X65504762Y-45257275D02*
X65504762Y-44590608D01*
X65504762Y-44781084D02*
X65552381Y-44685846D01*
X65552381Y-44685846D02*
X65600000Y-44638227D01*
X65600000Y-44638227D02*
X65695238Y-44590608D01*
X65695238Y-44590608D02*
X65790476Y-44590608D01*
X66266667Y-45257275D02*
X66171429Y-45209656D01*
X66171429Y-45209656D02*
X66123810Y-45162036D01*
X66123810Y-45162036D02*
X66076191Y-45066798D01*
X66076191Y-45066798D02*
X66076191Y-44781084D01*
X66076191Y-44781084D02*
X66123810Y-44685846D01*
X66123810Y-44685846D02*
X66171429Y-44638227D01*
X66171429Y-44638227D02*
X66266667Y-44590608D01*
X66266667Y-44590608D02*
X66409524Y-44590608D01*
X66409524Y-44590608D02*
X66504762Y-44638227D01*
X66504762Y-44638227D02*
X66552381Y-44685846D01*
X66552381Y-44685846D02*
X66600000Y-44781084D01*
X66600000Y-44781084D02*
X66600000Y-45066798D01*
X66600000Y-45066798D02*
X66552381Y-45162036D01*
X66552381Y-45162036D02*
X66504762Y-45209656D01*
X66504762Y-45209656D02*
X66409524Y-45257275D01*
X66409524Y-45257275D02*
X66266667Y-45257275D01*
X58980952Y-46581504D02*
X59457142Y-46581504D01*
X58885714Y-46867219D02*
X59219047Y-45867219D01*
X59219047Y-45867219D02*
X59552380Y-46867219D01*
X60314285Y-46867219D02*
X60314285Y-45867219D01*
X60314285Y-46819600D02*
X60219047Y-46867219D01*
X60219047Y-46867219D02*
X60028571Y-46867219D01*
X60028571Y-46867219D02*
X59933333Y-46819600D01*
X59933333Y-46819600D02*
X59885714Y-46771980D01*
X59885714Y-46771980D02*
X59838095Y-46676742D01*
X59838095Y-46676742D02*
X59838095Y-46391028D01*
X59838095Y-46391028D02*
X59885714Y-46295790D01*
X59885714Y-46295790D02*
X59933333Y-46248171D01*
X59933333Y-46248171D02*
X60028571Y-46200552D01*
X60028571Y-46200552D02*
X60219047Y-46200552D01*
X60219047Y-46200552D02*
X60314285Y-46248171D01*
X61219047Y-46867219D02*
X61219047Y-46343409D01*
X61219047Y-46343409D02*
X61171428Y-46248171D01*
X61171428Y-46248171D02*
X61076190Y-46200552D01*
X61076190Y-46200552D02*
X60885714Y-46200552D01*
X60885714Y-46200552D02*
X60790476Y-46248171D01*
X61219047Y-46819600D02*
X61123809Y-46867219D01*
X61123809Y-46867219D02*
X60885714Y-46867219D01*
X60885714Y-46867219D02*
X60790476Y-46819600D01*
X60790476Y-46819600D02*
X60742857Y-46724361D01*
X60742857Y-46724361D02*
X60742857Y-46629123D01*
X60742857Y-46629123D02*
X60790476Y-46533885D01*
X60790476Y-46533885D02*
X60885714Y-46486266D01*
X60885714Y-46486266D02*
X61123809Y-46486266D01*
X61123809Y-46486266D02*
X61219047Y-46438647D01*
X61695238Y-46200552D02*
X61695238Y-47200552D01*
X61695238Y-46248171D02*
X61790476Y-46200552D01*
X61790476Y-46200552D02*
X61980952Y-46200552D01*
X61980952Y-46200552D02*
X62076190Y-46248171D01*
X62076190Y-46248171D02*
X62123809Y-46295790D01*
X62123809Y-46295790D02*
X62171428Y-46391028D01*
X62171428Y-46391028D02*
X62171428Y-46676742D01*
X62171428Y-46676742D02*
X62123809Y-46771980D01*
X62123809Y-46771980D02*
X62076190Y-46819600D01*
X62076190Y-46819600D02*
X61980952Y-46867219D01*
X61980952Y-46867219D02*
X61790476Y-46867219D01*
X61790476Y-46867219D02*
X61695238Y-46819600D01*
X62457143Y-46200552D02*
X62838095Y-46200552D01*
X62600000Y-45867219D02*
X62600000Y-46724361D01*
X62600000Y-46724361D02*
X62647619Y-46819600D01*
X62647619Y-46819600D02*
X62742857Y-46867219D01*
X62742857Y-46867219D02*
X62838095Y-46867219D01*
X63552381Y-46819600D02*
X63457143Y-46867219D01*
X63457143Y-46867219D02*
X63266667Y-46867219D01*
X63266667Y-46867219D02*
X63171429Y-46819600D01*
X63171429Y-46819600D02*
X63123810Y-46724361D01*
X63123810Y-46724361D02*
X63123810Y-46343409D01*
X63123810Y-46343409D02*
X63171429Y-46248171D01*
X63171429Y-46248171D02*
X63266667Y-46200552D01*
X63266667Y-46200552D02*
X63457143Y-46200552D01*
X63457143Y-46200552D02*
X63552381Y-46248171D01*
X63552381Y-46248171D02*
X63600000Y-46343409D01*
X63600000Y-46343409D02*
X63600000Y-46438647D01*
X63600000Y-46438647D02*
X63123810Y-46533885D01*
X64028572Y-46867219D02*
X64028572Y-46200552D01*
X64028572Y-46391028D02*
X64076191Y-46295790D01*
X64076191Y-46295790D02*
X64123810Y-46248171D01*
X64123810Y-46248171D02*
X64219048Y-46200552D01*
X64219048Y-46200552D02*
X64314286Y-46200552D01*
D12*
X62675000Y-40000000D02*
G75*
G02*
X62125000Y-40000000I-275000J0D01*
G01*
X62125000Y-40000000D02*
G75*
G02*
X62675000Y-40000000I275000J0D01*
G01*
D10*
X58057142Y-29121331D02*
X57714285Y-29121331D01*
X57885714Y-29121331D02*
X57885714Y-28521331D01*
X57885714Y-28521331D02*
X57828571Y-28607045D01*
X57828571Y-28607045D02*
X57771428Y-28664188D01*
X57771428Y-28664188D02*
X57714285Y-28692760D01*
X58428571Y-28521331D02*
X58485714Y-28521331D01*
X58485714Y-28521331D02*
X58542857Y-28549902D01*
X58542857Y-28549902D02*
X58571429Y-28578474D01*
X58571429Y-28578474D02*
X58600000Y-28635617D01*
X58600000Y-28635617D02*
X58628571Y-28749902D01*
X58628571Y-28749902D02*
X58628571Y-28892760D01*
X58628571Y-28892760D02*
X58600000Y-29007045D01*
X58600000Y-29007045D02*
X58571429Y-29064188D01*
X58571429Y-29064188D02*
X58542857Y-29092760D01*
X58542857Y-29092760D02*
X58485714Y-29121331D01*
X58485714Y-29121331D02*
X58428571Y-29121331D01*
X58428571Y-29121331D02*
X58371429Y-29092760D01*
X58371429Y-29092760D02*
X58342857Y-29064188D01*
X58342857Y-29064188D02*
X58314286Y-29007045D01*
X58314286Y-29007045D02*
X58285714Y-28892760D01*
X58285714Y-28892760D02*
X58285714Y-28749902D01*
X58285714Y-28749902D02*
X58314286Y-28635617D01*
X58314286Y-28635617D02*
X58342857Y-28578474D01*
X58342857Y-28578474D02*
X58371429Y-28549902D01*
X58371429Y-28549902D02*
X58428571Y-28521331D01*
X59000000Y-28521331D02*
X59057143Y-28521331D01*
X59057143Y-28521331D02*
X59114286Y-28549902D01*
X59114286Y-28549902D02*
X59142858Y-28578474D01*
X59142858Y-28578474D02*
X59171429Y-28635617D01*
X59171429Y-28635617D02*
X59200000Y-28749902D01*
X59200000Y-28749902D02*
X59200000Y-28892760D01*
X59200000Y-28892760D02*
X59171429Y-29007045D01*
X59171429Y-29007045D02*
X59142858Y-29064188D01*
X59142858Y-29064188D02*
X59114286Y-29092760D01*
X59114286Y-29092760D02*
X59057143Y-29121331D01*
X59057143Y-29121331D02*
X59000000Y-29121331D01*
X59000000Y-29121331D02*
X58942858Y-29092760D01*
X58942858Y-29092760D02*
X58914286Y-29064188D01*
X58914286Y-29064188D02*
X58885715Y-29007045D01*
X58885715Y-29007045D02*
X58857143Y-28892760D01*
X58857143Y-28892760D02*
X58857143Y-28749902D01*
X58857143Y-28749902D02*
X58885715Y-28635617D01*
X58885715Y-28635617D02*
X58914286Y-28578474D01*
X58914286Y-28578474D02*
X58942858Y-28549902D01*
X58942858Y-28549902D02*
X59000000Y-28521331D01*
X59428572Y-29121331D02*
X59571429Y-29121331D01*
X59571429Y-29121331D02*
X59571429Y-29007045D01*
X59571429Y-29007045D02*
X59514287Y-28978474D01*
X59514287Y-28978474D02*
X59457144Y-28921331D01*
X59457144Y-28921331D02*
X59428572Y-28835617D01*
X59428572Y-28835617D02*
X59428572Y-28692760D01*
X59428572Y-28692760D02*
X59457144Y-28607045D01*
X59457144Y-28607045D02*
X59514287Y-28549902D01*
X59514287Y-28549902D02*
X59600001Y-28521331D01*
X59600001Y-28521331D02*
X59714287Y-28521331D01*
X59714287Y-28521331D02*
X59800001Y-28549902D01*
X59800001Y-28549902D02*
X59857144Y-28607045D01*
X59857144Y-28607045D02*
X59885715Y-28692760D01*
X59885715Y-28692760D02*
X59885715Y-28835617D01*
X59885715Y-28835617D02*
X59857144Y-28921331D01*
X59857144Y-28921331D02*
X59800001Y-28978474D01*
X59800001Y-28978474D02*
X59742858Y-29007045D01*
X59742858Y-29007045D02*
X59742858Y-29121331D01*
X59742858Y-29121331D02*
X59885715Y-29121331D01*
X58107142Y-31671331D02*
X57764285Y-31671331D01*
X57935714Y-31671331D02*
X57935714Y-31071331D01*
X57935714Y-31071331D02*
X57878571Y-31157045D01*
X57878571Y-31157045D02*
X57821428Y-31214188D01*
X57821428Y-31214188D02*
X57764285Y-31242760D01*
X58478571Y-31071331D02*
X58535714Y-31071331D01*
X58535714Y-31071331D02*
X58592857Y-31099902D01*
X58592857Y-31099902D02*
X58621429Y-31128474D01*
X58621429Y-31128474D02*
X58650000Y-31185617D01*
X58650000Y-31185617D02*
X58678571Y-31299902D01*
X58678571Y-31299902D02*
X58678571Y-31442760D01*
X58678571Y-31442760D02*
X58650000Y-31557045D01*
X58650000Y-31557045D02*
X58621429Y-31614188D01*
X58621429Y-31614188D02*
X58592857Y-31642760D01*
X58592857Y-31642760D02*
X58535714Y-31671331D01*
X58535714Y-31671331D02*
X58478571Y-31671331D01*
X58478571Y-31671331D02*
X58421429Y-31642760D01*
X58421429Y-31642760D02*
X58392857Y-31614188D01*
X58392857Y-31614188D02*
X58364286Y-31557045D01*
X58364286Y-31557045D02*
X58335714Y-31442760D01*
X58335714Y-31442760D02*
X58335714Y-31299902D01*
X58335714Y-31299902D02*
X58364286Y-31185617D01*
X58364286Y-31185617D02*
X58392857Y-31128474D01*
X58392857Y-31128474D02*
X58421429Y-31099902D01*
X58421429Y-31099902D02*
X58478571Y-31071331D01*
X59050000Y-31071331D02*
X59107143Y-31071331D01*
X59107143Y-31071331D02*
X59164286Y-31099902D01*
X59164286Y-31099902D02*
X59192858Y-31128474D01*
X59192858Y-31128474D02*
X59221429Y-31185617D01*
X59221429Y-31185617D02*
X59250000Y-31299902D01*
X59250000Y-31299902D02*
X59250000Y-31442760D01*
X59250000Y-31442760D02*
X59221429Y-31557045D01*
X59221429Y-31557045D02*
X59192858Y-31614188D01*
X59192858Y-31614188D02*
X59164286Y-31642760D01*
X59164286Y-31642760D02*
X59107143Y-31671331D01*
X59107143Y-31671331D02*
X59050000Y-31671331D01*
X59050000Y-31671331D02*
X58992858Y-31642760D01*
X58992858Y-31642760D02*
X58964286Y-31614188D01*
X58964286Y-31614188D02*
X58935715Y-31557045D01*
X58935715Y-31557045D02*
X58907143Y-31442760D01*
X58907143Y-31442760D02*
X58907143Y-31299902D01*
X58907143Y-31299902D02*
X58935715Y-31185617D01*
X58935715Y-31185617D02*
X58964286Y-31128474D01*
X58964286Y-31128474D02*
X58992858Y-31099902D01*
X58992858Y-31099902D02*
X59050000Y-31071331D01*
X59478572Y-31671331D02*
X59621429Y-31671331D01*
X59621429Y-31671331D02*
X59621429Y-31557045D01*
X59621429Y-31557045D02*
X59564287Y-31528474D01*
X59564287Y-31528474D02*
X59507144Y-31471331D01*
X59507144Y-31471331D02*
X59478572Y-31385617D01*
X59478572Y-31385617D02*
X59478572Y-31242760D01*
X59478572Y-31242760D02*
X59507144Y-31157045D01*
X59507144Y-31157045D02*
X59564287Y-31099902D01*
X59564287Y-31099902D02*
X59650001Y-31071331D01*
X59650001Y-31071331D02*
X59764287Y-31071331D01*
X59764287Y-31071331D02*
X59850001Y-31099902D01*
X59850001Y-31099902D02*
X59907144Y-31157045D01*
X59907144Y-31157045D02*
X59935715Y-31242760D01*
X59935715Y-31242760D02*
X59935715Y-31385617D01*
X59935715Y-31385617D02*
X59907144Y-31471331D01*
X59907144Y-31471331D02*
X59850001Y-31528474D01*
X59850001Y-31528474D02*
X59792858Y-31557045D01*
X59792858Y-31557045D02*
X59792858Y-31671331D01*
X59792858Y-31671331D02*
X59935715Y-31671331D01*
X58057142Y-26271331D02*
X57714285Y-26271331D01*
X57885714Y-26271331D02*
X57885714Y-25671331D01*
X57885714Y-25671331D02*
X57828571Y-25757045D01*
X57828571Y-25757045D02*
X57771428Y-25814188D01*
X57771428Y-25814188D02*
X57714285Y-25842760D01*
X58428571Y-25671331D02*
X58485714Y-25671331D01*
X58485714Y-25671331D02*
X58542857Y-25699902D01*
X58542857Y-25699902D02*
X58571429Y-25728474D01*
X58571429Y-25728474D02*
X58600000Y-25785617D01*
X58600000Y-25785617D02*
X58628571Y-25899902D01*
X58628571Y-25899902D02*
X58628571Y-26042760D01*
X58628571Y-26042760D02*
X58600000Y-26157045D01*
X58600000Y-26157045D02*
X58571429Y-26214188D01*
X58571429Y-26214188D02*
X58542857Y-26242760D01*
X58542857Y-26242760D02*
X58485714Y-26271331D01*
X58485714Y-26271331D02*
X58428571Y-26271331D01*
X58428571Y-26271331D02*
X58371429Y-26242760D01*
X58371429Y-26242760D02*
X58342857Y-26214188D01*
X58342857Y-26214188D02*
X58314286Y-26157045D01*
X58314286Y-26157045D02*
X58285714Y-26042760D01*
X58285714Y-26042760D02*
X58285714Y-25899902D01*
X58285714Y-25899902D02*
X58314286Y-25785617D01*
X58314286Y-25785617D02*
X58342857Y-25728474D01*
X58342857Y-25728474D02*
X58371429Y-25699902D01*
X58371429Y-25699902D02*
X58428571Y-25671331D01*
X59000000Y-25671331D02*
X59057143Y-25671331D01*
X59057143Y-25671331D02*
X59114286Y-25699902D01*
X59114286Y-25699902D02*
X59142858Y-25728474D01*
X59142858Y-25728474D02*
X59171429Y-25785617D01*
X59171429Y-25785617D02*
X59200000Y-25899902D01*
X59200000Y-25899902D02*
X59200000Y-26042760D01*
X59200000Y-26042760D02*
X59171429Y-26157045D01*
X59171429Y-26157045D02*
X59142858Y-26214188D01*
X59142858Y-26214188D02*
X59114286Y-26242760D01*
X59114286Y-26242760D02*
X59057143Y-26271331D01*
X59057143Y-26271331D02*
X59000000Y-26271331D01*
X59000000Y-26271331D02*
X58942858Y-26242760D01*
X58942858Y-26242760D02*
X58914286Y-26214188D01*
X58914286Y-26214188D02*
X58885715Y-26157045D01*
X58885715Y-26157045D02*
X58857143Y-26042760D01*
X58857143Y-26042760D02*
X58857143Y-25899902D01*
X58857143Y-25899902D02*
X58885715Y-25785617D01*
X58885715Y-25785617D02*
X58914286Y-25728474D01*
X58914286Y-25728474D02*
X58942858Y-25699902D01*
X58942858Y-25699902D02*
X59000000Y-25671331D01*
X59428572Y-26271331D02*
X59571429Y-26271331D01*
X59571429Y-26271331D02*
X59571429Y-26157045D01*
X59571429Y-26157045D02*
X59514287Y-26128474D01*
X59514287Y-26128474D02*
X59457144Y-26071331D01*
X59457144Y-26071331D02*
X59428572Y-25985617D01*
X59428572Y-25985617D02*
X59428572Y-25842760D01*
X59428572Y-25842760D02*
X59457144Y-25757045D01*
X59457144Y-25757045D02*
X59514287Y-25699902D01*
X59514287Y-25699902D02*
X59600001Y-25671331D01*
X59600001Y-25671331D02*
X59714287Y-25671331D01*
X59714287Y-25671331D02*
X59800001Y-25699902D01*
X59800001Y-25699902D02*
X59857144Y-25757045D01*
X59857144Y-25757045D02*
X59885715Y-25842760D01*
X59885715Y-25842760D02*
X59885715Y-25985617D01*
X59885715Y-25985617D02*
X59857144Y-26071331D01*
X59857144Y-26071331D02*
X59800001Y-26128474D01*
X59800001Y-26128474D02*
X59742858Y-26157045D01*
X59742858Y-26157045D02*
X59742858Y-26271331D01*
X59742858Y-26271331D02*
X59885715Y-26271331D01*
X58107142Y-34171331D02*
X57764285Y-34171331D01*
X57935714Y-34171331D02*
X57935714Y-33571331D01*
X57935714Y-33571331D02*
X57878571Y-33657045D01*
X57878571Y-33657045D02*
X57821428Y-33714188D01*
X57821428Y-33714188D02*
X57764285Y-33742760D01*
X58478571Y-33571331D02*
X58535714Y-33571331D01*
X58535714Y-33571331D02*
X58592857Y-33599902D01*
X58592857Y-33599902D02*
X58621429Y-33628474D01*
X58621429Y-33628474D02*
X58650000Y-33685617D01*
X58650000Y-33685617D02*
X58678571Y-33799902D01*
X58678571Y-33799902D02*
X58678571Y-33942760D01*
X58678571Y-33942760D02*
X58650000Y-34057045D01*
X58650000Y-34057045D02*
X58621429Y-34114188D01*
X58621429Y-34114188D02*
X58592857Y-34142760D01*
X58592857Y-34142760D02*
X58535714Y-34171331D01*
X58535714Y-34171331D02*
X58478571Y-34171331D01*
X58478571Y-34171331D02*
X58421429Y-34142760D01*
X58421429Y-34142760D02*
X58392857Y-34114188D01*
X58392857Y-34114188D02*
X58364286Y-34057045D01*
X58364286Y-34057045D02*
X58335714Y-33942760D01*
X58335714Y-33942760D02*
X58335714Y-33799902D01*
X58335714Y-33799902D02*
X58364286Y-33685617D01*
X58364286Y-33685617D02*
X58392857Y-33628474D01*
X58392857Y-33628474D02*
X58421429Y-33599902D01*
X58421429Y-33599902D02*
X58478571Y-33571331D01*
X59050000Y-33571331D02*
X59107143Y-33571331D01*
X59107143Y-33571331D02*
X59164286Y-33599902D01*
X59164286Y-33599902D02*
X59192858Y-33628474D01*
X59192858Y-33628474D02*
X59221429Y-33685617D01*
X59221429Y-33685617D02*
X59250000Y-33799902D01*
X59250000Y-33799902D02*
X59250000Y-33942760D01*
X59250000Y-33942760D02*
X59221429Y-34057045D01*
X59221429Y-34057045D02*
X59192858Y-34114188D01*
X59192858Y-34114188D02*
X59164286Y-34142760D01*
X59164286Y-34142760D02*
X59107143Y-34171331D01*
X59107143Y-34171331D02*
X59050000Y-34171331D01*
X59050000Y-34171331D02*
X58992858Y-34142760D01*
X58992858Y-34142760D02*
X58964286Y-34114188D01*
X58964286Y-34114188D02*
X58935715Y-34057045D01*
X58935715Y-34057045D02*
X58907143Y-33942760D01*
X58907143Y-33942760D02*
X58907143Y-33799902D01*
X58907143Y-33799902D02*
X58935715Y-33685617D01*
X58935715Y-33685617D02*
X58964286Y-33628474D01*
X58964286Y-33628474D02*
X58992858Y-33599902D01*
X58992858Y-33599902D02*
X59050000Y-33571331D01*
X59478572Y-34171331D02*
X59621429Y-34171331D01*
X59621429Y-34171331D02*
X59621429Y-34057045D01*
X59621429Y-34057045D02*
X59564287Y-34028474D01*
X59564287Y-34028474D02*
X59507144Y-33971331D01*
X59507144Y-33971331D02*
X59478572Y-33885617D01*
X59478572Y-33885617D02*
X59478572Y-33742760D01*
X59478572Y-33742760D02*
X59507144Y-33657045D01*
X59507144Y-33657045D02*
X59564287Y-33599902D01*
X59564287Y-33599902D02*
X59650001Y-33571331D01*
X59650001Y-33571331D02*
X59764287Y-33571331D01*
X59764287Y-33571331D02*
X59850001Y-33599902D01*
X59850001Y-33599902D02*
X59907144Y-33657045D01*
X59907144Y-33657045D02*
X59935715Y-33742760D01*
X59935715Y-33742760D02*
X59935715Y-33885617D01*
X59935715Y-33885617D02*
X59907144Y-33971331D01*
X59907144Y-33971331D02*
X59850001Y-34028474D01*
X59850001Y-34028474D02*
X59792858Y-34057045D01*
X59792858Y-34057045D02*
X59792858Y-34171331D01*
X59792858Y-34171331D02*
X59935715Y-34171331D01*
%TO.C,100\u03A9*%
X58562742Y-29327500D02*
X59037258Y-29327500D01*
X58562742Y-30372500D02*
X59037258Y-30372500D01*
%TO.C,REF\u002A\u002A*%
X37130000Y-25710000D02*
X37130000Y-49210000D01*
X37130000Y-49210000D02*
X55130000Y-49210000D01*
X55130000Y-25710000D02*
X37130000Y-25710000D01*
X55130000Y-49210000D02*
X55130000Y-25710000D01*
X63120000Y-41360000D02*
X63115000Y-26015000D01*
X68315000Y-26015000D02*
X63115000Y-26015000D01*
X68340000Y-41365000D02*
X63120000Y-41360000D01*
X68340000Y-41365000D02*
X68315000Y-26015000D01*
%TO.C,100\u03A9*%
X58612742Y-31877500D02*
X59087258Y-31877500D01*
X58612742Y-32922500D02*
X59087258Y-32922500D01*
X58562742Y-26777500D02*
X59037258Y-26777500D01*
X58562742Y-27822500D02*
X59037258Y-27822500D01*
X58612742Y-34377500D02*
X59087258Y-34377500D01*
X58612742Y-35422500D02*
X59087258Y-35422500D01*
%TD*%
M02*
