%TF.GenerationSoftware,KiCad,Pcbnew,8.0.0*%
%TF.CreationDate,2024-03-16T16:39:28+00:00*%
%TF.ProjectId,pcb,7063622e-6b69-4636-9164-5f7063625858,rev?*%
%TF.SameCoordinates,Original*%
%TF.FileFunction,Legend,Bot*%
%TF.FilePolarity,Positive*%
%FSLAX46Y46*%
G04 Gerber Fmt 4.6, Leading zero omitted, Abs format (unit mm)*
G04 Created by KiCad (PCBNEW 8.0.0) date 2024-03-16 16:39:28*
%MOMM*%
%LPD*%
G01*
G04 APERTURE LIST*
%ADD10C,0.140000*%
G04 APERTURE END LIST*
D10*
X48299996Y-54780092D02*
X48299996Y-54080092D01*
X47999996Y-54780092D02*
X47999996Y-54413425D01*
X47999996Y-54413425D02*
X48033329Y-54346759D01*
X48033329Y-54346759D02*
X48099996Y-54313425D01*
X48099996Y-54313425D02*
X48199996Y-54313425D01*
X48199996Y-54313425D02*
X48266663Y-54346759D01*
X48266663Y-54346759D02*
X48299996Y-54380092D01*
X47766663Y-54313425D02*
X47499996Y-54313425D01*
X47666663Y-54080092D02*
X47666663Y-54680092D01*
X47666663Y-54680092D02*
X47633330Y-54746759D01*
X47633330Y-54746759D02*
X47566663Y-54780092D01*
X47566663Y-54780092D02*
X47499996Y-54780092D01*
X47366663Y-54313425D02*
X47099996Y-54313425D01*
X47266663Y-54080092D02*
X47266663Y-54680092D01*
X47266663Y-54680092D02*
X47233330Y-54746759D01*
X47233330Y-54746759D02*
X47166663Y-54780092D01*
X47166663Y-54780092D02*
X47099996Y-54780092D01*
X46866663Y-54313425D02*
X46866663Y-55013425D01*
X46866663Y-54346759D02*
X46799996Y-54313425D01*
X46799996Y-54313425D02*
X46666663Y-54313425D01*
X46666663Y-54313425D02*
X46599996Y-54346759D01*
X46599996Y-54346759D02*
X46566663Y-54380092D01*
X46566663Y-54380092D02*
X46533330Y-54446759D01*
X46533330Y-54446759D02*
X46533330Y-54646759D01*
X46533330Y-54646759D02*
X46566663Y-54713425D01*
X46566663Y-54713425D02*
X46599996Y-54746759D01*
X46599996Y-54746759D02*
X46666663Y-54780092D01*
X46666663Y-54780092D02*
X46799996Y-54780092D01*
X46799996Y-54780092D02*
X46866663Y-54746759D01*
X46266663Y-54746759D02*
X46199997Y-54780092D01*
X46199997Y-54780092D02*
X46066663Y-54780092D01*
X46066663Y-54780092D02*
X45999997Y-54746759D01*
X45999997Y-54746759D02*
X45966663Y-54680092D01*
X45966663Y-54680092D02*
X45966663Y-54646759D01*
X45966663Y-54646759D02*
X45999997Y-54580092D01*
X45999997Y-54580092D02*
X46066663Y-54546759D01*
X46066663Y-54546759D02*
X46166663Y-54546759D01*
X46166663Y-54546759D02*
X46233330Y-54513425D01*
X46233330Y-54513425D02*
X46266663Y-54446759D01*
X46266663Y-54446759D02*
X46266663Y-54413425D01*
X46266663Y-54413425D02*
X46233330Y-54346759D01*
X46233330Y-54346759D02*
X46166663Y-54313425D01*
X46166663Y-54313425D02*
X46066663Y-54313425D01*
X46066663Y-54313425D02*
X45999997Y-54346759D01*
X45666663Y-54713425D02*
X45633330Y-54746759D01*
X45633330Y-54746759D02*
X45666663Y-54780092D01*
X45666663Y-54780092D02*
X45699996Y-54746759D01*
X45699996Y-54746759D02*
X45666663Y-54713425D01*
X45666663Y-54713425D02*
X45666663Y-54780092D01*
X45666663Y-54346759D02*
X45633330Y-54380092D01*
X45633330Y-54380092D02*
X45666663Y-54413425D01*
X45666663Y-54413425D02*
X45699996Y-54380092D01*
X45699996Y-54380092D02*
X45666663Y-54346759D01*
X45666663Y-54346759D02*
X45666663Y-54413425D01*
X44833330Y-54046759D02*
X45433330Y-54946759D01*
X44099997Y-54046759D02*
X44699997Y-54946759D01*
X43566664Y-54313425D02*
X43566664Y-54880092D01*
X43566664Y-54880092D02*
X43599997Y-54946759D01*
X43599997Y-54946759D02*
X43633331Y-54980092D01*
X43633331Y-54980092D02*
X43699997Y-55013425D01*
X43699997Y-55013425D02*
X43799997Y-55013425D01*
X43799997Y-55013425D02*
X43866664Y-54980092D01*
X43566664Y-54746759D02*
X43633331Y-54780092D01*
X43633331Y-54780092D02*
X43766664Y-54780092D01*
X43766664Y-54780092D02*
X43833331Y-54746759D01*
X43833331Y-54746759D02*
X43866664Y-54713425D01*
X43866664Y-54713425D02*
X43899997Y-54646759D01*
X43899997Y-54646759D02*
X43899997Y-54446759D01*
X43899997Y-54446759D02*
X43866664Y-54380092D01*
X43866664Y-54380092D02*
X43833331Y-54346759D01*
X43833331Y-54346759D02*
X43766664Y-54313425D01*
X43766664Y-54313425D02*
X43633331Y-54313425D01*
X43633331Y-54313425D02*
X43566664Y-54346759D01*
X43233331Y-54780092D02*
X43233331Y-54313425D01*
X43233331Y-54080092D02*
X43266664Y-54113425D01*
X43266664Y-54113425D02*
X43233331Y-54146759D01*
X43233331Y-54146759D02*
X43199998Y-54113425D01*
X43199998Y-54113425D02*
X43233331Y-54080092D01*
X43233331Y-54080092D02*
X43233331Y-54146759D01*
X42999998Y-54313425D02*
X42733331Y-54313425D01*
X42899998Y-54080092D02*
X42899998Y-54680092D01*
X42899998Y-54680092D02*
X42866665Y-54746759D01*
X42866665Y-54746759D02*
X42799998Y-54780092D01*
X42799998Y-54780092D02*
X42733331Y-54780092D01*
X42499998Y-54780092D02*
X42499998Y-54080092D01*
X42199998Y-54780092D02*
X42199998Y-54413425D01*
X42199998Y-54413425D02*
X42233331Y-54346759D01*
X42233331Y-54346759D02*
X42299998Y-54313425D01*
X42299998Y-54313425D02*
X42399998Y-54313425D01*
X42399998Y-54313425D02*
X42466665Y-54346759D01*
X42466665Y-54346759D02*
X42499998Y-54380092D01*
X41566665Y-54313425D02*
X41566665Y-54780092D01*
X41866665Y-54313425D02*
X41866665Y-54680092D01*
X41866665Y-54680092D02*
X41833332Y-54746759D01*
X41833332Y-54746759D02*
X41766665Y-54780092D01*
X41766665Y-54780092D02*
X41666665Y-54780092D01*
X41666665Y-54780092D02*
X41599998Y-54746759D01*
X41599998Y-54746759D02*
X41566665Y-54713425D01*
X41233332Y-54780092D02*
X41233332Y-54080092D01*
X41233332Y-54346759D02*
X41166665Y-54313425D01*
X41166665Y-54313425D02*
X41033332Y-54313425D01*
X41033332Y-54313425D02*
X40966665Y-54346759D01*
X40966665Y-54346759D02*
X40933332Y-54380092D01*
X40933332Y-54380092D02*
X40899999Y-54446759D01*
X40899999Y-54446759D02*
X40899999Y-54646759D01*
X40899999Y-54646759D02*
X40933332Y-54713425D01*
X40933332Y-54713425D02*
X40966665Y-54746759D01*
X40966665Y-54746759D02*
X41033332Y-54780092D01*
X41033332Y-54780092D02*
X41166665Y-54780092D01*
X41166665Y-54780092D02*
X41233332Y-54746759D01*
X40599999Y-54713425D02*
X40566666Y-54746759D01*
X40566666Y-54746759D02*
X40599999Y-54780092D01*
X40599999Y-54780092D02*
X40633332Y-54746759D01*
X40633332Y-54746759D02*
X40599999Y-54713425D01*
X40599999Y-54713425D02*
X40599999Y-54780092D01*
X39966666Y-54746759D02*
X40033333Y-54780092D01*
X40033333Y-54780092D02*
X40166666Y-54780092D01*
X40166666Y-54780092D02*
X40233333Y-54746759D01*
X40233333Y-54746759D02*
X40266666Y-54713425D01*
X40266666Y-54713425D02*
X40299999Y-54646759D01*
X40299999Y-54646759D02*
X40299999Y-54446759D01*
X40299999Y-54446759D02*
X40266666Y-54380092D01*
X40266666Y-54380092D02*
X40233333Y-54346759D01*
X40233333Y-54346759D02*
X40166666Y-54313425D01*
X40166666Y-54313425D02*
X40033333Y-54313425D01*
X40033333Y-54313425D02*
X39966666Y-54346759D01*
X39566666Y-54780092D02*
X39633333Y-54746759D01*
X39633333Y-54746759D02*
X39666666Y-54713425D01*
X39666666Y-54713425D02*
X39699999Y-54646759D01*
X39699999Y-54646759D02*
X39699999Y-54446759D01*
X39699999Y-54446759D02*
X39666666Y-54380092D01*
X39666666Y-54380092D02*
X39633333Y-54346759D01*
X39633333Y-54346759D02*
X39566666Y-54313425D01*
X39566666Y-54313425D02*
X39466666Y-54313425D01*
X39466666Y-54313425D02*
X39399999Y-54346759D01*
X39399999Y-54346759D02*
X39366666Y-54380092D01*
X39366666Y-54380092D02*
X39333333Y-54446759D01*
X39333333Y-54446759D02*
X39333333Y-54646759D01*
X39333333Y-54646759D02*
X39366666Y-54713425D01*
X39366666Y-54713425D02*
X39399999Y-54746759D01*
X39399999Y-54746759D02*
X39466666Y-54780092D01*
X39466666Y-54780092D02*
X39566666Y-54780092D01*
X39033333Y-54780092D02*
X39033333Y-54313425D01*
X39033333Y-54380092D02*
X39000000Y-54346759D01*
X39000000Y-54346759D02*
X38933333Y-54313425D01*
X38933333Y-54313425D02*
X38833333Y-54313425D01*
X38833333Y-54313425D02*
X38766666Y-54346759D01*
X38766666Y-54346759D02*
X38733333Y-54413425D01*
X38733333Y-54413425D02*
X38733333Y-54780092D01*
X38733333Y-54413425D02*
X38700000Y-54346759D01*
X38700000Y-54346759D02*
X38633333Y-54313425D01*
X38633333Y-54313425D02*
X38533333Y-54313425D01*
X38533333Y-54313425D02*
X38466666Y-54346759D01*
X38466666Y-54346759D02*
X38433333Y-54413425D01*
X38433333Y-54413425D02*
X38433333Y-54780092D01*
X37600000Y-54046759D02*
X38200000Y-54946759D01*
X37400000Y-54746759D02*
X37333334Y-54780092D01*
X37333334Y-54780092D02*
X37200000Y-54780092D01*
X37200000Y-54780092D02*
X37133334Y-54746759D01*
X37133334Y-54746759D02*
X37100000Y-54680092D01*
X37100000Y-54680092D02*
X37100000Y-54646759D01*
X37100000Y-54646759D02*
X37133334Y-54580092D01*
X37133334Y-54580092D02*
X37200000Y-54546759D01*
X37200000Y-54546759D02*
X37300000Y-54546759D01*
X37300000Y-54546759D02*
X37366667Y-54513425D01*
X37366667Y-54513425D02*
X37400000Y-54446759D01*
X37400000Y-54446759D02*
X37400000Y-54413425D01*
X37400000Y-54413425D02*
X37366667Y-54346759D01*
X37366667Y-54346759D02*
X37300000Y-54313425D01*
X37300000Y-54313425D02*
X37200000Y-54313425D01*
X37200000Y-54313425D02*
X37133334Y-54346759D01*
X36800000Y-54780092D02*
X36800000Y-54080092D01*
X36500000Y-54780092D02*
X36500000Y-54413425D01*
X36500000Y-54413425D02*
X36533333Y-54346759D01*
X36533333Y-54346759D02*
X36600000Y-54313425D01*
X36600000Y-54313425D02*
X36700000Y-54313425D01*
X36700000Y-54313425D02*
X36766667Y-54346759D01*
X36766667Y-54346759D02*
X36800000Y-54380092D01*
X35866667Y-54780092D02*
X35866667Y-54413425D01*
X35866667Y-54413425D02*
X35900000Y-54346759D01*
X35900000Y-54346759D02*
X35966667Y-54313425D01*
X35966667Y-54313425D02*
X36100000Y-54313425D01*
X36100000Y-54313425D02*
X36166667Y-54346759D01*
X35866667Y-54746759D02*
X35933334Y-54780092D01*
X35933334Y-54780092D02*
X36100000Y-54780092D01*
X36100000Y-54780092D02*
X36166667Y-54746759D01*
X36166667Y-54746759D02*
X36200000Y-54680092D01*
X36200000Y-54680092D02*
X36200000Y-54613425D01*
X36200000Y-54613425D02*
X36166667Y-54546759D01*
X36166667Y-54546759D02*
X36100000Y-54513425D01*
X36100000Y-54513425D02*
X35933334Y-54513425D01*
X35933334Y-54513425D02*
X35866667Y-54480092D01*
X35433334Y-54780092D02*
X35500001Y-54746759D01*
X35500001Y-54746759D02*
X35533334Y-54680092D01*
X35533334Y-54680092D02*
X35533334Y-54080092D01*
X35233334Y-54780092D02*
X34866667Y-54313425D01*
X35233334Y-54313425D02*
X34866667Y-54780092D01*
X34600000Y-54780092D02*
X34600000Y-54313425D01*
X34600000Y-54380092D02*
X34566667Y-54346759D01*
X34566667Y-54346759D02*
X34500000Y-54313425D01*
X34500000Y-54313425D02*
X34400000Y-54313425D01*
X34400000Y-54313425D02*
X34333333Y-54346759D01*
X34333333Y-54346759D02*
X34300000Y-54413425D01*
X34300000Y-54413425D02*
X34300000Y-54780092D01*
X34300000Y-54413425D02*
X34266667Y-54346759D01*
X34266667Y-54346759D02*
X34200000Y-54313425D01*
X34200000Y-54313425D02*
X34100000Y-54313425D01*
X34100000Y-54313425D02*
X34033333Y-54346759D01*
X34033333Y-54346759D02*
X34000000Y-54413425D01*
X34000000Y-54413425D02*
X34000000Y-54780092D01*
X33733334Y-54313425D02*
X33566667Y-54780092D01*
X33566667Y-54780092D02*
X33400000Y-54313425D01*
X32833334Y-54780092D02*
X32833334Y-54413425D01*
X32833334Y-54413425D02*
X32866667Y-54346759D01*
X32866667Y-54346759D02*
X32933334Y-54313425D01*
X32933334Y-54313425D02*
X33066667Y-54313425D01*
X33066667Y-54313425D02*
X33133334Y-54346759D01*
X32833334Y-54746759D02*
X32900001Y-54780092D01*
X32900001Y-54780092D02*
X33066667Y-54780092D01*
X33066667Y-54780092D02*
X33133334Y-54746759D01*
X33133334Y-54746759D02*
X33166667Y-54680092D01*
X33166667Y-54680092D02*
X33166667Y-54613425D01*
X33166667Y-54613425D02*
X33133334Y-54546759D01*
X33133334Y-54546759D02*
X33066667Y-54513425D01*
X33066667Y-54513425D02*
X32900001Y-54513425D01*
X32900001Y-54513425D02*
X32833334Y-54480092D01*
X32000001Y-54046759D02*
X32600001Y-54946759D01*
X31766668Y-54780092D02*
X31766668Y-54313425D01*
X31766668Y-54380092D02*
X31733335Y-54346759D01*
X31733335Y-54346759D02*
X31666668Y-54313425D01*
X31666668Y-54313425D02*
X31566668Y-54313425D01*
X31566668Y-54313425D02*
X31500001Y-54346759D01*
X31500001Y-54346759D02*
X31466668Y-54413425D01*
X31466668Y-54413425D02*
X31466668Y-54780092D01*
X31466668Y-54413425D02*
X31433335Y-54346759D01*
X31433335Y-54346759D02*
X31366668Y-54313425D01*
X31366668Y-54313425D02*
X31266668Y-54313425D01*
X31266668Y-54313425D02*
X31200001Y-54346759D01*
X31200001Y-54346759D02*
X31166668Y-54413425D01*
X31166668Y-54413425D02*
X31166668Y-54780092D01*
X30733335Y-54780092D02*
X30800002Y-54746759D01*
X30800002Y-54746759D02*
X30833335Y-54713425D01*
X30833335Y-54713425D02*
X30866668Y-54646759D01*
X30866668Y-54646759D02*
X30866668Y-54446759D01*
X30866668Y-54446759D02*
X30833335Y-54380092D01*
X30833335Y-54380092D02*
X30800002Y-54346759D01*
X30800002Y-54346759D02*
X30733335Y-54313425D01*
X30733335Y-54313425D02*
X30633335Y-54313425D01*
X30633335Y-54313425D02*
X30566668Y-54346759D01*
X30566668Y-54346759D02*
X30533335Y-54380092D01*
X30533335Y-54380092D02*
X30500002Y-54446759D01*
X30500002Y-54446759D02*
X30500002Y-54646759D01*
X30500002Y-54646759D02*
X30533335Y-54713425D01*
X30533335Y-54713425D02*
X30566668Y-54746759D01*
X30566668Y-54746759D02*
X30633335Y-54780092D01*
X30633335Y-54780092D02*
X30733335Y-54780092D01*
X29900002Y-54780092D02*
X29900002Y-54080092D01*
X29900002Y-54746759D02*
X29966669Y-54780092D01*
X29966669Y-54780092D02*
X30100002Y-54780092D01*
X30100002Y-54780092D02*
X30166669Y-54746759D01*
X30166669Y-54746759D02*
X30200002Y-54713425D01*
X30200002Y-54713425D02*
X30233335Y-54646759D01*
X30233335Y-54646759D02*
X30233335Y-54446759D01*
X30233335Y-54446759D02*
X30200002Y-54380092D01*
X30200002Y-54380092D02*
X30166669Y-54346759D01*
X30166669Y-54346759D02*
X30100002Y-54313425D01*
X30100002Y-54313425D02*
X29966669Y-54313425D01*
X29966669Y-54313425D02*
X29900002Y-54346759D01*
X29633336Y-54780092D02*
X29266669Y-54313425D01*
X29633336Y-54313425D02*
X29266669Y-54780092D01*
X28900002Y-54780092D02*
X28966669Y-54746759D01*
X28966669Y-54746759D02*
X29000002Y-54713425D01*
X29000002Y-54713425D02*
X29033335Y-54646759D01*
X29033335Y-54646759D02*
X29033335Y-54446759D01*
X29033335Y-54446759D02*
X29000002Y-54380092D01*
X29000002Y-54380092D02*
X28966669Y-54346759D01*
X28966669Y-54346759D02*
X28900002Y-54313425D01*
X28900002Y-54313425D02*
X28800002Y-54313425D01*
X28800002Y-54313425D02*
X28733335Y-54346759D01*
X28733335Y-54346759D02*
X28700002Y-54380092D01*
X28700002Y-54380092D02*
X28666669Y-54446759D01*
X28666669Y-54446759D02*
X28666669Y-54646759D01*
X28666669Y-54646759D02*
X28700002Y-54713425D01*
X28700002Y-54713425D02*
X28733335Y-54746759D01*
X28733335Y-54746759D02*
X28800002Y-54780092D01*
X28800002Y-54780092D02*
X28900002Y-54780092D01*
X48216664Y-55907053D02*
X48216664Y-55207053D01*
X47916664Y-55907053D02*
X47916664Y-55540386D01*
X47916664Y-55540386D02*
X47949997Y-55473720D01*
X47949997Y-55473720D02*
X48016664Y-55440386D01*
X48016664Y-55440386D02*
X48116664Y-55440386D01*
X48116664Y-55440386D02*
X48183331Y-55473720D01*
X48183331Y-55473720D02*
X48216664Y-55507053D01*
X47683331Y-55440386D02*
X47416664Y-55440386D01*
X47583331Y-55207053D02*
X47583331Y-55807053D01*
X47583331Y-55807053D02*
X47549998Y-55873720D01*
X47549998Y-55873720D02*
X47483331Y-55907053D01*
X47483331Y-55907053D02*
X47416664Y-55907053D01*
X47283331Y-55440386D02*
X47016664Y-55440386D01*
X47183331Y-55207053D02*
X47183331Y-55807053D01*
X47183331Y-55807053D02*
X47149998Y-55873720D01*
X47149998Y-55873720D02*
X47083331Y-55907053D01*
X47083331Y-55907053D02*
X47016664Y-55907053D01*
X46783331Y-55440386D02*
X46783331Y-56140386D01*
X46783331Y-55473720D02*
X46716664Y-55440386D01*
X46716664Y-55440386D02*
X46583331Y-55440386D01*
X46583331Y-55440386D02*
X46516664Y-55473720D01*
X46516664Y-55473720D02*
X46483331Y-55507053D01*
X46483331Y-55507053D02*
X46449998Y-55573720D01*
X46449998Y-55573720D02*
X46449998Y-55773720D01*
X46449998Y-55773720D02*
X46483331Y-55840386D01*
X46483331Y-55840386D02*
X46516664Y-55873720D01*
X46516664Y-55873720D02*
X46583331Y-55907053D01*
X46583331Y-55907053D02*
X46716664Y-55907053D01*
X46716664Y-55907053D02*
X46783331Y-55873720D01*
X46183331Y-55873720D02*
X46116665Y-55907053D01*
X46116665Y-55907053D02*
X45983331Y-55907053D01*
X45983331Y-55907053D02*
X45916665Y-55873720D01*
X45916665Y-55873720D02*
X45883331Y-55807053D01*
X45883331Y-55807053D02*
X45883331Y-55773720D01*
X45883331Y-55773720D02*
X45916665Y-55707053D01*
X45916665Y-55707053D02*
X45983331Y-55673720D01*
X45983331Y-55673720D02*
X46083331Y-55673720D01*
X46083331Y-55673720D02*
X46149998Y-55640386D01*
X46149998Y-55640386D02*
X46183331Y-55573720D01*
X46183331Y-55573720D02*
X46183331Y-55540386D01*
X46183331Y-55540386D02*
X46149998Y-55473720D01*
X46149998Y-55473720D02*
X46083331Y-55440386D01*
X46083331Y-55440386D02*
X45983331Y-55440386D01*
X45983331Y-55440386D02*
X45916665Y-55473720D01*
X45583331Y-55840386D02*
X45549998Y-55873720D01*
X45549998Y-55873720D02*
X45583331Y-55907053D01*
X45583331Y-55907053D02*
X45616664Y-55873720D01*
X45616664Y-55873720D02*
X45583331Y-55840386D01*
X45583331Y-55840386D02*
X45583331Y-55907053D01*
X45583331Y-55473720D02*
X45549998Y-55507053D01*
X45549998Y-55507053D02*
X45583331Y-55540386D01*
X45583331Y-55540386D02*
X45616664Y-55507053D01*
X45616664Y-55507053D02*
X45583331Y-55473720D01*
X45583331Y-55473720D02*
X45583331Y-55540386D01*
X44749998Y-55173720D02*
X45349998Y-56073720D01*
X44016665Y-55173720D02*
X44616665Y-56073720D01*
X43783332Y-55907053D02*
X43783332Y-55440386D01*
X43783332Y-55507053D02*
X43749999Y-55473720D01*
X43749999Y-55473720D02*
X43683332Y-55440386D01*
X43683332Y-55440386D02*
X43583332Y-55440386D01*
X43583332Y-55440386D02*
X43516665Y-55473720D01*
X43516665Y-55473720D02*
X43483332Y-55540386D01*
X43483332Y-55540386D02*
X43483332Y-55907053D01*
X43483332Y-55540386D02*
X43449999Y-55473720D01*
X43449999Y-55473720D02*
X43383332Y-55440386D01*
X43383332Y-55440386D02*
X43283332Y-55440386D01*
X43283332Y-55440386D02*
X43216665Y-55473720D01*
X43216665Y-55473720D02*
X43183332Y-55540386D01*
X43183332Y-55540386D02*
X43183332Y-55907053D01*
X42549999Y-55440386D02*
X42549999Y-55907053D01*
X42716666Y-55173720D02*
X42883332Y-55673720D01*
X42883332Y-55673720D02*
X42449999Y-55673720D01*
X42249999Y-55907053D02*
X41883332Y-55440386D01*
X42249999Y-55440386D02*
X41883332Y-55907053D01*
X41249998Y-55907053D02*
X41649998Y-55907053D01*
X41449998Y-55907053D02*
X41449998Y-55207053D01*
X41449998Y-55207053D02*
X41516665Y-55307053D01*
X41516665Y-55307053D02*
X41583332Y-55373720D01*
X41583332Y-55373720D02*
X41649998Y-55407053D01*
X40949998Y-55907053D02*
X40949998Y-55440386D01*
X40949998Y-55507053D02*
X40916665Y-55473720D01*
X40916665Y-55473720D02*
X40849998Y-55440386D01*
X40849998Y-55440386D02*
X40749998Y-55440386D01*
X40749998Y-55440386D02*
X40683331Y-55473720D01*
X40683331Y-55473720D02*
X40649998Y-55540386D01*
X40649998Y-55540386D02*
X40649998Y-55907053D01*
X40649998Y-55540386D02*
X40616665Y-55473720D01*
X40616665Y-55473720D02*
X40549998Y-55440386D01*
X40549998Y-55440386D02*
X40449998Y-55440386D01*
X40449998Y-55440386D02*
X40383331Y-55473720D01*
X40383331Y-55473720D02*
X40349998Y-55540386D01*
X40349998Y-55540386D02*
X40349998Y-55907053D01*
X39716665Y-55440386D02*
X39716665Y-55907053D01*
X40016665Y-55440386D02*
X40016665Y-55807053D01*
X40016665Y-55807053D02*
X39983332Y-55873720D01*
X39983332Y-55873720D02*
X39916665Y-55907053D01*
X39916665Y-55907053D02*
X39816665Y-55907053D01*
X39816665Y-55907053D02*
X39749998Y-55873720D01*
X39749998Y-55873720D02*
X39716665Y-55840386D01*
X39383332Y-55907053D02*
X39383332Y-55440386D01*
X39383332Y-55507053D02*
X39349999Y-55473720D01*
X39349999Y-55473720D02*
X39283332Y-55440386D01*
X39283332Y-55440386D02*
X39183332Y-55440386D01*
X39183332Y-55440386D02*
X39116665Y-55473720D01*
X39116665Y-55473720D02*
X39083332Y-55540386D01*
X39083332Y-55540386D02*
X39083332Y-55907053D01*
X39083332Y-55540386D02*
X39049999Y-55473720D01*
X39049999Y-55473720D02*
X38983332Y-55440386D01*
X38983332Y-55440386D02*
X38883332Y-55440386D01*
X38883332Y-55440386D02*
X38816665Y-55473720D01*
X38816665Y-55473720D02*
X38783332Y-55540386D01*
X38783332Y-55540386D02*
X38783332Y-55907053D01*
X38449999Y-55907053D02*
X38449999Y-55440386D01*
X38449999Y-55573720D02*
X38416666Y-55507053D01*
X38416666Y-55507053D02*
X38383332Y-55473720D01*
X38383332Y-55473720D02*
X38316666Y-55440386D01*
X38316666Y-55440386D02*
X38249999Y-55440386D01*
X37749999Y-55873720D02*
X37816666Y-55907053D01*
X37816666Y-55907053D02*
X37949999Y-55907053D01*
X37949999Y-55907053D02*
X38016666Y-55873720D01*
X38016666Y-55873720D02*
X38049999Y-55807053D01*
X38049999Y-55807053D02*
X38049999Y-55540386D01*
X38049999Y-55540386D02*
X38016666Y-55473720D01*
X38016666Y-55473720D02*
X37949999Y-55440386D01*
X37949999Y-55440386D02*
X37816666Y-55440386D01*
X37816666Y-55440386D02*
X37749999Y-55473720D01*
X37749999Y-55473720D02*
X37716666Y-55540386D01*
X37716666Y-55540386D02*
X37716666Y-55607053D01*
X37716666Y-55607053D02*
X38049999Y-55673720D01*
X37483333Y-55440386D02*
X37116666Y-55440386D01*
X37116666Y-55440386D02*
X37483333Y-55907053D01*
X37483333Y-55907053D02*
X37116666Y-55907053D01*
X36749999Y-55507053D02*
X36816666Y-55473720D01*
X36816666Y-55473720D02*
X36849999Y-55440386D01*
X36849999Y-55440386D02*
X36883332Y-55373720D01*
X36883332Y-55373720D02*
X36883332Y-55340386D01*
X36883332Y-55340386D02*
X36849999Y-55273720D01*
X36849999Y-55273720D02*
X36816666Y-55240386D01*
X36816666Y-55240386D02*
X36749999Y-55207053D01*
X36749999Y-55207053D02*
X36616666Y-55207053D01*
X36616666Y-55207053D02*
X36549999Y-55240386D01*
X36549999Y-55240386D02*
X36516666Y-55273720D01*
X36516666Y-55273720D02*
X36483332Y-55340386D01*
X36483332Y-55340386D02*
X36483332Y-55373720D01*
X36483332Y-55373720D02*
X36516666Y-55440386D01*
X36516666Y-55440386D02*
X36549999Y-55473720D01*
X36549999Y-55473720D02*
X36616666Y-55507053D01*
X36616666Y-55507053D02*
X36749999Y-55507053D01*
X36749999Y-55507053D02*
X36816666Y-55540386D01*
X36816666Y-55540386D02*
X36849999Y-55573720D01*
X36849999Y-55573720D02*
X36883332Y-55640386D01*
X36883332Y-55640386D02*
X36883332Y-55773720D01*
X36883332Y-55773720D02*
X36849999Y-55840386D01*
X36849999Y-55840386D02*
X36816666Y-55873720D01*
X36816666Y-55873720D02*
X36749999Y-55907053D01*
X36749999Y-55907053D02*
X36616666Y-55907053D01*
X36616666Y-55907053D02*
X36549999Y-55873720D01*
X36549999Y-55873720D02*
X36516666Y-55840386D01*
X36516666Y-55840386D02*
X36483332Y-55773720D01*
X36483332Y-55773720D02*
X36483332Y-55640386D01*
X36483332Y-55640386D02*
X36516666Y-55573720D01*
X36516666Y-55573720D02*
X36549999Y-55540386D01*
X36549999Y-55540386D02*
X36616666Y-55507053D01*
X36249999Y-55207053D02*
X35783332Y-55207053D01*
X35783332Y-55207053D02*
X36083332Y-55907053D01*
X35516665Y-55840386D02*
X35483332Y-55873720D01*
X35483332Y-55873720D02*
X35516665Y-55907053D01*
X35516665Y-55907053D02*
X35549998Y-55873720D01*
X35549998Y-55873720D02*
X35516665Y-55840386D01*
X35516665Y-55840386D02*
X35516665Y-55907053D01*
X35183332Y-55440386D02*
X35183332Y-55907053D01*
X35183332Y-55507053D02*
X35149999Y-55473720D01*
X35149999Y-55473720D02*
X35083332Y-55440386D01*
X35083332Y-55440386D02*
X34983332Y-55440386D01*
X34983332Y-55440386D02*
X34916665Y-55473720D01*
X34916665Y-55473720D02*
X34883332Y-55540386D01*
X34883332Y-55540386D02*
X34883332Y-55907053D01*
X34283332Y-55873720D02*
X34349999Y-55907053D01*
X34349999Y-55907053D02*
X34483332Y-55907053D01*
X34483332Y-55907053D02*
X34549999Y-55873720D01*
X34549999Y-55873720D02*
X34583332Y-55807053D01*
X34583332Y-55807053D02*
X34583332Y-55540386D01*
X34583332Y-55540386D02*
X34549999Y-55473720D01*
X34549999Y-55473720D02*
X34483332Y-55440386D01*
X34483332Y-55440386D02*
X34349999Y-55440386D01*
X34349999Y-55440386D02*
X34283332Y-55473720D01*
X34283332Y-55473720D02*
X34249999Y-55540386D01*
X34249999Y-55540386D02*
X34249999Y-55607053D01*
X34249999Y-55607053D02*
X34583332Y-55673720D01*
X33849999Y-55907053D02*
X33916666Y-55873720D01*
X33916666Y-55873720D02*
X33949999Y-55840386D01*
X33949999Y-55840386D02*
X33983332Y-55773720D01*
X33983332Y-55773720D02*
X33983332Y-55573720D01*
X33983332Y-55573720D02*
X33949999Y-55507053D01*
X33949999Y-55507053D02*
X33916666Y-55473720D01*
X33916666Y-55473720D02*
X33849999Y-55440386D01*
X33849999Y-55440386D02*
X33749999Y-55440386D01*
X33749999Y-55440386D02*
X33683332Y-55473720D01*
X33683332Y-55473720D02*
X33649999Y-55507053D01*
X33649999Y-55507053D02*
X33616666Y-55573720D01*
X33616666Y-55573720D02*
X33616666Y-55773720D01*
X33616666Y-55773720D02*
X33649999Y-55840386D01*
X33649999Y-55840386D02*
X33683332Y-55873720D01*
X33683332Y-55873720D02*
X33749999Y-55907053D01*
X33749999Y-55907053D02*
X33849999Y-55907053D01*
X33016666Y-55873720D02*
X33083333Y-55907053D01*
X33083333Y-55907053D02*
X33216666Y-55907053D01*
X33216666Y-55907053D02*
X33283333Y-55873720D01*
X33283333Y-55873720D02*
X33316666Y-55840386D01*
X33316666Y-55840386D02*
X33349999Y-55773720D01*
X33349999Y-55773720D02*
X33349999Y-55573720D01*
X33349999Y-55573720D02*
X33316666Y-55507053D01*
X33316666Y-55507053D02*
X33283333Y-55473720D01*
X33283333Y-55473720D02*
X33216666Y-55440386D01*
X33216666Y-55440386D02*
X33083333Y-55440386D01*
X33083333Y-55440386D02*
X33016666Y-55473720D01*
X32716666Y-55907053D02*
X32716666Y-55440386D01*
X32716666Y-55207053D02*
X32749999Y-55240386D01*
X32749999Y-55240386D02*
X32716666Y-55273720D01*
X32716666Y-55273720D02*
X32683333Y-55240386D01*
X32683333Y-55240386D02*
X32716666Y-55207053D01*
X32716666Y-55207053D02*
X32716666Y-55273720D01*
X32483333Y-55440386D02*
X32216666Y-55440386D01*
X32383333Y-55207053D02*
X32383333Y-55807053D01*
X32383333Y-55807053D02*
X32350000Y-55873720D01*
X32350000Y-55873720D02*
X32283333Y-55907053D01*
X32283333Y-55907053D02*
X32216666Y-55907053D01*
X31983333Y-55907053D02*
X31983333Y-55440386D01*
X31983333Y-55207053D02*
X32016666Y-55240386D01*
X32016666Y-55240386D02*
X31983333Y-55273720D01*
X31983333Y-55273720D02*
X31950000Y-55240386D01*
X31950000Y-55240386D02*
X31983333Y-55207053D01*
X31983333Y-55207053D02*
X31983333Y-55273720D01*
X31383333Y-55873720D02*
X31450000Y-55907053D01*
X31450000Y-55907053D02*
X31583333Y-55907053D01*
X31583333Y-55907053D02*
X31650000Y-55873720D01*
X31650000Y-55873720D02*
X31683333Y-55807053D01*
X31683333Y-55807053D02*
X31683333Y-55540386D01*
X31683333Y-55540386D02*
X31650000Y-55473720D01*
X31650000Y-55473720D02*
X31583333Y-55440386D01*
X31583333Y-55440386D02*
X31450000Y-55440386D01*
X31450000Y-55440386D02*
X31383333Y-55473720D01*
X31383333Y-55473720D02*
X31350000Y-55540386D01*
X31350000Y-55540386D02*
X31350000Y-55607053D01*
X31350000Y-55607053D02*
X31683333Y-55673720D01*
X31083333Y-55873720D02*
X31016667Y-55907053D01*
X31016667Y-55907053D02*
X30883333Y-55907053D01*
X30883333Y-55907053D02*
X30816667Y-55873720D01*
X30816667Y-55873720D02*
X30783333Y-55807053D01*
X30783333Y-55807053D02*
X30783333Y-55773720D01*
X30783333Y-55773720D02*
X30816667Y-55707053D01*
X30816667Y-55707053D02*
X30883333Y-55673720D01*
X30883333Y-55673720D02*
X30983333Y-55673720D01*
X30983333Y-55673720D02*
X31050000Y-55640386D01*
X31050000Y-55640386D02*
X31083333Y-55573720D01*
X31083333Y-55573720D02*
X31083333Y-55540386D01*
X31083333Y-55540386D02*
X31050000Y-55473720D01*
X31050000Y-55473720D02*
X30983333Y-55440386D01*
X30983333Y-55440386D02*
X30883333Y-55440386D01*
X30883333Y-55440386D02*
X30816667Y-55473720D01*
X30483333Y-55840386D02*
X30450000Y-55873720D01*
X30450000Y-55873720D02*
X30483333Y-55907053D01*
X30483333Y-55907053D02*
X30516666Y-55873720D01*
X30516666Y-55873720D02*
X30483333Y-55840386D01*
X30483333Y-55840386D02*
X30483333Y-55907053D01*
X30050000Y-55907053D02*
X30116667Y-55873720D01*
X30116667Y-55873720D02*
X30150000Y-55840386D01*
X30150000Y-55840386D02*
X30183333Y-55773720D01*
X30183333Y-55773720D02*
X30183333Y-55573720D01*
X30183333Y-55573720D02*
X30150000Y-55507053D01*
X30150000Y-55507053D02*
X30116667Y-55473720D01*
X30116667Y-55473720D02*
X30050000Y-55440386D01*
X30050000Y-55440386D02*
X29950000Y-55440386D01*
X29950000Y-55440386D02*
X29883333Y-55473720D01*
X29883333Y-55473720D02*
X29850000Y-55507053D01*
X29850000Y-55507053D02*
X29816667Y-55573720D01*
X29816667Y-55573720D02*
X29816667Y-55773720D01*
X29816667Y-55773720D02*
X29850000Y-55840386D01*
X29850000Y-55840386D02*
X29883333Y-55873720D01*
X29883333Y-55873720D02*
X29950000Y-55907053D01*
X29950000Y-55907053D02*
X30050000Y-55907053D01*
X29516667Y-55907053D02*
X29516667Y-55440386D01*
X29516667Y-55573720D02*
X29483334Y-55507053D01*
X29483334Y-55507053D02*
X29450000Y-55473720D01*
X29450000Y-55473720D02*
X29383334Y-55440386D01*
X29383334Y-55440386D02*
X29316667Y-55440386D01*
X28783334Y-55440386D02*
X28783334Y-56007053D01*
X28783334Y-56007053D02*
X28816667Y-56073720D01*
X28816667Y-56073720D02*
X28850001Y-56107053D01*
X28850001Y-56107053D02*
X28916667Y-56140386D01*
X28916667Y-56140386D02*
X29016667Y-56140386D01*
X29016667Y-56140386D02*
X29083334Y-56107053D01*
X28783334Y-55873720D02*
X28850001Y-55907053D01*
X28850001Y-55907053D02*
X28983334Y-55907053D01*
X28983334Y-55907053D02*
X29050001Y-55873720D01*
X29050001Y-55873720D02*
X29083334Y-55840386D01*
X29083334Y-55840386D02*
X29116667Y-55773720D01*
X29116667Y-55773720D02*
X29116667Y-55573720D01*
X29116667Y-55573720D02*
X29083334Y-55507053D01*
X29083334Y-55507053D02*
X29050001Y-55473720D01*
X29050001Y-55473720D02*
X28983334Y-55440386D01*
X28983334Y-55440386D02*
X28850001Y-55440386D01*
X28850001Y-55440386D02*
X28783334Y-55473720D01*
X37799998Y-50580092D02*
X37666664Y-50580092D01*
X37666664Y-50580092D02*
X37599998Y-50613425D01*
X37599998Y-50613425D02*
X37533331Y-50680092D01*
X37533331Y-50680092D02*
X37499998Y-50813425D01*
X37499998Y-50813425D02*
X37499998Y-51046759D01*
X37499998Y-51046759D02*
X37533331Y-51180092D01*
X37533331Y-51180092D02*
X37599998Y-51246759D01*
X37599998Y-51246759D02*
X37666664Y-51280092D01*
X37666664Y-51280092D02*
X37799998Y-51280092D01*
X37799998Y-51280092D02*
X37866664Y-51246759D01*
X37866664Y-51246759D02*
X37933331Y-51180092D01*
X37933331Y-51180092D02*
X37966664Y-51046759D01*
X37966664Y-51046759D02*
X37966664Y-50813425D01*
X37966664Y-50813425D02*
X37933331Y-50680092D01*
X37933331Y-50680092D02*
X37866664Y-50613425D01*
X37866664Y-50613425D02*
X37799998Y-50580092D01*
X37199998Y-51280092D02*
X37199998Y-50813425D01*
X37199998Y-50946759D02*
X37166665Y-50880092D01*
X37166665Y-50880092D02*
X37133331Y-50846759D01*
X37133331Y-50846759D02*
X37066665Y-50813425D01*
X37066665Y-50813425D02*
X36999998Y-50813425D01*
X36766665Y-51280092D02*
X36766665Y-50813425D01*
X36766665Y-50580092D02*
X36799998Y-50613425D01*
X36799998Y-50613425D02*
X36766665Y-50646759D01*
X36766665Y-50646759D02*
X36733332Y-50613425D01*
X36733332Y-50613425D02*
X36766665Y-50580092D01*
X36766665Y-50580092D02*
X36766665Y-50646759D01*
X36133332Y-50813425D02*
X36133332Y-51380092D01*
X36133332Y-51380092D02*
X36166665Y-51446759D01*
X36166665Y-51446759D02*
X36199999Y-51480092D01*
X36199999Y-51480092D02*
X36266665Y-51513425D01*
X36266665Y-51513425D02*
X36366665Y-51513425D01*
X36366665Y-51513425D02*
X36433332Y-51480092D01*
X36133332Y-51246759D02*
X36199999Y-51280092D01*
X36199999Y-51280092D02*
X36333332Y-51280092D01*
X36333332Y-51280092D02*
X36399999Y-51246759D01*
X36399999Y-51246759D02*
X36433332Y-51213425D01*
X36433332Y-51213425D02*
X36466665Y-51146759D01*
X36466665Y-51146759D02*
X36466665Y-50946759D01*
X36466665Y-50946759D02*
X36433332Y-50880092D01*
X36433332Y-50880092D02*
X36399999Y-50846759D01*
X36399999Y-50846759D02*
X36333332Y-50813425D01*
X36333332Y-50813425D02*
X36199999Y-50813425D01*
X36199999Y-50813425D02*
X36133332Y-50846759D01*
X35799999Y-51280092D02*
X35799999Y-50813425D01*
X35799999Y-50580092D02*
X35833332Y-50613425D01*
X35833332Y-50613425D02*
X35799999Y-50646759D01*
X35799999Y-50646759D02*
X35766666Y-50613425D01*
X35766666Y-50613425D02*
X35799999Y-50580092D01*
X35799999Y-50580092D02*
X35799999Y-50646759D01*
X35466666Y-50813425D02*
X35466666Y-51280092D01*
X35466666Y-50880092D02*
X35433333Y-50846759D01*
X35433333Y-50846759D02*
X35366666Y-50813425D01*
X35366666Y-50813425D02*
X35266666Y-50813425D01*
X35266666Y-50813425D02*
X35199999Y-50846759D01*
X35199999Y-50846759D02*
X35166666Y-50913425D01*
X35166666Y-50913425D02*
X35166666Y-51280092D01*
X34533333Y-51280092D02*
X34533333Y-50913425D01*
X34533333Y-50913425D02*
X34566666Y-50846759D01*
X34566666Y-50846759D02*
X34633333Y-50813425D01*
X34633333Y-50813425D02*
X34766666Y-50813425D01*
X34766666Y-50813425D02*
X34833333Y-50846759D01*
X34533333Y-51246759D02*
X34600000Y-51280092D01*
X34600000Y-51280092D02*
X34766666Y-51280092D01*
X34766666Y-51280092D02*
X34833333Y-51246759D01*
X34833333Y-51246759D02*
X34866666Y-51180092D01*
X34866666Y-51180092D02*
X34866666Y-51113425D01*
X34866666Y-51113425D02*
X34833333Y-51046759D01*
X34833333Y-51046759D02*
X34766666Y-51013425D01*
X34766666Y-51013425D02*
X34600000Y-51013425D01*
X34600000Y-51013425D02*
X34533333Y-50980092D01*
X34100000Y-51280092D02*
X34166667Y-51246759D01*
X34166667Y-51246759D02*
X34200000Y-51180092D01*
X34200000Y-51180092D02*
X34200000Y-50580092D01*
X33300000Y-51280092D02*
X33300000Y-50580092D01*
X33300000Y-50846759D02*
X33233333Y-50813425D01*
X33233333Y-50813425D02*
X33100000Y-50813425D01*
X33100000Y-50813425D02*
X33033333Y-50846759D01*
X33033333Y-50846759D02*
X33000000Y-50880092D01*
X33000000Y-50880092D02*
X32966667Y-50946759D01*
X32966667Y-50946759D02*
X32966667Y-51146759D01*
X32966667Y-51146759D02*
X33000000Y-51213425D01*
X33000000Y-51213425D02*
X33033333Y-51246759D01*
X33033333Y-51246759D02*
X33100000Y-51280092D01*
X33100000Y-51280092D02*
X33233333Y-51280092D01*
X33233333Y-51280092D02*
X33300000Y-51246759D01*
X32733334Y-50813425D02*
X32566667Y-51280092D01*
X32400000Y-50813425D02*
X32566667Y-51280092D01*
X32566667Y-51280092D02*
X32633334Y-51446759D01*
X32633334Y-51446759D02*
X32666667Y-51480092D01*
X32666667Y-51480092D02*
X32733334Y-51513425D01*
X31633334Y-51246759D02*
X31533334Y-51280092D01*
X31533334Y-51280092D02*
X31366668Y-51280092D01*
X31366668Y-51280092D02*
X31300001Y-51246759D01*
X31300001Y-51246759D02*
X31266668Y-51213425D01*
X31266668Y-51213425D02*
X31233334Y-51146759D01*
X31233334Y-51146759D02*
X31233334Y-51080092D01*
X31233334Y-51080092D02*
X31266668Y-51013425D01*
X31266668Y-51013425D02*
X31300001Y-50980092D01*
X31300001Y-50980092D02*
X31366668Y-50946759D01*
X31366668Y-50946759D02*
X31500001Y-50913425D01*
X31500001Y-50913425D02*
X31566668Y-50880092D01*
X31566668Y-50880092D02*
X31600001Y-50846759D01*
X31600001Y-50846759D02*
X31633334Y-50780092D01*
X31633334Y-50780092D02*
X31633334Y-50713425D01*
X31633334Y-50713425D02*
X31600001Y-50646759D01*
X31600001Y-50646759D02*
X31566668Y-50613425D01*
X31566668Y-50613425D02*
X31500001Y-50580092D01*
X31500001Y-50580092D02*
X31333334Y-50580092D01*
X31333334Y-50580092D02*
X31233334Y-50613425D01*
X30933334Y-51280092D02*
X30933334Y-50580092D01*
X30633334Y-51280092D02*
X30633334Y-50913425D01*
X30633334Y-50913425D02*
X30666667Y-50846759D01*
X30666667Y-50846759D02*
X30733334Y-50813425D01*
X30733334Y-50813425D02*
X30833334Y-50813425D01*
X30833334Y-50813425D02*
X30900001Y-50846759D01*
X30900001Y-50846759D02*
X30933334Y-50880092D01*
X30000001Y-51280092D02*
X30000001Y-50913425D01*
X30000001Y-50913425D02*
X30033334Y-50846759D01*
X30033334Y-50846759D02*
X30100001Y-50813425D01*
X30100001Y-50813425D02*
X30233334Y-50813425D01*
X30233334Y-50813425D02*
X30300001Y-50846759D01*
X30000001Y-51246759D02*
X30066668Y-51280092D01*
X30066668Y-51280092D02*
X30233334Y-51280092D01*
X30233334Y-51280092D02*
X30300001Y-51246759D01*
X30300001Y-51246759D02*
X30333334Y-51180092D01*
X30333334Y-51180092D02*
X30333334Y-51113425D01*
X30333334Y-51113425D02*
X30300001Y-51046759D01*
X30300001Y-51046759D02*
X30233334Y-51013425D01*
X30233334Y-51013425D02*
X30066668Y-51013425D01*
X30066668Y-51013425D02*
X30000001Y-50980092D01*
X29566668Y-51280092D02*
X29633335Y-51246759D01*
X29633335Y-51246759D02*
X29666668Y-51180092D01*
X29666668Y-51180092D02*
X29666668Y-50580092D01*
X29366668Y-51280092D02*
X29000001Y-50813425D01*
X29366668Y-50813425D02*
X29000001Y-51280092D01*
X39349998Y-52407053D02*
X39349998Y-51707053D01*
X39349998Y-51707053D02*
X39183331Y-51707053D01*
X39183331Y-51707053D02*
X39083331Y-51740386D01*
X39083331Y-51740386D02*
X39016665Y-51807053D01*
X39016665Y-51807053D02*
X38983331Y-51873720D01*
X38983331Y-51873720D02*
X38949998Y-52007053D01*
X38949998Y-52007053D02*
X38949998Y-52107053D01*
X38949998Y-52107053D02*
X38983331Y-52240386D01*
X38983331Y-52240386D02*
X39016665Y-52307053D01*
X39016665Y-52307053D02*
X39083331Y-52373720D01*
X39083331Y-52373720D02*
X39183331Y-52407053D01*
X39183331Y-52407053D02*
X39349998Y-52407053D01*
X38383331Y-52373720D02*
X38449998Y-52407053D01*
X38449998Y-52407053D02*
X38583331Y-52407053D01*
X38583331Y-52407053D02*
X38649998Y-52373720D01*
X38649998Y-52373720D02*
X38683331Y-52307053D01*
X38683331Y-52307053D02*
X38683331Y-52040386D01*
X38683331Y-52040386D02*
X38649998Y-51973720D01*
X38649998Y-51973720D02*
X38583331Y-51940386D01*
X38583331Y-51940386D02*
X38449998Y-51940386D01*
X38449998Y-51940386D02*
X38383331Y-51973720D01*
X38383331Y-51973720D02*
X38349998Y-52040386D01*
X38349998Y-52040386D02*
X38349998Y-52107053D01*
X38349998Y-52107053D02*
X38683331Y-52173720D01*
X38083331Y-52373720D02*
X38016665Y-52407053D01*
X38016665Y-52407053D02*
X37883331Y-52407053D01*
X37883331Y-52407053D02*
X37816665Y-52373720D01*
X37816665Y-52373720D02*
X37783331Y-52307053D01*
X37783331Y-52307053D02*
X37783331Y-52273720D01*
X37783331Y-52273720D02*
X37816665Y-52207053D01*
X37816665Y-52207053D02*
X37883331Y-52173720D01*
X37883331Y-52173720D02*
X37983331Y-52173720D01*
X37983331Y-52173720D02*
X38049998Y-52140386D01*
X38049998Y-52140386D02*
X38083331Y-52073720D01*
X38083331Y-52073720D02*
X38083331Y-52040386D01*
X38083331Y-52040386D02*
X38049998Y-51973720D01*
X38049998Y-51973720D02*
X37983331Y-51940386D01*
X37983331Y-51940386D02*
X37883331Y-51940386D01*
X37883331Y-51940386D02*
X37816665Y-51973720D01*
X37483331Y-52407053D02*
X37483331Y-51940386D01*
X37483331Y-51707053D02*
X37516664Y-51740386D01*
X37516664Y-51740386D02*
X37483331Y-51773720D01*
X37483331Y-51773720D02*
X37449998Y-51740386D01*
X37449998Y-51740386D02*
X37483331Y-51707053D01*
X37483331Y-51707053D02*
X37483331Y-51773720D01*
X36849998Y-51940386D02*
X36849998Y-52507053D01*
X36849998Y-52507053D02*
X36883331Y-52573720D01*
X36883331Y-52573720D02*
X36916665Y-52607053D01*
X36916665Y-52607053D02*
X36983331Y-52640386D01*
X36983331Y-52640386D02*
X37083331Y-52640386D01*
X37083331Y-52640386D02*
X37149998Y-52607053D01*
X36849998Y-52373720D02*
X36916665Y-52407053D01*
X36916665Y-52407053D02*
X37049998Y-52407053D01*
X37049998Y-52407053D02*
X37116665Y-52373720D01*
X37116665Y-52373720D02*
X37149998Y-52340386D01*
X37149998Y-52340386D02*
X37183331Y-52273720D01*
X37183331Y-52273720D02*
X37183331Y-52073720D01*
X37183331Y-52073720D02*
X37149998Y-52007053D01*
X37149998Y-52007053D02*
X37116665Y-51973720D01*
X37116665Y-51973720D02*
X37049998Y-51940386D01*
X37049998Y-51940386D02*
X36916665Y-51940386D01*
X36916665Y-51940386D02*
X36849998Y-51973720D01*
X36516665Y-51940386D02*
X36516665Y-52407053D01*
X36516665Y-52007053D02*
X36483332Y-51973720D01*
X36483332Y-51973720D02*
X36416665Y-51940386D01*
X36416665Y-51940386D02*
X36316665Y-51940386D01*
X36316665Y-51940386D02*
X36249998Y-51973720D01*
X36249998Y-51973720D02*
X36216665Y-52040386D01*
X36216665Y-52040386D02*
X36216665Y-52407053D01*
X35616665Y-52373720D02*
X35683332Y-52407053D01*
X35683332Y-52407053D02*
X35816665Y-52407053D01*
X35816665Y-52407053D02*
X35883332Y-52373720D01*
X35883332Y-52373720D02*
X35916665Y-52307053D01*
X35916665Y-52307053D02*
X35916665Y-52040386D01*
X35916665Y-52040386D02*
X35883332Y-51973720D01*
X35883332Y-51973720D02*
X35816665Y-51940386D01*
X35816665Y-51940386D02*
X35683332Y-51940386D01*
X35683332Y-51940386D02*
X35616665Y-51973720D01*
X35616665Y-51973720D02*
X35583332Y-52040386D01*
X35583332Y-52040386D02*
X35583332Y-52107053D01*
X35583332Y-52107053D02*
X35916665Y-52173720D01*
X34983332Y-52407053D02*
X34983332Y-51707053D01*
X34983332Y-52373720D02*
X35049999Y-52407053D01*
X35049999Y-52407053D02*
X35183332Y-52407053D01*
X35183332Y-52407053D02*
X35249999Y-52373720D01*
X35249999Y-52373720D02*
X35283332Y-52340386D01*
X35283332Y-52340386D02*
X35316665Y-52273720D01*
X35316665Y-52273720D02*
X35316665Y-52073720D01*
X35316665Y-52073720D02*
X35283332Y-52007053D01*
X35283332Y-52007053D02*
X35249999Y-51973720D01*
X35249999Y-51973720D02*
X35183332Y-51940386D01*
X35183332Y-51940386D02*
X35049999Y-51940386D01*
X35049999Y-51940386D02*
X34983332Y-51973720D01*
X34116666Y-52407053D02*
X34116666Y-51707053D01*
X34116666Y-51973720D02*
X34049999Y-51940386D01*
X34049999Y-51940386D02*
X33916666Y-51940386D01*
X33916666Y-51940386D02*
X33849999Y-51973720D01*
X33849999Y-51973720D02*
X33816666Y-52007053D01*
X33816666Y-52007053D02*
X33783333Y-52073720D01*
X33783333Y-52073720D02*
X33783333Y-52273720D01*
X33783333Y-52273720D02*
X33816666Y-52340386D01*
X33816666Y-52340386D02*
X33849999Y-52373720D01*
X33849999Y-52373720D02*
X33916666Y-52407053D01*
X33916666Y-52407053D02*
X34049999Y-52407053D01*
X34049999Y-52407053D02*
X34116666Y-52373720D01*
X33550000Y-51940386D02*
X33383333Y-52407053D01*
X33216666Y-51940386D02*
X33383333Y-52407053D01*
X33383333Y-52407053D02*
X33450000Y-52573720D01*
X33450000Y-52573720D02*
X33483333Y-52607053D01*
X33483333Y-52607053D02*
X33550000Y-52640386D01*
X32450000Y-52373720D02*
X32350000Y-52407053D01*
X32350000Y-52407053D02*
X32183334Y-52407053D01*
X32183334Y-52407053D02*
X32116667Y-52373720D01*
X32116667Y-52373720D02*
X32083334Y-52340386D01*
X32083334Y-52340386D02*
X32050000Y-52273720D01*
X32050000Y-52273720D02*
X32050000Y-52207053D01*
X32050000Y-52207053D02*
X32083334Y-52140386D01*
X32083334Y-52140386D02*
X32116667Y-52107053D01*
X32116667Y-52107053D02*
X32183334Y-52073720D01*
X32183334Y-52073720D02*
X32316667Y-52040386D01*
X32316667Y-52040386D02*
X32383334Y-52007053D01*
X32383334Y-52007053D02*
X32416667Y-51973720D01*
X32416667Y-51973720D02*
X32450000Y-51907053D01*
X32450000Y-51907053D02*
X32450000Y-51840386D01*
X32450000Y-51840386D02*
X32416667Y-51773720D01*
X32416667Y-51773720D02*
X32383334Y-51740386D01*
X32383334Y-51740386D02*
X32316667Y-51707053D01*
X32316667Y-51707053D02*
X32150000Y-51707053D01*
X32150000Y-51707053D02*
X32050000Y-51740386D01*
X31816667Y-51940386D02*
X31650000Y-52407053D01*
X31483333Y-51940386D02*
X31650000Y-52407053D01*
X31650000Y-52407053D02*
X31716667Y-52573720D01*
X31716667Y-52573720D02*
X31750000Y-52607053D01*
X31750000Y-52607053D02*
X31816667Y-52640386D01*
X31116667Y-52407053D02*
X31183334Y-52373720D01*
X31183334Y-52373720D02*
X31216667Y-52307053D01*
X31216667Y-52307053D02*
X31216667Y-51707053D01*
X30916667Y-51940386D02*
X30750000Y-52407053D01*
X30750000Y-52407053D02*
X30583333Y-51940386D01*
X30050000Y-52373720D02*
X30116667Y-52407053D01*
X30116667Y-52407053D02*
X30250000Y-52407053D01*
X30250000Y-52407053D02*
X30316667Y-52373720D01*
X30316667Y-52373720D02*
X30350000Y-52307053D01*
X30350000Y-52307053D02*
X30350000Y-52040386D01*
X30350000Y-52040386D02*
X30316667Y-51973720D01*
X30316667Y-51973720D02*
X30250000Y-51940386D01*
X30250000Y-51940386D02*
X30116667Y-51940386D01*
X30116667Y-51940386D02*
X30050000Y-51973720D01*
X30050000Y-51973720D02*
X30016667Y-52040386D01*
X30016667Y-52040386D02*
X30016667Y-52107053D01*
X30016667Y-52107053D02*
X30350000Y-52173720D01*
X29716667Y-52407053D02*
X29716667Y-51940386D01*
X29716667Y-52073720D02*
X29683334Y-52007053D01*
X29683334Y-52007053D02*
X29650000Y-51973720D01*
X29650000Y-51973720D02*
X29583334Y-51940386D01*
X29583334Y-51940386D02*
X29516667Y-51940386D01*
X28883334Y-52407053D02*
X29116667Y-52073720D01*
X29283334Y-52407053D02*
X29283334Y-51707053D01*
X29283334Y-51707053D02*
X29016667Y-51707053D01*
X29016667Y-51707053D02*
X28950001Y-51740386D01*
X28950001Y-51740386D02*
X28916667Y-51773720D01*
X28916667Y-51773720D02*
X28883334Y-51840386D01*
X28883334Y-51840386D02*
X28883334Y-51940386D01*
X28883334Y-51940386D02*
X28916667Y-52007053D01*
X28916667Y-52007053D02*
X28950001Y-52040386D01*
X28950001Y-52040386D02*
X29016667Y-52073720D01*
X29016667Y-52073720D02*
X29283334Y-52073720D01*
X28316667Y-52373720D02*
X28383334Y-52407053D01*
X28383334Y-52407053D02*
X28516667Y-52407053D01*
X28516667Y-52407053D02*
X28583334Y-52373720D01*
X28583334Y-52373720D02*
X28616667Y-52307053D01*
X28616667Y-52307053D02*
X28616667Y-52040386D01*
X28616667Y-52040386D02*
X28583334Y-51973720D01*
X28583334Y-51973720D02*
X28516667Y-51940386D01*
X28516667Y-51940386D02*
X28383334Y-51940386D01*
X28383334Y-51940386D02*
X28316667Y-51973720D01*
X28316667Y-51973720D02*
X28283334Y-52040386D01*
X28283334Y-52040386D02*
X28283334Y-52107053D01*
X28283334Y-52107053D02*
X28616667Y-52173720D01*
X28050001Y-51707053D02*
X27583334Y-51707053D01*
X27583334Y-51707053D02*
X28050001Y-52407053D01*
X28050001Y-52407053D02*
X27583334Y-52407053D01*
G36*
X48401360Y-51609937D02*
G01*
X48420899Y-51598213D01*
X48470614Y-51586325D01*
X48480250Y-51584780D01*
X48529323Y-51578065D01*
X48573795Y-51573056D01*
X48622802Y-51568141D01*
X48671490Y-51563576D01*
X48691032Y-51561821D01*
X48740989Y-51556976D01*
X48792492Y-51551783D01*
X48845540Y-51546243D01*
X48875679Y-51543014D01*
X48930224Y-51536450D01*
X48984498Y-51528571D01*
X49038502Y-51519379D01*
X49068387Y-51513705D01*
X49121448Y-51502042D01*
X49173196Y-51488486D01*
X49223629Y-51473036D01*
X49251080Y-51463635D01*
X49298603Y-51444815D01*
X49342803Y-51423252D01*
X49388017Y-51396075D01*
X49404953Y-51384256D01*
X49443851Y-51351908D01*
X49477501Y-51315315D01*
X49505904Y-51274476D01*
X49510955Y-51265799D01*
X49531949Y-51219364D01*
X49545168Y-51167682D01*
X49550416Y-51116681D01*
X49550766Y-51098736D01*
X49545734Y-51046129D01*
X49532598Y-50996008D01*
X49514078Y-50949251D01*
X49499231Y-50918974D01*
X49474945Y-50875971D01*
X49446965Y-50832874D01*
X49415292Y-50789684D01*
X49379926Y-50746401D01*
X49358059Y-50721625D01*
X49323294Y-50684646D01*
X49286228Y-50648078D01*
X49246861Y-50611922D01*
X49205193Y-50576179D01*
X49161224Y-50540848D01*
X49146056Y-50529162D01*
X49099456Y-50494913D01*
X49051431Y-50462140D01*
X49001980Y-50430845D01*
X48959683Y-50405893D01*
X48916395Y-50381968D01*
X48881052Y-50363565D01*
X48836126Y-50341677D01*
X48790497Y-50321195D01*
X48744163Y-50302121D01*
X48697126Y-50284454D01*
X48649386Y-50268194D01*
X48600941Y-50253341D01*
X48581366Y-50247794D01*
X48532183Y-50235270D01*
X48482939Y-50224868D01*
X48433637Y-50216589D01*
X48384274Y-50210433D01*
X48334852Y-50206399D01*
X48285370Y-50204489D01*
X48265560Y-50204319D01*
X48214017Y-50206466D01*
X48164715Y-50212906D01*
X48113073Y-50224949D01*
X48108512Y-50226301D01*
X48060556Y-50243987D01*
X48017103Y-50267157D01*
X47981506Y-50292979D01*
X47944103Y-50329902D01*
X47915549Y-50369722D01*
X47896265Y-50406552D01*
X47878605Y-50456964D01*
X47868912Y-50508102D01*
X47865368Y-50558450D01*
X47865246Y-50570195D01*
X47870261Y-50620879D01*
X47883668Y-50671745D01*
X47900906Y-50716496D01*
X47922742Y-50762967D01*
X47948133Y-50810057D01*
X47973686Y-50852433D01*
X47994695Y-50884535D01*
X48024523Y-50927293D01*
X48056122Y-50969593D01*
X48089492Y-51011435D01*
X48124632Y-51052819D01*
X48160719Y-51092890D01*
X48196928Y-51130793D01*
X48233259Y-51166529D01*
X48269713Y-51200097D01*
X48310287Y-51234573D01*
X48350127Y-51265184D01*
X48393532Y-51294665D01*
X48410641Y-51305122D01*
X48455071Y-51328066D01*
X48501774Y-51342903D01*
X48527389Y-51345422D01*
X48573551Y-51325882D01*
X48611424Y-51292085D01*
X48623132Y-51278988D01*
X48653107Y-51238880D01*
X48663188Y-51222568D01*
X48679777Y-51175898D01*
X48680041Y-51170055D01*
X48664409Y-51127801D01*
X48617270Y-51110949D01*
X48572518Y-51090973D01*
X48553523Y-51078220D01*
X48513402Y-51048081D01*
X48472433Y-51013963D01*
X48446789Y-50991270D01*
X48408631Y-50955749D01*
X48373513Y-50921252D01*
X48337662Y-50884360D01*
X48321492Y-50867194D01*
X48285757Y-50827766D01*
X48251914Y-50788068D01*
X48219966Y-50748099D01*
X48203034Y-50725778D01*
X48174572Y-50685794D01*
X48146436Y-50642002D01*
X48121974Y-50598878D01*
X48115351Y-50586071D01*
X48095605Y-50541242D01*
X48082836Y-50493472D01*
X48080669Y-50466880D01*
X48085950Y-50417578D01*
X48105810Y-50372038D01*
X48125365Y-50350865D01*
X48169103Y-50325486D01*
X48218004Y-50314646D01*
X48238938Y-50313740D01*
X48294783Y-50315526D01*
X48349477Y-50320884D01*
X48403021Y-50329814D01*
X48455414Y-50342316D01*
X48506656Y-50358391D01*
X48523481Y-50364542D01*
X48572952Y-50384598D01*
X48620980Y-50406663D01*
X48667565Y-50430737D01*
X48712708Y-50456820D01*
X48756408Y-50484913D01*
X48770655Y-50494724D01*
X48812237Y-50525069D01*
X48852171Y-50556754D01*
X48890456Y-50589778D01*
X48927092Y-50624142D01*
X48962080Y-50659845D01*
X48973376Y-50672044D01*
X49005945Y-50708769D01*
X49041534Y-50751377D01*
X49074527Y-50793727D01*
X49104926Y-50835820D01*
X49125051Y-50865729D01*
X49154375Y-50912410D01*
X49180067Y-50957198D01*
X49204627Y-51005322D01*
X49220550Y-51041095D01*
X49238067Y-51087730D01*
X49251140Y-51138086D01*
X49253767Y-51166147D01*
X49243892Y-51215639D01*
X49214268Y-51255578D01*
X49208826Y-51260181D01*
X49167075Y-51287616D01*
X49119591Y-51309507D01*
X49087926Y-51320753D01*
X49038553Y-51334792D01*
X48990609Y-51345592D01*
X48939343Y-51354653D01*
X48915491Y-51358122D01*
X48866932Y-51364488D01*
X48817977Y-51370640D01*
X48768624Y-51376578D01*
X48718875Y-51382302D01*
X48668683Y-51388103D01*
X48619224Y-51394270D01*
X48570498Y-51400804D01*
X48522504Y-51407704D01*
X48470370Y-51416522D01*
X48421405Y-51427041D01*
X48370715Y-51440722D01*
X48351534Y-51446782D01*
X48302885Y-51465959D01*
X48257582Y-51491553D01*
X48228924Y-51513949D01*
X48198403Y-51552513D01*
X48183442Y-51599542D01*
X48181785Y-51624103D01*
X48187246Y-51674169D01*
X48203630Y-51724716D01*
X48220620Y-51758681D01*
X48247219Y-51800569D01*
X48278780Y-51841361D01*
X48315302Y-51881055D01*
X48323202Y-51888862D01*
X48360685Y-51923316D01*
X48401143Y-51956611D01*
X48444576Y-51988746D01*
X48469992Y-52006099D01*
X48511711Y-52032691D01*
X48554072Y-52057512D01*
X48602495Y-52083319D01*
X48640718Y-52101842D01*
X48690138Y-52123512D01*
X48739481Y-52142362D01*
X48788747Y-52158391D01*
X48816084Y-52166078D01*
X48863991Y-52177412D01*
X48914547Y-52185655D01*
X48966909Y-52189433D01*
X48976063Y-52189525D01*
X49028651Y-52185661D01*
X49078565Y-52172485D01*
X49120166Y-52149958D01*
X49160308Y-52115992D01*
X49192227Y-52077996D01*
X49204186Y-52059099D01*
X49226165Y-52014567D01*
X49241781Y-51965047D01*
X49243020Y-51958960D01*
X49251206Y-51909272D01*
X49252546Y-51890083D01*
X49237212Y-51842532D01*
X49232518Y-51837815D01*
X49188554Y-51820230D01*
X49143125Y-51837815D01*
X49123273Y-51883772D01*
X49123097Y-51890083D01*
X49120655Y-51917438D01*
X49108198Y-51943328D01*
X49075958Y-51962868D01*
X49026106Y-51970493D01*
X49014165Y-51970683D01*
X48963585Y-51963623D01*
X48919154Y-51950655D01*
X48873187Y-51933952D01*
X48824678Y-51913882D01*
X48790927Y-51898632D01*
X48743569Y-51875706D01*
X48700216Y-51852961D01*
X48656577Y-51828403D01*
X48652197Y-51825847D01*
X48609793Y-51800297D01*
X48566400Y-51772413D01*
X48526412Y-51744759D01*
X48487486Y-51715118D01*
X48449712Y-51682012D01*
X48436042Y-51668311D01*
X48406237Y-51628450D01*
X48401360Y-51609937D01*
G37*
G36*
X47386048Y-50973525D02*
G01*
X47431471Y-50995177D01*
X47441483Y-51012869D01*
X47449057Y-51062833D01*
X47449480Y-51065114D01*
X47466398Y-51111437D01*
X47475725Y-51135480D01*
X47493681Y-51182298D01*
X47511583Y-51229406D01*
X47538470Y-51268989D01*
X47568491Y-51311472D01*
X47584112Y-51333266D01*
X47614363Y-51375414D01*
X47643718Y-51416252D01*
X47663838Y-51444035D01*
X47694360Y-51485480D01*
X47725295Y-51526650D01*
X47738063Y-51543473D01*
X47770032Y-51584644D01*
X47802476Y-51624836D01*
X47829797Y-51657297D01*
X47863781Y-51694445D01*
X47895533Y-51720579D01*
X47882099Y-51702749D01*
X47870959Y-51682702D01*
X47847661Y-51637536D01*
X47845011Y-51632243D01*
X47822021Y-51586875D01*
X47799301Y-51542770D01*
X47789017Y-51522909D01*
X47766558Y-51479347D01*
X47743858Y-51435059D01*
X47720227Y-51389141D01*
X47697207Y-51344200D01*
X47678314Y-51306520D01*
X47656907Y-51261646D01*
X47646455Y-51238396D01*
X47628331Y-51192281D01*
X47627670Y-51190354D01*
X47617584Y-51141723D01*
X47622986Y-51107029D01*
X47650313Y-51064298D01*
X47677875Y-51040922D01*
X47722364Y-51016182D01*
X47749105Y-51007005D01*
X47797591Y-51000062D01*
X47833006Y-51029127D01*
X47841311Y-51075045D01*
X47845117Y-51087235D01*
X47863293Y-51134396D01*
X47873383Y-51156855D01*
X47895533Y-51202295D01*
X47909237Y-51229258D01*
X47931925Y-51274347D01*
X47955677Y-51319898D01*
X47979064Y-51366182D01*
X48001412Y-51412711D01*
X48021562Y-51458995D01*
X48037934Y-51501559D01*
X48052336Y-51548632D01*
X48059332Y-51580734D01*
X48063816Y-51631186D01*
X48062992Y-51645764D01*
X48050627Y-51694445D01*
X48040376Y-51717851D01*
X48014235Y-51759169D01*
X47999041Y-51776781D01*
X47960745Y-51809483D01*
X47943342Y-51819401D01*
X47895533Y-51830000D01*
X47850592Y-51813879D01*
X47834043Y-51802674D01*
X47796126Y-51771137D01*
X47770514Y-51746467D01*
X47735798Y-51710076D01*
X47705328Y-51672951D01*
X47684155Y-51641075D01*
X47706489Y-51678325D01*
X47719678Y-51706901D01*
X47729447Y-51724975D01*
X47739950Y-51743049D01*
X47756803Y-51771137D01*
X47758136Y-51773376D01*
X47783181Y-51816810D01*
X47827770Y-51848852D01*
X47871169Y-51880497D01*
X47913378Y-51911745D01*
X47954395Y-51942595D01*
X47974373Y-51957884D01*
X48017176Y-51991556D01*
X48057003Y-52024224D01*
X48097766Y-52059344D01*
X48130908Y-52089968D01*
X48165906Y-52126243D01*
X48197172Y-52164368D01*
X48223644Y-52209791D01*
X48234053Y-52258157D01*
X48234012Y-52261022D01*
X48223551Y-52310181D01*
X48217445Y-52324576D01*
X48187403Y-52364647D01*
X48163583Y-52383875D01*
X48118038Y-52406901D01*
X48106780Y-52410908D01*
X48058716Y-52421176D01*
X48009594Y-52423998D01*
X47961795Y-52415205D01*
X47915746Y-52391697D01*
X47876482Y-52361472D01*
X47867593Y-52353509D01*
X47831965Y-52318720D01*
X47796214Y-52279229D01*
X47764831Y-52240817D01*
X47733355Y-52198806D01*
X47701784Y-52153898D01*
X47670330Y-52106583D01*
X47643463Y-52064110D01*
X47616681Y-52019869D01*
X47589985Y-51973859D01*
X47583177Y-51961891D01*
X47827389Y-51961891D01*
X47840044Y-51983155D01*
X47866143Y-52024547D01*
X47893579Y-52066182D01*
X47917877Y-52101493D01*
X47947522Y-52140924D01*
X47979796Y-52179267D01*
X47987874Y-52188110D01*
X48024833Y-52224669D01*
X48063083Y-52255226D01*
X48090241Y-52271218D01*
X48139043Y-52283314D01*
X48152232Y-52268415D01*
X48150537Y-52257150D01*
X48125121Y-52214193D01*
X48121679Y-52210005D01*
X48088095Y-52173888D01*
X48049894Y-52138478D01*
X48014794Y-52108279D01*
X47975654Y-52076118D01*
X47936565Y-52045177D01*
X47908968Y-52023911D01*
X47866498Y-51991425D01*
X47827389Y-51961891D01*
X47583177Y-51961891D01*
X47581109Y-51958255D01*
X47554951Y-51911409D01*
X47529497Y-51864511D01*
X47504748Y-51817562D01*
X47480702Y-51770562D01*
X47457361Y-51723510D01*
X47418236Y-51692308D01*
X47379509Y-51660983D01*
X47341178Y-51629537D01*
X47303244Y-51597969D01*
X47279881Y-51578118D01*
X47239330Y-51542357D01*
X47200712Y-51506557D01*
X47164025Y-51470718D01*
X47152245Y-51458779D01*
X47118424Y-51423114D01*
X47083520Y-51383758D01*
X47051429Y-51344689D01*
X47025689Y-51309827D01*
X46999318Y-51268058D01*
X46976935Y-51223545D01*
X46976176Y-51221705D01*
X46971806Y-51171765D01*
X46998673Y-51142944D01*
X47039461Y-51145143D01*
X47043448Y-51146972D01*
X47077563Y-51183244D01*
X47075854Y-51185198D01*
X47100431Y-51227712D01*
X47128976Y-51269767D01*
X47161491Y-51311365D01*
X47197975Y-51352505D01*
X47236642Y-51392377D01*
X47275705Y-51430174D01*
X47315166Y-51465894D01*
X47355023Y-51499539D01*
X47353063Y-51494977D01*
X47333479Y-51447722D01*
X47314967Y-51401353D01*
X47307413Y-51382012D01*
X47289225Y-51334291D01*
X47271981Y-51287048D01*
X47258347Y-51247554D01*
X47242916Y-51198387D01*
X47241614Y-51193826D01*
X47232169Y-51144410D01*
X47232710Y-51134057D01*
X47247556Y-51087013D01*
X47255708Y-51072328D01*
X47285658Y-51032302D01*
X47295653Y-51021789D01*
X47334018Y-50990537D01*
X47335633Y-50989485D01*
X47382134Y-50973440D01*
X47386048Y-50973525D01*
G37*
G36*
X46623516Y-50699644D02*
G01*
X46630879Y-50750584D01*
X46640613Y-50784152D01*
X46657583Y-50832010D01*
X46676941Y-50880636D01*
X46685309Y-50900411D01*
X46705179Y-50945814D01*
X46726837Y-50993700D01*
X46748080Y-51039385D01*
X46770324Y-51086087D01*
X46793093Y-51133075D01*
X46816387Y-51180350D01*
X46821108Y-51189839D01*
X46842483Y-51234041D01*
X46866096Y-51282746D01*
X46889566Y-51331023D01*
X46896579Y-51345422D01*
X46919043Y-51392248D01*
X46940028Y-51437165D01*
X46961403Y-51484371D01*
X46963258Y-51488548D01*
X46983557Y-51536496D01*
X47001749Y-51583788D01*
X47009908Y-51607250D01*
X47023439Y-51655648D01*
X47027249Y-51687362D01*
X47033600Y-51689316D01*
X46987399Y-51668276D01*
X46976935Y-51659762D01*
X46941154Y-51625385D01*
X46908042Y-51587792D01*
X46903174Y-51581849D01*
X46871180Y-51540944D01*
X46841219Y-51500323D01*
X46823551Y-51475359D01*
X46793749Y-51431991D01*
X46765528Y-51389446D01*
X46747591Y-51361542D01*
X46720547Y-51318268D01*
X46694848Y-51275632D01*
X46686530Y-51261402D01*
X46662119Y-51218228D01*
X46649650Y-51194480D01*
X46623272Y-51178115D01*
X46587124Y-51184466D01*
X46556349Y-51204982D01*
X46549754Y-51234780D01*
X46572604Y-51278272D01*
X46595184Y-51319043D01*
X46620028Y-51362320D01*
X46645577Y-51404646D01*
X46668457Y-51441165D01*
X46695795Y-51482915D01*
X46724995Y-51525429D01*
X46756055Y-51568705D01*
X46762490Y-51577452D01*
X46795010Y-51619832D01*
X46828149Y-51659350D01*
X46861909Y-51696006D01*
X46868736Y-51702993D01*
X46906210Y-51738802D01*
X46947157Y-51772599D01*
X46977912Y-51794340D01*
X47021639Y-51817428D01*
X47070289Y-51829442D01*
X47082937Y-51830000D01*
X47134411Y-51822752D01*
X47178191Y-51801011D01*
X47203104Y-51778464D01*
X47231532Y-51734558D01*
X47246064Y-51685077D01*
X47249754Y-51638025D01*
X47241931Y-51586581D01*
X47229727Y-51544724D01*
X47213103Y-51496478D01*
X47194726Y-51448270D01*
X47177459Y-51405994D01*
X47156488Y-51356449D01*
X47136473Y-51310145D01*
X47115375Y-51262219D01*
X47105651Y-51240397D01*
X47083298Y-51190977D01*
X47060752Y-51141633D01*
X47038012Y-51092367D01*
X47025295Y-51065031D01*
X47004213Y-51020200D01*
X46983556Y-50975833D01*
X46961101Y-50927079D01*
X46952267Y-50907739D01*
X46930977Y-50860540D01*
X46911070Y-50815728D01*
X46890770Y-50769188D01*
X46889008Y-50765101D01*
X46869556Y-50718412D01*
X46850943Y-50670020D01*
X46844311Y-50651284D01*
X46830444Y-50603414D01*
X46827703Y-50581674D01*
X46793020Y-50555052D01*
X46744419Y-50569503D01*
X46721946Y-50581186D01*
X46680624Y-50610176D01*
X46654535Y-50634675D01*
X46627181Y-50677311D01*
X46623516Y-50699644D01*
G37*
G36*
X46020236Y-51191793D02*
G01*
X45986405Y-51155520D01*
X45982378Y-51153691D01*
X45941101Y-51152226D01*
X45914479Y-51182023D01*
X45918849Y-51231948D01*
X45919608Y-51233803D01*
X45946083Y-51280989D01*
X45972751Y-51325276D01*
X45999612Y-51366666D01*
X46014618Y-51388408D01*
X46044875Y-51427134D01*
X46059315Y-51444584D01*
X46094030Y-51481329D01*
X46108163Y-51493921D01*
X46148366Y-51523033D01*
X46159943Y-51529581D01*
X46207352Y-51543380D01*
X46212211Y-51543503D01*
X46247870Y-51538374D01*
X46274981Y-51529092D01*
X46299100Y-51571896D01*
X46326115Y-51616261D01*
X46330424Y-51623126D01*
X46360297Y-51666524D01*
X46393555Y-51707019D01*
X46410048Y-51724731D01*
X46447852Y-51759496D01*
X46488236Y-51788780D01*
X46507745Y-51800446D01*
X46555216Y-51820649D01*
X46605304Y-51829538D01*
X46620096Y-51830000D01*
X46670899Y-51824870D01*
X46718282Y-51809483D01*
X46763295Y-51784047D01*
X46797172Y-51755994D01*
X46830291Y-51716392D01*
X46850173Y-51681744D01*
X46866692Y-51633439D01*
X46869957Y-51601877D01*
X46865759Y-51551788D01*
X46859210Y-51520544D01*
X46844879Y-51473085D01*
X46830634Y-51436280D01*
X46810708Y-51391576D01*
X46791066Y-51352016D01*
X46767986Y-51307535D01*
X46748080Y-51268974D01*
X46724012Y-51222770D01*
X46701850Y-51178529D01*
X46683355Y-51140013D01*
X46664853Y-51094346D01*
X46654891Y-51045331D01*
X46654779Y-51040362D01*
X46619364Y-51008855D01*
X46570878Y-51015136D01*
X46544137Y-51024975D01*
X46501667Y-51049584D01*
X46471841Y-51075778D01*
X46445574Y-51117011D01*
X46439357Y-51154424D01*
X46450191Y-51204473D01*
X46464514Y-51239420D01*
X46485965Y-51286127D01*
X46507912Y-51332890D01*
X46521667Y-51361786D01*
X46543221Y-51406177D01*
X46565386Y-51451912D01*
X46586635Y-51497585D01*
X46605442Y-51542281D01*
X46623173Y-51589886D01*
X46634507Y-51624347D01*
X46645303Y-51673089D01*
X46646230Y-51689071D01*
X46618875Y-51720579D01*
X46570653Y-51711382D01*
X46534856Y-51691514D01*
X46496143Y-51658968D01*
X46462290Y-51622579D01*
X46460117Y-51619951D01*
X46429427Y-51579372D01*
X46402386Y-51536860D01*
X46399057Y-51531046D01*
X46374148Y-51486184D01*
X46357780Y-51454842D01*
X46381989Y-51411699D01*
X46392884Y-51361739D01*
X46393195Y-51351284D01*
X46386384Y-51302577D01*
X46378785Y-51280209D01*
X46359245Y-51234738D01*
X46346056Y-51207180D01*
X46324649Y-51161104D01*
X46309175Y-51124626D01*
X46295153Y-51077288D01*
X46291834Y-51040362D01*
X46256419Y-51008855D01*
X46207933Y-51015136D01*
X46181192Y-51024975D01*
X46138722Y-51049584D01*
X46108896Y-51075778D01*
X46082630Y-51117011D01*
X46076412Y-51154424D01*
X46084506Y-51202869D01*
X46099371Y-51241374D01*
X46120988Y-51287563D01*
X46143249Y-51332250D01*
X46146265Y-51338094D01*
X46167270Y-51379616D01*
X46184856Y-51415519D01*
X46200487Y-51437745D01*
X46208059Y-51437745D01*
X46183634Y-51428220D01*
X46153837Y-51401598D01*
X46122085Y-51362274D01*
X46093670Y-51320585D01*
X46090822Y-51316113D01*
X46063597Y-51273374D01*
X46038761Y-51230878D01*
X46018526Y-51193747D01*
X46020236Y-51191793D01*
G37*
G36*
X45621158Y-50973257D02*
G01*
X45672007Y-50982233D01*
X45722397Y-50997192D01*
X45772330Y-51018136D01*
X45820644Y-51043904D01*
X45866424Y-51073335D01*
X45909670Y-51106430D01*
X45950383Y-51143189D01*
X45987935Y-51182970D01*
X46021701Y-51225376D01*
X46051682Y-51270409D01*
X46077877Y-51318066D01*
X46099142Y-51367098D01*
X46114331Y-51416496D01*
X46123444Y-51466261D01*
X46126482Y-51516392D01*
X46126465Y-51519556D01*
X46121794Y-51571282D01*
X46109873Y-51621660D01*
X46105442Y-51635208D01*
X46085547Y-51680582D01*
X46058826Y-51722777D01*
X46049881Y-51734073D01*
X46014244Y-51769763D01*
X45971876Y-51799469D01*
X45948039Y-51811365D01*
X45898622Y-51825706D01*
X45847068Y-51830000D01*
X45836503Y-51829857D01*
X45784568Y-51824882D01*
X45734112Y-51812799D01*
X45685135Y-51793607D01*
X45670712Y-51786597D01*
X45624001Y-51760532D01*
X45579388Y-51730316D01*
X45541032Y-51699574D01*
X45520475Y-51681245D01*
X45484885Y-51646660D01*
X45451112Y-51610027D01*
X45419154Y-51571346D01*
X45408868Y-51558098D01*
X45379324Y-51518739D01*
X45348808Y-51475686D01*
X45320724Y-51433349D01*
X45297547Y-51396476D01*
X45272315Y-51353875D01*
X45248673Y-51310495D01*
X45229084Y-51272542D01*
X45205442Y-51226231D01*
X45212036Y-51196434D01*
X45241834Y-51175673D01*
X45278470Y-51168834D01*
X45305581Y-51184466D01*
X45318050Y-51208355D01*
X45342462Y-51252121D01*
X45352592Y-51269560D01*
X45379499Y-51313392D01*
X45406209Y-51354459D01*
X45430872Y-51390136D01*
X45460315Y-51429988D01*
X45492183Y-51470474D01*
X45522876Y-51506543D01*
X45558070Y-51543849D01*
X45594765Y-51578674D01*
X45622196Y-51601984D01*
X45664546Y-51632770D01*
X45708338Y-51658541D01*
X45726827Y-51667407D01*
X45775065Y-51683425D01*
X45827284Y-51689316D01*
X45859280Y-51671730D01*
X45868805Y-51623614D01*
X45864409Y-51576231D01*
X45818071Y-51560839D01*
X45773062Y-51537641D01*
X45757405Y-51528119D01*
X45714261Y-51498413D01*
X45675121Y-51466810D01*
X45657441Y-51450939D01*
X45620372Y-51414490D01*
X45584995Y-51375219D01*
X45569402Y-51356400D01*
X45537973Y-51315331D01*
X45509768Y-51273859D01*
X45503750Y-51264224D01*
X45478786Y-51219998D01*
X45457745Y-51173963D01*
X45445094Y-51136165D01*
X45438205Y-51087013D01*
X45439236Y-51079685D01*
X45551778Y-51079685D01*
X45552511Y-51080418D01*
X45558861Y-51115223D01*
X45577912Y-51160530D01*
X45589820Y-51182801D01*
X45616151Y-51224968D01*
X45645323Y-51264822D01*
X45666817Y-51291352D01*
X45701346Y-51329889D01*
X45738624Y-51366915D01*
X45741811Y-51369891D01*
X45779764Y-51402892D01*
X45821667Y-51431151D01*
X45813464Y-51409783D01*
X45793827Y-51365015D01*
X45770620Y-51317822D01*
X45753263Y-51285231D01*
X45726255Y-51239607D01*
X45698080Y-51197899D01*
X45688489Y-51184912D01*
X45657268Y-51147185D01*
X45621143Y-51112170D01*
X45600054Y-51096467D01*
X45551778Y-51079685D01*
X45439236Y-51079685D01*
X45444142Y-51044825D01*
X45469224Y-51002260D01*
X45475379Y-50996542D01*
X45519664Y-50975545D01*
X45569852Y-50970265D01*
X45621158Y-50973257D01*
G37*
G36*
X44842985Y-51190327D02*
G01*
X44815875Y-51173230D01*
X44779727Y-51180314D01*
X44748952Y-51200341D01*
X44743823Y-51229651D01*
X44765519Y-51275542D01*
X44784123Y-51313426D01*
X44808002Y-51360526D01*
X44832977Y-51407295D01*
X44848847Y-51436036D01*
X44875318Y-51482507D01*
X44900734Y-51525555D01*
X44927439Y-51569366D01*
X44930180Y-51573789D01*
X44957743Y-51616617D01*
X44985784Y-51656869D01*
X45017179Y-51698172D01*
X45020062Y-51701772D01*
X45054923Y-51741729D01*
X45090266Y-51775503D01*
X45114095Y-51794584D01*
X45157833Y-51820004D01*
X45205198Y-51830000D01*
X45254981Y-51823703D01*
X45281646Y-51813879D01*
X45323488Y-51787338D01*
X45339531Y-51772602D01*
X45368612Y-51732654D01*
X45376900Y-51714961D01*
X45389271Y-51667283D01*
X45390334Y-51648283D01*
X45385508Y-51598976D01*
X45373237Y-51548143D01*
X45357763Y-51498428D01*
X45341260Y-51450584D01*
X45336356Y-51437257D01*
X45317671Y-51391771D01*
X45297888Y-51346902D01*
X45284088Y-51317334D01*
X45301918Y-51305122D01*
X45319503Y-51291688D01*
X45339775Y-51331011D01*
X45363718Y-51374779D01*
X45381297Y-51405261D01*
X45408163Y-51417962D01*
X45443823Y-51406971D01*
X45472888Y-51383768D01*
X45460431Y-51334431D01*
X45467759Y-51359099D01*
X45449183Y-51312167D01*
X45440892Y-51295108D01*
X45418422Y-51250900D01*
X45402302Y-51217683D01*
X45389601Y-51191060D01*
X45399371Y-51153935D01*
X45403034Y-51106308D01*
X45399795Y-51056117D01*
X45391555Y-51012519D01*
X45376322Y-50963523D01*
X45361269Y-50929476D01*
X45334376Y-50886640D01*
X45318526Y-50868904D01*
X45273967Y-50845583D01*
X45267235Y-50845212D01*
X45217096Y-50850026D01*
X45215212Y-50850341D01*
X45167857Y-50862707D01*
X45157570Y-50866706D01*
X45115736Y-50892485D01*
X45110676Y-50897236D01*
X45090726Y-50942030D01*
X45090648Y-50945596D01*
X45102240Y-50993166D01*
X45103837Y-50996399D01*
X45126646Y-51041136D01*
X45132413Y-51052330D01*
X45156481Y-51096228D01*
X45167828Y-51120230D01*
X45182224Y-51168868D01*
X45183460Y-51186664D01*
X45177598Y-51225987D01*
X45161967Y-51253586D01*
X45139985Y-51273126D01*
X45117026Y-51288269D01*
X45075505Y-51316357D01*
X45058163Y-51362030D01*
X45070829Y-51410788D01*
X45072574Y-51415031D01*
X45092686Y-51460636D01*
X45106768Y-51490746D01*
X45127358Y-51537251D01*
X45133390Y-51551074D01*
X45152762Y-51597831D01*
X45158547Y-51612868D01*
X45174898Y-51660479D01*
X45177354Y-51668799D01*
X45184681Y-51712763D01*
X45185658Y-51720579D01*
X45143713Y-51695304D01*
X45138275Y-51689804D01*
X45105358Y-51651401D01*
X45075973Y-51611597D01*
X45073795Y-51608471D01*
X45045296Y-51565697D01*
X45018775Y-51522849D01*
X45003209Y-51496364D01*
X44976796Y-51450431D01*
X44951414Y-51405322D01*
X44935065Y-51375708D01*
X44910002Y-51329414D01*
X44885986Y-51282985D01*
X44878156Y-51267264D01*
X44855944Y-51221286D01*
X44842985Y-51192281D01*
X44842985Y-51190327D01*
G37*
G36*
X43867158Y-50235750D02*
G01*
X43921778Y-50237639D01*
X43976194Y-50241627D01*
X44030408Y-50247714D01*
X44084420Y-50255900D01*
X44138228Y-50266185D01*
X44191834Y-50278569D01*
X44213142Y-50284055D01*
X44265862Y-50299022D01*
X44317795Y-50315778D01*
X44368940Y-50334323D01*
X44419299Y-50354656D01*
X44468870Y-50376779D01*
X44517654Y-50400690D01*
X44536893Y-50410677D01*
X44584230Y-50436469D01*
X44630483Y-50463442D01*
X44675650Y-50491595D01*
X44719732Y-50520929D01*
X44762728Y-50551444D01*
X44804639Y-50583140D01*
X44837124Y-50609022D01*
X44876183Y-50641697D01*
X44913526Y-50674729D01*
X44956070Y-50714840D01*
X44996141Y-50755466D01*
X45033739Y-50796608D01*
X45068641Y-50837956D01*
X45100624Y-50879200D01*
X45129687Y-50920342D01*
X45159903Y-50968210D01*
X45186147Y-51015938D01*
X45207750Y-51062683D01*
X45225942Y-51114130D01*
X45237204Y-51163471D01*
X45241590Y-51216461D01*
X45241239Y-51234093D01*
X45235248Y-51286123D01*
X45219119Y-51336140D01*
X45194941Y-51376269D01*
X45160013Y-51411367D01*
X45126787Y-51432478D01*
X45080634Y-51450690D01*
X45046067Y-51458123D01*
X44996126Y-51462170D01*
X44988562Y-51462078D01*
X44939461Y-51456308D01*
X44893055Y-51440188D01*
X44860327Y-51416252D01*
X44847626Y-51386699D01*
X44854465Y-51355191D01*
X44873760Y-51339071D01*
X44901360Y-51334675D01*
X44932134Y-51336873D01*
X44954849Y-51338094D01*
X44975121Y-51334675D01*
X44989531Y-51322707D01*
X44995393Y-51295352D01*
X44989726Y-51252980D01*
X44974574Y-51204061D01*
X44955093Y-51156866D01*
X44947225Y-51139913D01*
X44923202Y-51093278D01*
X44898550Y-51050769D01*
X44870508Y-51006671D01*
X44839078Y-50960983D01*
X44829523Y-50947662D01*
X44799403Y-50907571D01*
X44767103Y-50867291D01*
X44732622Y-50826822D01*
X44695960Y-50786164D01*
X44657117Y-50745317D01*
X44630105Y-50718340D01*
X44588128Y-50679061D01*
X44544399Y-50641209D01*
X44498918Y-50604781D01*
X44459679Y-50575514D01*
X44419224Y-50547236D01*
X44402685Y-50536249D01*
X44360612Y-50509883D01*
X44317501Y-50485092D01*
X44273352Y-50461874D01*
X44228166Y-50440231D01*
X44181942Y-50420162D01*
X44134681Y-50401667D01*
X44115483Y-50394806D01*
X44067004Y-50379588D01*
X44017834Y-50367137D01*
X43967972Y-50357454D01*
X43917418Y-50350537D01*
X43866172Y-50346386D01*
X43814235Y-50345003D01*
X43766713Y-50346557D01*
X43718022Y-50352299D01*
X43666100Y-50365898D01*
X43622504Y-50389211D01*
X43602832Y-50406648D01*
X43574172Y-50450318D01*
X43564618Y-50502051D01*
X43565846Y-50526763D01*
X43574636Y-50575076D01*
X43590264Y-50622463D01*
X43610267Y-50667417D01*
X43635350Y-50712949D01*
X43662560Y-50754842D01*
X43674509Y-50771669D01*
X43706885Y-50813500D01*
X43739083Y-50850863D01*
X43774179Y-50887955D01*
X43794774Y-50908272D01*
X43833317Y-50943761D01*
X43873754Y-50977858D01*
X43916084Y-51010565D01*
X43940295Y-51027980D01*
X43985106Y-51057855D01*
X44031502Y-51085837D01*
X44079482Y-51111926D01*
X44095574Y-51120079D01*
X44142405Y-51141807D01*
X44191903Y-51161146D01*
X44238729Y-51175429D01*
X44223097Y-51147341D01*
X44202825Y-51112170D01*
X44183774Y-51079930D01*
X44163502Y-51044026D01*
X44157908Y-51034003D01*
X44134082Y-50990928D01*
X44110192Y-50946964D01*
X44087054Y-50903342D01*
X44069116Y-50866214D01*
X44055547Y-50817613D01*
X44056096Y-50805743D01*
X44071178Y-50757285D01*
X44078391Y-50745157D01*
X44110257Y-50707948D01*
X44119213Y-50700472D01*
X44161792Y-50675219D01*
X44168742Y-50672414D01*
X44216747Y-50663251D01*
X44252406Y-50669357D01*
X44270236Y-50687187D01*
X44275854Y-50712833D01*
X44276586Y-50742142D01*
X44276586Y-50747759D01*
X44290997Y-50771207D01*
X44306628Y-50798806D01*
X44325923Y-50833244D01*
X44348943Y-50871407D01*
X44375505Y-50915066D01*
X44377256Y-50917963D01*
X44402555Y-50960678D01*
X44427528Y-51004703D01*
X44432474Y-51001280D01*
X44477354Y-50980523D01*
X44484983Y-50978119D01*
X44534751Y-50970265D01*
X44554322Y-50971308D01*
X44602406Y-50983454D01*
X44618038Y-50990506D01*
X44659071Y-51018625D01*
X44669205Y-51028534D01*
X44698149Y-51068695D01*
X44702371Y-51077484D01*
X44712804Y-51125359D01*
X44705477Y-51172009D01*
X44702890Y-51179971D01*
X44681297Y-51223789D01*
X44672443Y-51236673D01*
X44639287Y-51273126D01*
X44627962Y-51282833D01*
X44585798Y-51310251D01*
X44594616Y-51330060D01*
X44613900Y-51375043D01*
X44633425Y-51422847D01*
X44642186Y-51445501D01*
X44659696Y-51494173D01*
X44675191Y-51542281D01*
X44679469Y-51556894D01*
X44692579Y-51607377D01*
X44702790Y-51656831D01*
X44703406Y-51660321D01*
X44710301Y-51711236D01*
X44712804Y-51762588D01*
X44709018Y-51809544D01*
X44697661Y-51858087D01*
X44679465Y-51905348D01*
X44655163Y-51947969D01*
X44626659Y-51982866D01*
X44587996Y-52014891D01*
X44548540Y-52033825D01*
X44498115Y-52041270D01*
X44481766Y-52040729D01*
X44433146Y-52025882D01*
X44414339Y-51981430D01*
X44420201Y-51949923D01*
X44439496Y-51918660D01*
X44416293Y-51952121D01*
X44417941Y-51948211D01*
X44436456Y-51902593D01*
X44453174Y-51855401D01*
X44459014Y-51831564D01*
X44463432Y-51782372D01*
X44462002Y-51745188D01*
X44455648Y-51694045D01*
X44445358Y-51645596D01*
X44437369Y-51615129D01*
X44423293Y-51566814D01*
X44407500Y-51520055D01*
X44389855Y-51570474D01*
X44370148Y-51617594D01*
X44346654Y-51666881D01*
X44322992Y-51711786D01*
X44308357Y-51737695D01*
X44281367Y-51782245D01*
X44252625Y-51825791D01*
X44222129Y-51868332D01*
X44189880Y-51909867D01*
X44170718Y-51933097D01*
X44136065Y-51972702D01*
X44099986Y-52010975D01*
X44062481Y-52047915D01*
X44023551Y-52083524D01*
X44000741Y-52103158D01*
X43960070Y-52135922D01*
X43918441Y-52166651D01*
X43875854Y-52195347D01*
X43832309Y-52222009D01*
X43807037Y-52236313D01*
X43762261Y-52259360D01*
X43716784Y-52279883D01*
X43670605Y-52297882D01*
X43623725Y-52313356D01*
X43616977Y-52315355D01*
X43569656Y-52327568D01*
X43515403Y-52337719D01*
X43460968Y-52343810D01*
X43406349Y-52345840D01*
X43381076Y-52345559D01*
X43324294Y-52342716D01*
X43270574Y-52336810D01*
X43219915Y-52327843D01*
X43165770Y-52313845D01*
X43121333Y-52299040D01*
X43073724Y-52280146D01*
X43029505Y-52259144D01*
X42983809Y-52233000D01*
X42969467Y-52223757D01*
X42929095Y-52195024D01*
X42888904Y-52161331D01*
X42853627Y-52125778D01*
X42828409Y-52097140D01*
X42797523Y-52059159D01*
X42766677Y-52016357D01*
X42765456Y-51970683D01*
X42766442Y-51969456D01*
X42805756Y-51940397D01*
X42807298Y-51939749D01*
X42855826Y-51927452D01*
X42889531Y-51937466D01*
X42908198Y-51962351D01*
X42944974Y-51994619D01*
X42949920Y-51998196D01*
X42993884Y-52024956D01*
X43038764Y-52045666D01*
X43063377Y-52054992D01*
X43112685Y-52070205D01*
X43162350Y-52081814D01*
X43206018Y-52089155D01*
X43255486Y-52094091D01*
X43306454Y-52095736D01*
X43325531Y-52095346D01*
X43376131Y-52090967D01*
X43425218Y-52082866D01*
X43477668Y-52070823D01*
X43526150Y-52057008D01*
X43575365Y-52040476D01*
X43625313Y-52021226D01*
X43675993Y-51999260D01*
X43701497Y-51987269D01*
X43746038Y-51964706D01*
X43790462Y-51940132D01*
X43834769Y-51913548D01*
X43878959Y-51884954D01*
X43903853Y-51867819D01*
X43946149Y-51836473D01*
X43986833Y-51803398D01*
X44025904Y-51768593D01*
X44063362Y-51732058D01*
X44083925Y-51710435D01*
X44118072Y-51671382D01*
X44149882Y-51630787D01*
X44179354Y-51588649D01*
X44206489Y-51544968D01*
X44213717Y-51532212D01*
X44236490Y-51487176D01*
X44255337Y-51441531D01*
X44272068Y-51388622D01*
X44283669Y-51334919D01*
X44227877Y-51326593D01*
X44172272Y-51315719D01*
X44124759Y-51304370D01*
X44077383Y-51291149D01*
X44030145Y-51276057D01*
X43991143Y-51262182D01*
X43945347Y-51244368D01*
X43893308Y-51221978D01*
X43842765Y-51197858D01*
X43821988Y-51186908D01*
X44524493Y-51186908D01*
X44528889Y-51189351D01*
X44531224Y-51194233D01*
X44564060Y-51165415D01*
X44572916Y-51136228D01*
X44563572Y-51145387D01*
X44543544Y-51166147D01*
X44524493Y-51186908D01*
X43821988Y-51186908D01*
X43793718Y-51172009D01*
X43766416Y-51156466D01*
X43720071Y-51128217D01*
X43675549Y-51098636D01*
X43632849Y-51067723D01*
X43591974Y-51035478D01*
X43580657Y-51026025D01*
X43542658Y-50992639D01*
X43507160Y-50958785D01*
X43469654Y-50919523D01*
X43435414Y-50879651D01*
X43411889Y-50849391D01*
X43383702Y-50808938D01*
X43356334Y-50763283D01*
X43333565Y-50717473D01*
X43331326Y-50712367D01*
X43312845Y-50662087D01*
X43301473Y-50613238D01*
X43297172Y-50561158D01*
X43299126Y-50527178D01*
X43309385Y-50478382D01*
X43328436Y-50432198D01*
X43348724Y-50399832D01*
X43384610Y-50360706D01*
X43426377Y-50328883D01*
X43452669Y-50313158D01*
X43496938Y-50292082D01*
X43547002Y-50274020D01*
X43596370Y-50260495D01*
X43636524Y-50252029D01*
X43687169Y-50244365D01*
X43741904Y-50239086D01*
X43792076Y-50236458D01*
X43845253Y-50235582D01*
X43867158Y-50235750D01*
G37*
G36*
X43134766Y-50973257D02*
G01*
X43185615Y-50982233D01*
X43236005Y-50997192D01*
X43285937Y-51018136D01*
X43334252Y-51043904D01*
X43380032Y-51073335D01*
X43423278Y-51106430D01*
X43463990Y-51143189D01*
X43501543Y-51182970D01*
X43535309Y-51225376D01*
X43565290Y-51270409D01*
X43591485Y-51318066D01*
X43612750Y-51367098D01*
X43627938Y-51416496D01*
X43637052Y-51466261D01*
X43640089Y-51516392D01*
X43640073Y-51519556D01*
X43635402Y-51571282D01*
X43623481Y-51621660D01*
X43619050Y-51635208D01*
X43599155Y-51680582D01*
X43572434Y-51722777D01*
X43563489Y-51734073D01*
X43527852Y-51769763D01*
X43485484Y-51799469D01*
X43461646Y-51811365D01*
X43412230Y-51825706D01*
X43360676Y-51830000D01*
X43350111Y-51829857D01*
X43298176Y-51824882D01*
X43247720Y-51812799D01*
X43198743Y-51793607D01*
X43184320Y-51786597D01*
X43137608Y-51760532D01*
X43092996Y-51730316D01*
X43054639Y-51699574D01*
X43034083Y-51681245D01*
X42998493Y-51646660D01*
X42964720Y-51610027D01*
X42932762Y-51571346D01*
X42922476Y-51558098D01*
X42892932Y-51518739D01*
X42862415Y-51475686D01*
X42834332Y-51433349D01*
X42811155Y-51396476D01*
X42785923Y-51353875D01*
X42762281Y-51310495D01*
X42742692Y-51272542D01*
X42719050Y-51226231D01*
X42725644Y-51196434D01*
X42755442Y-51175673D01*
X42792078Y-51168834D01*
X42819189Y-51184466D01*
X42831658Y-51208355D01*
X42856070Y-51252121D01*
X42866199Y-51269560D01*
X42893107Y-51313392D01*
X42919817Y-51354459D01*
X42944480Y-51390136D01*
X42973923Y-51429988D01*
X43005791Y-51470474D01*
X43036483Y-51506543D01*
X43071678Y-51543849D01*
X43108373Y-51578674D01*
X43135804Y-51601984D01*
X43178154Y-51632770D01*
X43221946Y-51658541D01*
X43240434Y-51667407D01*
X43288673Y-51683425D01*
X43340892Y-51689316D01*
X43372888Y-51671730D01*
X43382413Y-51623614D01*
X43378017Y-51576231D01*
X43331678Y-51560839D01*
X43286670Y-51537641D01*
X43271013Y-51528119D01*
X43227869Y-51498413D01*
X43188729Y-51466810D01*
X43171049Y-51450939D01*
X43133979Y-51414490D01*
X43098603Y-51375219D01*
X43083010Y-51356400D01*
X43051581Y-51315331D01*
X43023376Y-51273859D01*
X43017358Y-51264224D01*
X42992393Y-51219998D01*
X42971353Y-51173963D01*
X42958702Y-51136165D01*
X42951813Y-51087013D01*
X42952844Y-51079685D01*
X43065386Y-51079685D01*
X43066119Y-51080418D01*
X43072469Y-51115223D01*
X43091520Y-51160530D01*
X43103428Y-51182801D01*
X43129759Y-51224968D01*
X43158931Y-51264822D01*
X43180424Y-51291352D01*
X43214954Y-51329889D01*
X43252232Y-51366915D01*
X43255418Y-51369891D01*
X43293371Y-51402892D01*
X43335274Y-51431151D01*
X43327071Y-51409783D01*
X43307435Y-51365015D01*
X43284228Y-51317822D01*
X43266871Y-51285231D01*
X43239863Y-51239607D01*
X43211688Y-51197899D01*
X43202097Y-51184912D01*
X43170876Y-51147185D01*
X43134751Y-51112170D01*
X43113662Y-51096467D01*
X43065386Y-51079685D01*
X42952844Y-51079685D01*
X42957750Y-51044825D01*
X42982832Y-51002260D01*
X42988987Y-50996542D01*
X43033271Y-50975545D01*
X43083460Y-50970265D01*
X43134766Y-50973257D01*
G37*
G36*
X41490997Y-51900830D02*
G01*
X41444449Y-51926158D01*
X41401618Y-51952562D01*
X41357219Y-51984054D01*
X41317675Y-52016950D01*
X41308547Y-52025394D01*
X41270513Y-52063568D01*
X41237192Y-52101703D01*
X41205698Y-52144031D01*
X41194730Y-52160949D01*
X41168792Y-52206913D01*
X41148742Y-52251781D01*
X41135623Y-52291618D01*
X41124396Y-52340238D01*
X41118553Y-52389926D01*
X41118282Y-52402016D01*
X41122923Y-52450376D01*
X41137089Y-52487745D01*
X41160292Y-52515101D01*
X41190578Y-52529267D01*
X41225505Y-52524382D01*
X41259027Y-52487608D01*
X41260676Y-52472847D01*
X41250070Y-52423533D01*
X41247242Y-52417159D01*
X41234053Y-52403726D01*
X41247975Y-52427906D01*
X41240788Y-52377605D01*
X41242357Y-52346817D01*
X41257012Y-52299327D01*
X41264828Y-52283070D01*
X41292101Y-52241381D01*
X41310501Y-52220300D01*
X41348827Y-52188069D01*
X41380110Y-52169986D01*
X41429463Y-52146447D01*
X41478113Y-52124923D01*
X41526061Y-52105414D01*
X41573306Y-52087920D01*
X41619850Y-52072411D01*
X41671372Y-52057006D01*
X41722006Y-52043765D01*
X41755267Y-52036140D01*
X41804362Y-52026431D01*
X41857733Y-52017682D01*
X41909863Y-52011080D01*
X41925260Y-52009518D01*
X41975802Y-52005525D01*
X42025152Y-52003011D01*
X42078059Y-52001954D01*
X42082797Y-52001946D01*
X42133437Y-52002566D01*
X42182347Y-52004424D01*
X42236126Y-52008065D01*
X42287646Y-52013324D01*
X42300173Y-52014891D01*
X42348839Y-52021562D01*
X42401106Y-52029249D01*
X42450745Y-52037130D01*
X42482378Y-52042491D01*
X42530929Y-52051142D01*
X42581541Y-52058611D01*
X42630287Y-52063351D01*
X42665316Y-52064473D01*
X42716209Y-52059759D01*
X42747138Y-52049574D01*
X42764235Y-52039071D01*
X42780355Y-52024173D01*
X42812834Y-51986960D01*
X42836082Y-51941268D01*
X42838484Y-51934535D01*
X42851341Y-51885989D01*
X42856997Y-51835667D01*
X42857291Y-51820963D01*
X42854451Y-51769485D01*
X42845931Y-51720018D01*
X42831731Y-51672559D01*
X42821387Y-51647062D01*
X42797216Y-51599401D01*
X42769490Y-51552591D01*
X42741860Y-51511696D01*
X42719294Y-51481465D01*
X42687237Y-51441623D01*
X42653348Y-51402452D01*
X42617628Y-51363954D01*
X42580076Y-51326127D01*
X42540844Y-51288879D01*
X42500330Y-51252365D01*
X42458534Y-51216584D01*
X42415456Y-51181535D01*
X42371568Y-51147264D01*
X42327345Y-51113818D01*
X42282786Y-51081197D01*
X42237891Y-51049399D01*
X42192920Y-51018304D01*
X42148132Y-50988033D01*
X42103527Y-50958587D01*
X42059106Y-50929965D01*
X42015203Y-50902090D01*
X41972399Y-50875132D01*
X41930695Y-50849090D01*
X41890089Y-50823963D01*
X41847564Y-50797737D01*
X41830983Y-50787571D01*
X41788554Y-50761646D01*
X41784577Y-50759239D01*
X41743788Y-50733838D01*
X41717410Y-50716496D01*
X41765729Y-50708792D01*
X41816715Y-50702440D01*
X41870366Y-50697440D01*
X41901325Y-50695247D01*
X41950753Y-50692469D01*
X42004828Y-50690292D01*
X42057279Y-50689120D01*
X42091346Y-50688897D01*
X42142848Y-50689303D01*
X42196811Y-50690705D01*
X42247339Y-50693109D01*
X42261827Y-50694026D01*
X42311355Y-50697125D01*
X42362073Y-50700117D01*
X42389078Y-50701598D01*
X42439380Y-50703601D01*
X42445498Y-50703796D01*
X42475540Y-50702819D01*
X42518072Y-50677378D01*
X42519748Y-50673510D01*
X42519259Y-50626127D01*
X42487317Y-50588402D01*
X42450383Y-50568241D01*
X42402858Y-50550072D01*
X42352717Y-50535287D01*
X42307012Y-50524521D01*
X42257772Y-50514973D01*
X42205672Y-50506661D01*
X42156961Y-50500311D01*
X42118945Y-50496189D01*
X42067486Y-50491594D01*
X42016180Y-50488312D01*
X41965026Y-50486343D01*
X41914025Y-50485687D01*
X41864442Y-50486305D01*
X41810346Y-50488442D01*
X41757299Y-50492106D01*
X41741590Y-50493503D01*
X41691544Y-50499952D01*
X41641838Y-50511014D01*
X41597731Y-50526231D01*
X41623376Y-50510844D01*
X41593579Y-50525987D01*
X41590403Y-50520125D01*
X41540841Y-50523541D01*
X41538868Y-50524521D01*
X41503942Y-50554075D01*
X41474728Y-50594639D01*
X41473900Y-50596085D01*
X41454322Y-50642381D01*
X41453383Y-50645666D01*
X41446085Y-50694667D01*
X41446056Y-50697934D01*
X41448987Y-50729441D01*
X41458024Y-50761193D01*
X41491315Y-50798789D01*
X41533739Y-50830069D01*
X41575542Y-50857861D01*
X41618344Y-50886545D01*
X41660510Y-50914961D01*
X41688833Y-50934117D01*
X41730343Y-50961738D01*
X41774365Y-50991021D01*
X41815604Y-51018444D01*
X41847835Y-51039874D01*
X41891723Y-51069397D01*
X41936190Y-51100080D01*
X41981238Y-51131923D01*
X42021130Y-51160737D01*
X42026865Y-51164926D01*
X42067020Y-51194555D01*
X42107128Y-51224886D01*
X42147189Y-51255918D01*
X42187203Y-51287651D01*
X42210048Y-51306099D01*
X42249498Y-51338698D01*
X42287919Y-51371742D01*
X42325312Y-51405229D01*
X42361677Y-51439161D01*
X42381995Y-51458750D01*
X42416461Y-51493392D01*
X42454162Y-51533555D01*
X42490062Y-51574328D01*
X42524160Y-51615712D01*
X42528296Y-51620928D01*
X42559468Y-51662754D01*
X42587281Y-51704703D01*
X42614556Y-51752041D01*
X42632832Y-51788967D01*
X42650662Y-51811926D01*
X42646754Y-51790676D01*
X42642846Y-51789944D01*
X42638450Y-51790676D01*
X42586914Y-51783349D01*
X42537651Y-51779781D01*
X42484809Y-51776403D01*
X42434193Y-51773527D01*
X42416677Y-51772602D01*
X42362620Y-51770123D01*
X42313077Y-51768600D01*
X42262129Y-51767719D01*
X42216398Y-51767473D01*
X42165297Y-51767937D01*
X42113384Y-51769328D01*
X42060659Y-51771646D01*
X42031018Y-51773335D01*
X41977591Y-51777210D01*
X41924474Y-51782514D01*
X41871666Y-51789248D01*
X41842462Y-51793607D01*
X41790309Y-51802621D01*
X41738812Y-51813451D01*
X41687973Y-51826097D01*
X41660013Y-51833907D01*
X41610502Y-51849767D01*
X41562537Y-51867945D01*
X41516117Y-51888441D01*
X41490997Y-51900830D01*
G37*
M02*
