%TF.GenerationSoftware,KiCad,Pcbnew,8.0.1*%
%TF.CreationDate,2024-04-07T04:16:07+01:00*%
%TF.ProjectId,pcb,7063622e-6b69-4636-9164-5f7063625858,rev?*%
%TF.SameCoordinates,Original*%
%TF.FileFunction,Soldermask,Top*%
%TF.FilePolarity,Negative*%
%FSLAX46Y46*%
G04 Gerber Fmt 4.6, Leading zero omitted, Abs format (unit mm)*
G04 Created by KiCad (PCBNEW 8.0.1) date 2024-04-07 04:16:07*
%MOMM*%
%LPD*%
G01*
G04 APERTURE LIST*
G04 Aperture macros list*
%AMRoundRect*
0 Rectangle with rounded corners*
0 $1 Rounding radius*
0 $2 $3 $4 $5 $6 $7 $8 $9 X,Y pos of 4 corners*
0 Add a 4 corners polygon primitive as box body*
4,1,4,$2,$3,$4,$5,$6,$7,$8,$9,$2,$3,0*
0 Add four circle primitives for the rounded corners*
1,1,$1+$1,$2,$3*
1,1,$1+$1,$4,$5*
1,1,$1+$1,$6,$7*
1,1,$1+$1,$8,$9*
0 Add four rect primitives between the rounded corners*
20,1,$1+$1,$2,$3,$4,$5,0*
20,1,$1+$1,$4,$5,$6,$7,0*
20,1,$1+$1,$6,$7,$8,$9,0*
20,1,$1+$1,$8,$9,$2,$3,0*%
G04 Aperture macros list end*
%ADD10R,3.000000X1.000000*%
%ADD11O,1.700000X1.700000*%
%ADD12R,1.700000X1.700000*%
%ADD13RoundRect,0.200000X-0.200000X-0.275000X0.200000X-0.275000X0.200000X0.275000X-0.200000X0.275000X0*%
%ADD14O,2.700000X1.600200*%
%ADD15O,1.574800X2.700000*%
G04 APERTURE END LIST*
D10*
%TO.C,REF\u002A\u002A*%
X62000000Y-24500000D03*
%TD*%
D11*
%TO.C,REF\u002A\u002A*%
X64500000Y-40030000D03*
D12*
X61960000Y-40030000D03*
D11*
X64500000Y-37490000D03*
X61960000Y-37490000D03*
X64500000Y-34950000D03*
X61960000Y-34950000D03*
X64500000Y-32410000D03*
X61960000Y-32410000D03*
X64500000Y-29870000D03*
X61960000Y-29870000D03*
X64500000Y-27330000D03*
X61960000Y-27330000D03*
%TD*%
D13*
%TO.C,100*%
X57050000Y-34900000D03*
X58700000Y-34900000D03*
%TD*%
%TO.C,100*%
X57000000Y-30000000D03*
X58650000Y-30000000D03*
%TD*%
D14*
%TO.C,REF\u002A\u002A*%
X54350000Y-27300000D03*
X54350000Y-29840000D03*
X54350000Y-32380000D03*
X54350000Y-34920000D03*
X54350000Y-37460000D03*
X54350000Y-40000000D03*
X54350000Y-42540000D03*
X54350000Y-45080000D03*
X54350000Y-47620000D03*
D15*
X51210000Y-48430000D03*
X48670000Y-48430000D03*
X46130000Y-48430000D03*
X43590000Y-48430000D03*
X41050000Y-48430000D03*
D14*
X37910000Y-47620000D03*
X37910000Y-45080000D03*
X37910000Y-42540000D03*
X37910000Y-40000000D03*
X37910000Y-37460000D03*
X37910000Y-34920000D03*
X37910000Y-32380000D03*
X37910000Y-29840000D03*
X37910000Y-27300000D03*
%TD*%
D13*
%TO.C,100*%
X57050000Y-32500000D03*
X58700000Y-32500000D03*
%TD*%
%TO.C,100*%
X57000000Y-27300000D03*
X58650000Y-27300000D03*
%TD*%
M02*
