%TF.GenerationSoftware,KiCad,Pcbnew,8.0.1*%
%TF.CreationDate,2024-03-19T13:28:27+00:00*%
%TF.ProjectId,pcb,7063622e-6b69-4636-9164-5f7063625858,rev?*%
%TF.SameCoordinates,Original*%
%TF.FileFunction,Copper,L1,Top*%
%TF.FilePolarity,Positive*%
%FSLAX46Y46*%
G04 Gerber Fmt 4.6, Leading zero omitted, Abs format (unit mm)*
G04 Created by KiCad (PCBNEW 8.0.1) date 2024-03-19 13:28:27*
%MOMM*%
%LPD*%
G01*
G04 APERTURE LIST*
G04 Aperture macros list*
%AMRoundRect*
0 Rectangle with rounded corners*
0 $1 Rounding radius*
0 $2 $3 $4 $5 $6 $7 $8 $9 X,Y pos of 4 corners*
0 Add a 4 corners polygon primitive as box body*
4,1,4,$2,$3,$4,$5,$6,$7,$8,$9,$2,$3,0*
0 Add four circle primitives for the rounded corners*
1,1,$1+$1,$2,$3*
1,1,$1+$1,$4,$5*
1,1,$1+$1,$6,$7*
1,1,$1+$1,$8,$9*
0 Add four rect primitives between the rounded corners*
20,1,$1+$1,$2,$3,$4,$5,0*
20,1,$1+$1,$4,$5,$6,$7,0*
20,1,$1+$1,$6,$7,$8,$9,0*
20,1,$1+$1,$8,$9,$2,$3,0*%
G04 Aperture macros list end*
%TA.AperFunction,SMDPad,CuDef*%
%ADD10RoundRect,0.200000X-0.200000X-0.275000X0.200000X-0.275000X0.200000X0.275000X-0.200000X0.275000X0*%
%TD*%
%TA.AperFunction,SMDPad,CuDef*%
%ADD11O,2.700000X1.600200*%
%TD*%
%TA.AperFunction,SMDPad,CuDef*%
%ADD12O,1.574800X2.700000*%
%TD*%
%TA.AperFunction,ComponentPad*%
%ADD13O,1.700000X1.700000*%
%TD*%
%TA.AperFunction,ComponentPad*%
%ADD14R,1.700000X1.700000*%
%TD*%
%TA.AperFunction,ViaPad*%
%ADD15C,0.600000*%
%TD*%
%TA.AperFunction,Conductor*%
%ADD16C,0.200000*%
%TD*%
G04 APERTURE END LIST*
D10*
%TO.P,100\u03A9,1*%
%TO.N,GPIO1*%
X57975000Y-29850000D03*
%TO.P,100\u03A9,2*%
%TO.N,LAD1*%
X59625000Y-29850000D03*
%TD*%
D11*
%TO.P,REF\u002A\u002A,1*%
%TO.N,GPIO0*%
X54350000Y-27300000D03*
%TO.P,REF\u002A\u002A,2*%
%TO.N,GPIO1*%
X54350000Y-29840000D03*
%TO.P,REF\u002A\u002A,3*%
%TO.N,GPIO2*%
X54350000Y-32380000D03*
%TO.P,REF\u002A\u002A,4*%
%TO.N,GPIO3*%
X54350000Y-34920000D03*
%TO.P,REF\u002A\u002A,5*%
%TO.N,GPIO4*%
X54350000Y-37460000D03*
%TO.P,REF\u002A\u002A,6*%
%TO.N,GPIO5*%
X54350000Y-40000000D03*
%TO.P,REF\u002A\u002A,7*%
%TO.N,GPIO6*%
X54350000Y-42540000D03*
%TO.P,REF\u002A\u002A,8*%
%TO.N,GPIO7*%
X54350000Y-45080000D03*
%TO.P,REF\u002A\u002A,9*%
%TO.N,N/C*%
X54350000Y-47620000D03*
D12*
%TO.P,REF\u002A\u002A,10*%
X51210000Y-48430000D03*
%TO.P,REF\u002A\u002A,11*%
X48670000Y-48430000D03*
%TO.P,REF\u002A\u002A,12*%
X46130000Y-48430000D03*
%TO.P,REF\u002A\u002A,13*%
X43590000Y-48430000D03*
%TO.P,REF\u002A\u002A,14*%
X41050000Y-48430000D03*
D11*
%TO.P,REF\u002A\u002A,15*%
X37910000Y-47620000D03*
%TO.P,REF\u002A\u002A,16*%
X37910000Y-45080000D03*
%TO.P,REF\u002A\u002A,17*%
X37910000Y-42540000D03*
%TO.P,REF\u002A\u002A,18*%
X37910000Y-40000000D03*
%TO.P,REF\u002A\u002A,19*%
X37910000Y-37460000D03*
%TO.P,REF\u002A\u002A,20*%
X37910000Y-34920000D03*
%TO.P,REF\u002A\u002A,21*%
X37910000Y-32380000D03*
%TO.P,REF\u002A\u002A,22*%
%TO.N,GND*%
X37910000Y-29840000D03*
%TO.P,REF\u002A\u002A,23*%
%TO.N,+5V*%
X37910000Y-27300000D03*
%TD*%
D13*
%TO.P,REF\u002A\u002A,1*%
%TO.N,GPIO4*%
X66990000Y-40030000D03*
D14*
%TO.P,REF\u002A\u002A,2*%
%TO.N,GND*%
X64450000Y-40030000D03*
D13*
%TO.P,REF\u002A\u002A,3*%
%TO.N,GPIO5*%
X66990000Y-37490000D03*
%TO.P,REF\u002A\u002A,4*%
%TO.N,N/C*%
X64450000Y-37490000D03*
%TO.P,REF\u002A\u002A,5*%
X66990000Y-34950000D03*
%TO.P,REF\u002A\u002A,6*%
%TO.N,+5V*%
X64450000Y-34950000D03*
%TO.P,REF\u002A\u002A,7*%
%TO.N,LAD3*%
X66990000Y-32410000D03*
%TO.P,REF\u002A\u002A,8*%
%TO.N,LAD2*%
X64450000Y-32410000D03*
%TO.P,REF\u002A\u002A,9*%
%TO.N,N/C*%
X66990000Y-29870000D03*
%TO.P,REF\u002A\u002A,10*%
%TO.N,LAD1*%
X64450000Y-29870000D03*
%TO.P,REF\u002A\u002A,11*%
%TO.N,LAD0*%
X66990000Y-27330000D03*
%TO.P,REF\u002A\u002A,12*%
%TO.N,N/C*%
X64450000Y-27330000D03*
%TD*%
D10*
%TO.P,100\u03A9,1*%
%TO.N,GPIO2*%
X58025000Y-32400000D03*
%TO.P,100\u03A9,2*%
%TO.N,LAD2*%
X59675000Y-32400000D03*
%TD*%
%TO.P,100\u03A9,1*%
%TO.N,GPIO0*%
X57975000Y-27300000D03*
%TO.P,100\u03A9,2*%
%TO.N,LAD0*%
X59625000Y-27300000D03*
%TD*%
%TO.P,100\u03A9,1*%
%TO.N,GPIO3*%
X58025000Y-34900000D03*
%TO.P,100\u03A9,2*%
%TO.N,LAD3*%
X59675000Y-34900000D03*
%TD*%
D15*
%TO.N,+5V*%
X37900000Y-25750000D03*
%TO.N,GND*%
X36000000Y-30500000D03*
X36000000Y-29500000D03*
X36000000Y-30000000D03*
%TD*%
D16*
%TO.N,GPIO0*%
X53750000Y-27300000D02*
X57975000Y-27300000D01*
%TO.N,GPIO1*%
X53760000Y-29850000D02*
X57975000Y-29850000D01*
X53750000Y-29840000D02*
X53760000Y-29850000D01*
%TO.N,GPIO2*%
X53770000Y-32400000D02*
X58025000Y-32400000D01*
X53750000Y-32380000D02*
X53770000Y-32400000D01*
%TO.N,GPIO3*%
X53750000Y-34920000D02*
X53770000Y-34900000D01*
X53770000Y-34900000D02*
X58025000Y-34900000D01*
%TO.N,LAD1*%
X59625000Y-29850000D02*
X64430000Y-29850000D01*
X64430000Y-29850000D02*
X64450000Y-29870000D01*
%TO.N,LAD0*%
X59625000Y-27300000D02*
X60700000Y-27300000D01*
X65660000Y-26000000D02*
X66990000Y-27330000D01*
X62000000Y-26000000D02*
X65660000Y-26000000D01*
X60700000Y-27300000D02*
X62000000Y-26000000D01*
%TO.N,LAD2*%
X64440000Y-32400000D02*
X64450000Y-32410000D01*
X59675000Y-32400000D02*
X64440000Y-32400000D01*
%TO.N,LAD3*%
X59675000Y-34900000D02*
X62600000Y-34900000D01*
X63700000Y-33800000D02*
X65600000Y-33800000D01*
X62600000Y-34900000D02*
X63700000Y-33800000D01*
X65600000Y-33800000D02*
X66990000Y-32410000D01*
%TO.N,GPIO4*%
X61000000Y-37500000D02*
X53790000Y-37500000D01*
X67700000Y-36200000D02*
X62300000Y-36200000D01*
X68500000Y-37000000D02*
X67700000Y-36200000D01*
X68500000Y-38520000D02*
X68500000Y-37000000D01*
X53790000Y-37500000D02*
X53750000Y-37460000D01*
X66990000Y-40030000D02*
X68500000Y-38520000D01*
X62300000Y-36200000D02*
X61000000Y-37500000D01*
%TO.N,GPIO5*%
X66990000Y-37490000D02*
X65680000Y-38800000D01*
X62200000Y-38800000D02*
X61000000Y-40000000D01*
X61000000Y-40000000D02*
X53750000Y-40000000D01*
X65680000Y-38800000D02*
X62200000Y-38800000D01*
%TO.N,+5V*%
X37900000Y-26690000D02*
X37900000Y-25750000D01*
X38510000Y-27300000D02*
X37900000Y-26690000D01*
%TD*%
%TA.AperFunction,Conductor*%
%TO.N,GND*%
G36*
X68627630Y-24020185D02*
G01*
X68673385Y-24072989D01*
X68684590Y-24124408D01*
X68689352Y-30648406D01*
X68693497Y-36327652D01*
X68673861Y-36394705D01*
X68621091Y-36440499D01*
X68551940Y-36450493D01*
X68488363Y-36421514D01*
X68481816Y-36415423D01*
X67945915Y-35879522D01*
X67945913Y-35879520D01*
X67945910Y-35879518D01*
X67945906Y-35879515D01*
X67916889Y-35862762D01*
X67868674Y-35812195D01*
X67855452Y-35743588D01*
X67879935Y-35680651D01*
X67972366Y-35558255D01*
X68067405Y-35367389D01*
X68125756Y-35162310D01*
X68145429Y-34950000D01*
X68125756Y-34737690D01*
X68067405Y-34532611D01*
X68067403Y-34532606D01*
X68067403Y-34532605D01*
X67972367Y-34341746D01*
X67843872Y-34171593D01*
X67792215Y-34124501D01*
X67686302Y-34027948D01*
X67505019Y-33915702D01*
X67505017Y-33915701D01*
X67326389Y-33846501D01*
X67306198Y-33838679D01*
X67109385Y-33801888D01*
X67047106Y-33770221D01*
X67011833Y-33709908D01*
X67014767Y-33640100D01*
X67054976Y-33582960D01*
X67109384Y-33558111D01*
X67306198Y-33521321D01*
X67505019Y-33444298D01*
X67686302Y-33332052D01*
X67843872Y-33188407D01*
X67972366Y-33018255D01*
X68022621Y-32917328D01*
X68067403Y-32827394D01*
X68067403Y-32827393D01*
X68067405Y-32827389D01*
X68125756Y-32622310D01*
X68145429Y-32410000D01*
X68125756Y-32197690D01*
X68067405Y-31992611D01*
X68067403Y-31992606D01*
X68067403Y-31992605D01*
X67972367Y-31801746D01*
X67843872Y-31631593D01*
X67836091Y-31624500D01*
X67686302Y-31487948D01*
X67505019Y-31375702D01*
X67505017Y-31375701D01*
X67326389Y-31306501D01*
X67306198Y-31298679D01*
X67109385Y-31261888D01*
X67047106Y-31230221D01*
X67011833Y-31169908D01*
X67014767Y-31100100D01*
X67054976Y-31042960D01*
X67109384Y-31018111D01*
X67306198Y-30981321D01*
X67505019Y-30904298D01*
X67686302Y-30792052D01*
X67843872Y-30648407D01*
X67972366Y-30478255D01*
X68027601Y-30367328D01*
X68067403Y-30287394D01*
X68067403Y-30287393D01*
X68067405Y-30287389D01*
X68125756Y-30082310D01*
X68145429Y-29870000D01*
X68125756Y-29657690D01*
X68067405Y-29452611D01*
X68067403Y-29452606D01*
X68067403Y-29452605D01*
X67972367Y-29261746D01*
X67843872Y-29091593D01*
X67825122Y-29074500D01*
X67686302Y-28947948D01*
X67505019Y-28835702D01*
X67505017Y-28835701D01*
X67326389Y-28766501D01*
X67306198Y-28758679D01*
X67109385Y-28721888D01*
X67047106Y-28690221D01*
X67011833Y-28629908D01*
X67014767Y-28560100D01*
X67054976Y-28502960D01*
X67109384Y-28478111D01*
X67306198Y-28441321D01*
X67505019Y-28364298D01*
X67686302Y-28252052D01*
X67843872Y-28108407D01*
X67972366Y-27938255D01*
X68002949Y-27876835D01*
X68067403Y-27747394D01*
X68067403Y-27747393D01*
X68067405Y-27747389D01*
X68125756Y-27542310D01*
X68145429Y-27330000D01*
X68125756Y-27117690D01*
X68067405Y-26912611D01*
X68067403Y-26912606D01*
X68067403Y-26912605D01*
X67972367Y-26721746D01*
X67843872Y-26551593D01*
X67833510Y-26542147D01*
X67686302Y-26407948D01*
X67505019Y-26295702D01*
X67505017Y-26295701D01*
X67326389Y-26226501D01*
X67306198Y-26218679D01*
X67096610Y-26179500D01*
X66883390Y-26179500D01*
X66673802Y-26218679D01*
X66673797Y-26218680D01*
X66584280Y-26253359D01*
X66514657Y-26259221D01*
X66452917Y-26226510D01*
X66451806Y-26225413D01*
X65905915Y-25679522D01*
X65905913Y-25679520D01*
X65860250Y-25653156D01*
X65814589Y-25626793D01*
X65763657Y-25613146D01*
X65712727Y-25599500D01*
X65712726Y-25599500D01*
X62060339Y-25599500D01*
X62060323Y-25599499D01*
X62052727Y-25599499D01*
X61947273Y-25599499D01*
X61864144Y-25621774D01*
X61864143Y-25621773D01*
X61845415Y-25626792D01*
X61845410Y-25626794D01*
X61754085Y-25679521D01*
X60570426Y-26863181D01*
X60509103Y-26896666D01*
X60482745Y-26899500D01*
X60398467Y-26899500D01*
X60331428Y-26879815D01*
X60285673Y-26827011D01*
X60282285Y-26818834D01*
X60268796Y-26782669D01*
X60268793Y-26782664D01*
X60182547Y-26667455D01*
X60182544Y-26667452D01*
X60067335Y-26581206D01*
X60067328Y-26581202D01*
X59932486Y-26530910D01*
X59932485Y-26530909D01*
X59932483Y-26530909D01*
X59872873Y-26524500D01*
X59872863Y-26524500D01*
X59377129Y-26524500D01*
X59377123Y-26524501D01*
X59317516Y-26530908D01*
X59182671Y-26581202D01*
X59182664Y-26581206D01*
X59067455Y-26667452D01*
X59067452Y-26667455D01*
X58981206Y-26782664D01*
X58981202Y-26782671D01*
X58930910Y-26917513D01*
X58930909Y-26917517D01*
X58924500Y-26977127D01*
X58924500Y-26977134D01*
X58924500Y-26977135D01*
X58924500Y-27622870D01*
X58924501Y-27622876D01*
X58930908Y-27682483D01*
X58981202Y-27817328D01*
X58981206Y-27817335D01*
X59067452Y-27932544D01*
X59067455Y-27932547D01*
X59182664Y-28018793D01*
X59182671Y-28018797D01*
X59227618Y-28035561D01*
X59317517Y-28069091D01*
X59377127Y-28075500D01*
X59872872Y-28075499D01*
X59932483Y-28069091D01*
X60067331Y-28018796D01*
X60182546Y-27932546D01*
X60268796Y-27817331D01*
X60282285Y-27781166D01*
X60324157Y-27725233D01*
X60389621Y-27700816D01*
X60398467Y-27700500D01*
X60752725Y-27700500D01*
X60752727Y-27700500D01*
X60854588Y-27673207D01*
X60945913Y-27620480D01*
X62129573Y-26436818D01*
X62190896Y-26403334D01*
X62217254Y-26400500D01*
X63461202Y-26400500D01*
X63528241Y-26420185D01*
X63573996Y-26472989D01*
X63583940Y-26542147D01*
X63560156Y-26599227D01*
X63467632Y-26721746D01*
X63372596Y-26912605D01*
X63372596Y-26912607D01*
X63314244Y-27117689D01*
X63306420Y-27202131D01*
X63294571Y-27330000D01*
X63314244Y-27542310D01*
X63359253Y-27700499D01*
X63372596Y-27747392D01*
X63372596Y-27747394D01*
X63467632Y-27938253D01*
X63596127Y-28108406D01*
X63596128Y-28108407D01*
X63753698Y-28252052D01*
X63934981Y-28364298D01*
X64133802Y-28441321D01*
X64330613Y-28478111D01*
X64392893Y-28509779D01*
X64428166Y-28570092D01*
X64425232Y-28639900D01*
X64385023Y-28697040D01*
X64330613Y-28721888D01*
X64133802Y-28758679D01*
X64133799Y-28758679D01*
X64133799Y-28758680D01*
X63934982Y-28835701D01*
X63934980Y-28835702D01*
X63753699Y-28947947D01*
X63596127Y-29091593D01*
X63467635Y-29261742D01*
X63466929Y-29263160D01*
X63408365Y-29380774D01*
X63360865Y-29432008D01*
X63297367Y-29449500D01*
X60398467Y-29449500D01*
X60331428Y-29429815D01*
X60285673Y-29377011D01*
X60282285Y-29368834D01*
X60268796Y-29332669D01*
X60268793Y-29332664D01*
X60182547Y-29217455D01*
X60182544Y-29217452D01*
X60067335Y-29131206D01*
X60067328Y-29131202D01*
X59932486Y-29080910D01*
X59932485Y-29080909D01*
X59932483Y-29080909D01*
X59872873Y-29074500D01*
X59872863Y-29074500D01*
X59377129Y-29074500D01*
X59377123Y-29074501D01*
X59317516Y-29080908D01*
X59182671Y-29131202D01*
X59182664Y-29131206D01*
X59067455Y-29217452D01*
X59067452Y-29217455D01*
X58981206Y-29332664D01*
X58981202Y-29332671D01*
X58930910Y-29467513D01*
X58930909Y-29467517D01*
X58924500Y-29527127D01*
X58924500Y-29527134D01*
X58924500Y-29527135D01*
X58924500Y-30172870D01*
X58924501Y-30172876D01*
X58930908Y-30232483D01*
X58981202Y-30367328D01*
X58981206Y-30367335D01*
X59067452Y-30482544D01*
X59067455Y-30482547D01*
X59182664Y-30568793D01*
X59182671Y-30568797D01*
X59227618Y-30585561D01*
X59317517Y-30619091D01*
X59377127Y-30625500D01*
X59872872Y-30625499D01*
X59932483Y-30619091D01*
X60067331Y-30568796D01*
X60182546Y-30482546D01*
X60268796Y-30367331D01*
X60275547Y-30349229D01*
X60282285Y-30331166D01*
X60324157Y-30275233D01*
X60389621Y-30250816D01*
X60398467Y-30250500D01*
X63277449Y-30250500D01*
X63344488Y-30270185D01*
X63388448Y-30319227D01*
X63450954Y-30444757D01*
X63467635Y-30478257D01*
X63578829Y-30625500D01*
X63596128Y-30648407D01*
X63753698Y-30792052D01*
X63934981Y-30904298D01*
X64133802Y-30981321D01*
X64330613Y-31018111D01*
X64392893Y-31049779D01*
X64428166Y-31110092D01*
X64425232Y-31179900D01*
X64385023Y-31237040D01*
X64330613Y-31261888D01*
X64133802Y-31298679D01*
X64133799Y-31298679D01*
X64133799Y-31298680D01*
X63934982Y-31375701D01*
X63934980Y-31375702D01*
X63753699Y-31487947D01*
X63596127Y-31631593D01*
X63467632Y-31801746D01*
X63403387Y-31930771D01*
X63355885Y-31982008D01*
X63292387Y-31999500D01*
X60448467Y-31999500D01*
X60381428Y-31979815D01*
X60335673Y-31927011D01*
X60332285Y-31918834D01*
X60318796Y-31882669D01*
X60318793Y-31882664D01*
X60232547Y-31767455D01*
X60232544Y-31767452D01*
X60117335Y-31681206D01*
X60117328Y-31681202D01*
X59982486Y-31630910D01*
X59982485Y-31630909D01*
X59982483Y-31630909D01*
X59922873Y-31624500D01*
X59922863Y-31624500D01*
X59427129Y-31624500D01*
X59427123Y-31624501D01*
X59367516Y-31630908D01*
X59232671Y-31681202D01*
X59232664Y-31681206D01*
X59117455Y-31767452D01*
X59117452Y-31767455D01*
X59031206Y-31882664D01*
X59031202Y-31882671D01*
X58980910Y-32017513D01*
X58980909Y-32017517D01*
X58974500Y-32077127D01*
X58974500Y-32077134D01*
X58974500Y-32077135D01*
X58974500Y-32722870D01*
X58974501Y-32722876D01*
X58980908Y-32782483D01*
X59031202Y-32917328D01*
X59031206Y-32917335D01*
X59117452Y-33032544D01*
X59117455Y-33032547D01*
X59232664Y-33118793D01*
X59232671Y-33118797D01*
X59277618Y-33135561D01*
X59367517Y-33169091D01*
X59427127Y-33175500D01*
X59922872Y-33175499D01*
X59982483Y-33169091D01*
X60117331Y-33118796D01*
X60232546Y-33032546D01*
X60318796Y-32917331D01*
X60332285Y-32881166D01*
X60374157Y-32825233D01*
X60439621Y-32800816D01*
X60448467Y-32800500D01*
X63282428Y-32800500D01*
X63349467Y-32820185D01*
X63393428Y-32869229D01*
X63467632Y-33018253D01*
X63596129Y-33188409D01*
X63619161Y-33209405D01*
X63655443Y-33269116D01*
X63653682Y-33338964D01*
X63614438Y-33396771D01*
X63567718Y-33420815D01*
X63545412Y-33426793D01*
X63545410Y-33426793D01*
X63545410Y-33426794D01*
X63454087Y-33479520D01*
X63454084Y-33479522D01*
X62470426Y-34463181D01*
X62409103Y-34496666D01*
X62382745Y-34499500D01*
X60448467Y-34499500D01*
X60381428Y-34479815D01*
X60335673Y-34427011D01*
X60332285Y-34418834D01*
X60318796Y-34382669D01*
X60318793Y-34382664D01*
X60232547Y-34267455D01*
X60232544Y-34267452D01*
X60117335Y-34181206D01*
X60117328Y-34181202D01*
X59982486Y-34130910D01*
X59982485Y-34130909D01*
X59982483Y-34130909D01*
X59922873Y-34124500D01*
X59922863Y-34124500D01*
X59427129Y-34124500D01*
X59427123Y-34124501D01*
X59367516Y-34130908D01*
X59232671Y-34181202D01*
X59232664Y-34181206D01*
X59117455Y-34267452D01*
X59117452Y-34267455D01*
X59031206Y-34382664D01*
X59031202Y-34382671D01*
X58980910Y-34517513D01*
X58980909Y-34517517D01*
X58974500Y-34577127D01*
X58974500Y-34577134D01*
X58974500Y-34577135D01*
X58974500Y-35222870D01*
X58974501Y-35222876D01*
X58980908Y-35282483D01*
X59031202Y-35417328D01*
X59031206Y-35417335D01*
X59117452Y-35532544D01*
X59117455Y-35532547D01*
X59232664Y-35618793D01*
X59232671Y-35618797D01*
X59277618Y-35635561D01*
X59367517Y-35669091D01*
X59427127Y-35675500D01*
X59922872Y-35675499D01*
X59982483Y-35669091D01*
X60117331Y-35618796D01*
X60232546Y-35532546D01*
X60318796Y-35417331D01*
X60332285Y-35381166D01*
X60374157Y-35325233D01*
X60439621Y-35300816D01*
X60448467Y-35300500D01*
X62652725Y-35300500D01*
X62652727Y-35300500D01*
X62754588Y-35273207D01*
X62845913Y-35220480D01*
X63092684Y-34973708D01*
X63154002Y-34940226D01*
X63223694Y-34945210D01*
X63279628Y-34987081D01*
X63303832Y-35049950D01*
X63311837Y-35136334D01*
X63314244Y-35162310D01*
X63345797Y-35273207D01*
X63372596Y-35367392D01*
X63372596Y-35367394D01*
X63454833Y-35532547D01*
X63467634Y-35558255D01*
X63485701Y-35582180D01*
X63499742Y-35600773D01*
X63524434Y-35666135D01*
X63509869Y-35734469D01*
X63460671Y-35784082D01*
X63400788Y-35799500D01*
X62360339Y-35799500D01*
X62360323Y-35799499D01*
X62352727Y-35799499D01*
X62247273Y-35799499D01*
X62179366Y-35817695D01*
X62145412Y-35826793D01*
X62054084Y-35879522D01*
X60870426Y-37063181D01*
X60809103Y-37096666D01*
X60782745Y-37099500D01*
X56027435Y-37099500D01*
X55960396Y-37079815D01*
X55916952Y-37031797D01*
X55841217Y-36883160D01*
X55739390Y-36743007D01*
X55616893Y-36620510D01*
X55476740Y-36518683D01*
X55322384Y-36440033D01*
X55322381Y-36440032D01*
X55157625Y-36386501D01*
X55072071Y-36372950D01*
X54986519Y-36359400D01*
X53713481Y-36359400D01*
X53656446Y-36368433D01*
X53542374Y-36386501D01*
X53377618Y-36440032D01*
X53377615Y-36440033D01*
X53223259Y-36518683D01*
X53143297Y-36576779D01*
X53083107Y-36620510D01*
X53083105Y-36620512D01*
X53083104Y-36620512D01*
X52960612Y-36743004D01*
X52960612Y-36743005D01*
X52960610Y-36743007D01*
X52919764Y-36799227D01*
X52858783Y-36883159D01*
X52780133Y-37037515D01*
X52780132Y-37037518D01*
X52726601Y-37202274D01*
X52716973Y-37263063D01*
X52687044Y-37326198D01*
X52627732Y-37363129D01*
X52557870Y-37362131D01*
X52499637Y-37323521D01*
X52471523Y-37259557D01*
X52470500Y-37243665D01*
X52470500Y-35136334D01*
X52490185Y-35069295D01*
X52542989Y-35023540D01*
X52612147Y-35013596D01*
X52675703Y-35042621D01*
X52713477Y-35101399D01*
X52716973Y-35116936D01*
X52726601Y-35177725D01*
X52780132Y-35342481D01*
X52780133Y-35342484D01*
X52858783Y-35496840D01*
X52960610Y-35636993D01*
X53083107Y-35759490D01*
X53223260Y-35861317D01*
X53298966Y-35899891D01*
X53377615Y-35939966D01*
X53377618Y-35939967D01*
X53459996Y-35966732D01*
X53542376Y-35993499D01*
X53713481Y-36020600D01*
X53713482Y-36020600D01*
X54986518Y-36020600D01*
X54986519Y-36020600D01*
X55157624Y-35993499D01*
X55322384Y-35939966D01*
X55476740Y-35861317D01*
X55616893Y-35759490D01*
X55739390Y-35636993D01*
X55841217Y-35496840D01*
X55906760Y-35368204D01*
X55954735Y-35317409D01*
X56017245Y-35300500D01*
X57251533Y-35300500D01*
X57318572Y-35320185D01*
X57364327Y-35372989D01*
X57367715Y-35381166D01*
X57381203Y-35417330D01*
X57381206Y-35417335D01*
X57467452Y-35532544D01*
X57467455Y-35532547D01*
X57582664Y-35618793D01*
X57582671Y-35618797D01*
X57627618Y-35635561D01*
X57717517Y-35669091D01*
X57777127Y-35675500D01*
X58272872Y-35675499D01*
X58332483Y-35669091D01*
X58467331Y-35618796D01*
X58582546Y-35532546D01*
X58668796Y-35417331D01*
X58719091Y-35282483D01*
X58725500Y-35222873D01*
X58725499Y-34577128D01*
X58719091Y-34517517D01*
X58712253Y-34499184D01*
X58668797Y-34382671D01*
X58668793Y-34382664D01*
X58582547Y-34267455D01*
X58582544Y-34267452D01*
X58467335Y-34181206D01*
X58467328Y-34181202D01*
X58332486Y-34130910D01*
X58332485Y-34130909D01*
X58332483Y-34130909D01*
X58272873Y-34124500D01*
X58272863Y-34124500D01*
X57777129Y-34124500D01*
X57777123Y-34124501D01*
X57717516Y-34130908D01*
X57582671Y-34181202D01*
X57582664Y-34181206D01*
X57467455Y-34267452D01*
X57467452Y-34267455D01*
X57381206Y-34382664D01*
X57381203Y-34382669D01*
X57367715Y-34418834D01*
X57325843Y-34474767D01*
X57260379Y-34499184D01*
X57251533Y-34499500D01*
X55996864Y-34499500D01*
X55929825Y-34479815D01*
X55886379Y-34431795D01*
X55841217Y-34343160D01*
X55739390Y-34203007D01*
X55616893Y-34080510D01*
X55476740Y-33978683D01*
X55322384Y-33900033D01*
X55322381Y-33900032D01*
X55157625Y-33846501D01*
X55072071Y-33832950D01*
X54986519Y-33819400D01*
X53713481Y-33819400D01*
X53656446Y-33828433D01*
X53542374Y-33846501D01*
X53377618Y-33900032D01*
X53377615Y-33900033D01*
X53223259Y-33978683D01*
X53178760Y-34011014D01*
X53083107Y-34080510D01*
X53083105Y-34080512D01*
X53083104Y-34080512D01*
X52960612Y-34203004D01*
X52960612Y-34203005D01*
X52960610Y-34203007D01*
X52929017Y-34246491D01*
X52858783Y-34343159D01*
X52780133Y-34497515D01*
X52780132Y-34497518D01*
X52726601Y-34662274D01*
X52716973Y-34723063D01*
X52687044Y-34786198D01*
X52627732Y-34823129D01*
X52557870Y-34822131D01*
X52499637Y-34783521D01*
X52471523Y-34719557D01*
X52470500Y-34703665D01*
X52470500Y-32596334D01*
X52490185Y-32529295D01*
X52542989Y-32483540D01*
X52612147Y-32473596D01*
X52675703Y-32502621D01*
X52713477Y-32561399D01*
X52716973Y-32576936D01*
X52726601Y-32637725D01*
X52780132Y-32802481D01*
X52780133Y-32802484D01*
X52838650Y-32917328D01*
X52858783Y-32956840D01*
X52960610Y-33096993D01*
X53083107Y-33219490D01*
X53223260Y-33321317D01*
X53285023Y-33352787D01*
X53377615Y-33399966D01*
X53377618Y-33399967D01*
X53459996Y-33426732D01*
X53542376Y-33453499D01*
X53713481Y-33480600D01*
X53713482Y-33480600D01*
X54986518Y-33480600D01*
X54986519Y-33480600D01*
X55157624Y-33453499D01*
X55322384Y-33399966D01*
X55476740Y-33321317D01*
X55616893Y-33219490D01*
X55739390Y-33096993D01*
X55841217Y-32956840D01*
X55886379Y-32868204D01*
X55934354Y-32817409D01*
X55996864Y-32800500D01*
X57251533Y-32800500D01*
X57318572Y-32820185D01*
X57364327Y-32872989D01*
X57367715Y-32881166D01*
X57381203Y-32917330D01*
X57381206Y-32917335D01*
X57467452Y-33032544D01*
X57467455Y-33032547D01*
X57582664Y-33118793D01*
X57582671Y-33118797D01*
X57627618Y-33135561D01*
X57717517Y-33169091D01*
X57777127Y-33175500D01*
X58272872Y-33175499D01*
X58332483Y-33169091D01*
X58467331Y-33118796D01*
X58582546Y-33032546D01*
X58668796Y-32917331D01*
X58719091Y-32782483D01*
X58725500Y-32722873D01*
X58725499Y-32077128D01*
X58719091Y-32017517D01*
X58712253Y-31999184D01*
X58668797Y-31882671D01*
X58668793Y-31882664D01*
X58582547Y-31767455D01*
X58582544Y-31767452D01*
X58467335Y-31681206D01*
X58467328Y-31681202D01*
X58332486Y-31630910D01*
X58332485Y-31630909D01*
X58332483Y-31630909D01*
X58272873Y-31624500D01*
X58272863Y-31624500D01*
X57777129Y-31624500D01*
X57777123Y-31624501D01*
X57717516Y-31630908D01*
X57582671Y-31681202D01*
X57582664Y-31681206D01*
X57467455Y-31767452D01*
X57467452Y-31767455D01*
X57381206Y-31882664D01*
X57381203Y-31882669D01*
X57367715Y-31918834D01*
X57325843Y-31974767D01*
X57260379Y-31999184D01*
X57251533Y-31999500D01*
X56017245Y-31999500D01*
X55950206Y-31979815D01*
X55906760Y-31931795D01*
X55841217Y-31803160D01*
X55739390Y-31663007D01*
X55616893Y-31540510D01*
X55476740Y-31438683D01*
X55322384Y-31360033D01*
X55322381Y-31360032D01*
X55157625Y-31306501D01*
X55072071Y-31292950D01*
X54986519Y-31279400D01*
X53713481Y-31279400D01*
X53656446Y-31288433D01*
X53542374Y-31306501D01*
X53377618Y-31360032D01*
X53377615Y-31360033D01*
X53223259Y-31438683D01*
X53155454Y-31487947D01*
X53083107Y-31540510D01*
X53083105Y-31540512D01*
X53083104Y-31540512D01*
X52960612Y-31663004D01*
X52960612Y-31663005D01*
X52960610Y-31663007D01*
X52947388Y-31681206D01*
X52858783Y-31803159D01*
X52780133Y-31957515D01*
X52780132Y-31957518D01*
X52726601Y-32122274D01*
X52716973Y-32183063D01*
X52687044Y-32246198D01*
X52627732Y-32283129D01*
X52557870Y-32282131D01*
X52499637Y-32243521D01*
X52471523Y-32179557D01*
X52470500Y-32163665D01*
X52470500Y-30056334D01*
X52490185Y-29989295D01*
X52542989Y-29943540D01*
X52612147Y-29933596D01*
X52675703Y-29962621D01*
X52713477Y-30021399D01*
X52716973Y-30036936D01*
X52726601Y-30097725D01*
X52780132Y-30262481D01*
X52780133Y-30262484D01*
X52858783Y-30416840D01*
X52960610Y-30556993D01*
X53083107Y-30679490D01*
X53223260Y-30781317D01*
X53298966Y-30819891D01*
X53377615Y-30859966D01*
X53377618Y-30859967D01*
X53459996Y-30886732D01*
X53542376Y-30913499D01*
X53713481Y-30940600D01*
X53713482Y-30940600D01*
X54986518Y-30940600D01*
X54986519Y-30940600D01*
X55157624Y-30913499D01*
X55322384Y-30859966D01*
X55476740Y-30781317D01*
X55616893Y-30679490D01*
X55739390Y-30556993D01*
X55841217Y-30416840D01*
X55891475Y-30318203D01*
X55939449Y-30267409D01*
X56001959Y-30250500D01*
X57201533Y-30250500D01*
X57268572Y-30270185D01*
X57314327Y-30322989D01*
X57317715Y-30331166D01*
X57331203Y-30367330D01*
X57331206Y-30367335D01*
X57417452Y-30482544D01*
X57417455Y-30482547D01*
X57532664Y-30568793D01*
X57532671Y-30568797D01*
X57577618Y-30585561D01*
X57667517Y-30619091D01*
X57727127Y-30625500D01*
X58222872Y-30625499D01*
X58282483Y-30619091D01*
X58417331Y-30568796D01*
X58532546Y-30482546D01*
X58618796Y-30367331D01*
X58669091Y-30232483D01*
X58675500Y-30172873D01*
X58675499Y-29527128D01*
X58669091Y-29467517D01*
X58663531Y-29452611D01*
X58618797Y-29332671D01*
X58618793Y-29332664D01*
X58532547Y-29217455D01*
X58532544Y-29217452D01*
X58417335Y-29131206D01*
X58417328Y-29131202D01*
X58282486Y-29080910D01*
X58282485Y-29080909D01*
X58282483Y-29080909D01*
X58222873Y-29074500D01*
X58222863Y-29074500D01*
X57727129Y-29074500D01*
X57727123Y-29074501D01*
X57667516Y-29080908D01*
X57532671Y-29131202D01*
X57532664Y-29131206D01*
X57417455Y-29217452D01*
X57417452Y-29217455D01*
X57331206Y-29332664D01*
X57331203Y-29332669D01*
X57317715Y-29368834D01*
X57275843Y-29424767D01*
X57210379Y-29449184D01*
X57201533Y-29449500D01*
X56012150Y-29449500D01*
X55945111Y-29429815D01*
X55901665Y-29381795D01*
X55841216Y-29263159D01*
X55739390Y-29123007D01*
X55616893Y-29000510D01*
X55476740Y-28898683D01*
X55322384Y-28820033D01*
X55322381Y-28820032D01*
X55157625Y-28766501D01*
X55072071Y-28752950D01*
X54986519Y-28739400D01*
X53713481Y-28739400D01*
X53656446Y-28748433D01*
X53542374Y-28766501D01*
X53377618Y-28820032D01*
X53377615Y-28820033D01*
X53223259Y-28898683D01*
X53155454Y-28947947D01*
X53083107Y-29000510D01*
X53083105Y-29000512D01*
X53083104Y-29000512D01*
X52960612Y-29123004D01*
X52960612Y-29123005D01*
X52960610Y-29123007D01*
X52916879Y-29183197D01*
X52858783Y-29263159D01*
X52780133Y-29417515D01*
X52780132Y-29417518D01*
X52726601Y-29582274D01*
X52716973Y-29643063D01*
X52687044Y-29706198D01*
X52627732Y-29743129D01*
X52557870Y-29742131D01*
X52499637Y-29703521D01*
X52471523Y-29639557D01*
X52470500Y-29623665D01*
X52470500Y-27516334D01*
X52490185Y-27449295D01*
X52542989Y-27403540D01*
X52612147Y-27393596D01*
X52675703Y-27422621D01*
X52713477Y-27481399D01*
X52716973Y-27496936D01*
X52726601Y-27557725D01*
X52780132Y-27722481D01*
X52780133Y-27722484D01*
X52828461Y-27817331D01*
X52858783Y-27876840D01*
X52960610Y-28016993D01*
X53083107Y-28139490D01*
X53223260Y-28241317D01*
X53298966Y-28279891D01*
X53377615Y-28319966D01*
X53377618Y-28319967D01*
X53459996Y-28346732D01*
X53542376Y-28373499D01*
X53713481Y-28400600D01*
X53713482Y-28400600D01*
X54986518Y-28400600D01*
X54986519Y-28400600D01*
X55157624Y-28373499D01*
X55322384Y-28319966D01*
X55476740Y-28241317D01*
X55616893Y-28139490D01*
X55739390Y-28016993D01*
X55841217Y-27876840D01*
X55871539Y-27817331D01*
X55896571Y-27768205D01*
X55944545Y-27717409D01*
X56007055Y-27700500D01*
X57201533Y-27700500D01*
X57268572Y-27720185D01*
X57314327Y-27772989D01*
X57317715Y-27781166D01*
X57331203Y-27817330D01*
X57331206Y-27817335D01*
X57417452Y-27932544D01*
X57417455Y-27932547D01*
X57532664Y-28018793D01*
X57532671Y-28018797D01*
X57577618Y-28035561D01*
X57667517Y-28069091D01*
X57727127Y-28075500D01*
X58222872Y-28075499D01*
X58282483Y-28069091D01*
X58417331Y-28018796D01*
X58532546Y-27932546D01*
X58618796Y-27817331D01*
X58669091Y-27682483D01*
X58675500Y-27622873D01*
X58675499Y-26977128D01*
X58669091Y-26917517D01*
X58667261Y-26912611D01*
X58618797Y-26782671D01*
X58618793Y-26782664D01*
X58532547Y-26667455D01*
X58532544Y-26667452D01*
X58417335Y-26581206D01*
X58417328Y-26581202D01*
X58282486Y-26530910D01*
X58282485Y-26530909D01*
X58282483Y-26530909D01*
X58222873Y-26524500D01*
X58222863Y-26524500D01*
X57727129Y-26524500D01*
X57727123Y-26524501D01*
X57667516Y-26530908D01*
X57532671Y-26581202D01*
X57532664Y-26581206D01*
X57417455Y-26667452D01*
X57417452Y-26667455D01*
X57331206Y-26782664D01*
X57331203Y-26782669D01*
X57317715Y-26818834D01*
X57275843Y-26874767D01*
X57210379Y-26899184D01*
X57201533Y-26899500D01*
X56007055Y-26899500D01*
X55940016Y-26879815D01*
X55896571Y-26831795D01*
X55841220Y-26723164D01*
X55835396Y-26715148D01*
X55739390Y-26583007D01*
X55616893Y-26460510D01*
X55476740Y-26358683D01*
X55322384Y-26280033D01*
X55322381Y-26280032D01*
X55157625Y-26226501D01*
X55072071Y-26212950D01*
X54986519Y-26199400D01*
X53713481Y-26199400D01*
X53656446Y-26208433D01*
X53542374Y-26226501D01*
X53377618Y-26280032D01*
X53377615Y-26280033D01*
X53223259Y-26358683D01*
X53161803Y-26403334D01*
X53083107Y-26460510D01*
X53083105Y-26460512D01*
X53083104Y-26460512D01*
X52960612Y-26583004D01*
X52960612Y-26583005D01*
X52960610Y-26583007D01*
X52916879Y-26643197D01*
X52858783Y-26723159D01*
X52780133Y-26877515D01*
X52780132Y-26877518D01*
X52726601Y-27042274D01*
X52716973Y-27103063D01*
X52687044Y-27166198D01*
X52627732Y-27203129D01*
X52557870Y-27202131D01*
X52499637Y-27163521D01*
X52471523Y-27099557D01*
X52470500Y-27083665D01*
X52470500Y-25694110D01*
X52470500Y-25694108D01*
X52436392Y-25566814D01*
X52370500Y-25452686D01*
X52277314Y-25359500D01*
X52211874Y-25321718D01*
X52163187Y-25293608D01*
X52099539Y-25276554D01*
X52035892Y-25259500D01*
X40385892Y-25259500D01*
X40254108Y-25259500D01*
X40126812Y-25293608D01*
X40012686Y-25359500D01*
X40012683Y-25359502D01*
X39919502Y-25452683D01*
X39919500Y-25452686D01*
X39853608Y-25566812D01*
X39819500Y-25694108D01*
X39819500Y-29128151D01*
X39799815Y-29195190D01*
X39747011Y-29240945D01*
X39677853Y-29250889D01*
X39614297Y-29221864D01*
X39585016Y-29184447D01*
X39571846Y-29158601D01*
X39451558Y-28993039D01*
X39306860Y-28848341D01*
X39141301Y-28728055D01*
X38958962Y-28635148D01*
X38798611Y-28583047D01*
X38740935Y-28543609D01*
X38713737Y-28479251D01*
X38725652Y-28410404D01*
X38772896Y-28358929D01*
X38798612Y-28347185D01*
X38882378Y-28319968D01*
X38882384Y-28319966D01*
X39036740Y-28241317D01*
X39176893Y-28139490D01*
X39299390Y-28016993D01*
X39401217Y-27876840D01*
X39479866Y-27722484D01*
X39533399Y-27557724D01*
X39560500Y-27386619D01*
X39560500Y-27213381D01*
X39533399Y-27042276D01*
X39487009Y-26899500D01*
X39479867Y-26877518D01*
X39479866Y-26877515D01*
X39401216Y-26723159D01*
X39299390Y-26583007D01*
X39176893Y-26460510D01*
X39036740Y-26358683D01*
X38882384Y-26280033D01*
X38882381Y-26280032D01*
X38717625Y-26226501D01*
X38546516Y-26199399D01*
X38541656Y-26199017D01*
X38541801Y-26197166D01*
X38482369Y-26179715D01*
X38436614Y-26126911D01*
X38426670Y-26057753D01*
X38434847Y-26027947D01*
X38485044Y-25906762D01*
X38505682Y-25750000D01*
X38496403Y-25679522D01*
X38485044Y-25593239D01*
X38485044Y-25593238D01*
X38424536Y-25447159D01*
X38328282Y-25321718D01*
X38202841Y-25225464D01*
X38056762Y-25164956D01*
X38056760Y-25164955D01*
X37900001Y-25144318D01*
X37899999Y-25144318D01*
X37743239Y-25164955D01*
X37743237Y-25164956D01*
X37597160Y-25225463D01*
X37471718Y-25321718D01*
X37375463Y-25447160D01*
X37314956Y-25593237D01*
X37314955Y-25593239D01*
X37294318Y-25749998D01*
X37294318Y-25750001D01*
X37314955Y-25906760D01*
X37314957Y-25906765D01*
X37365961Y-26029900D01*
X37373430Y-26099369D01*
X37342155Y-26161848D01*
X37282066Y-26197500D01*
X37270798Y-26199825D01*
X37102374Y-26226501D01*
X36937618Y-26280032D01*
X36937615Y-26280033D01*
X36783259Y-26358683D01*
X36721803Y-26403334D01*
X36643107Y-26460510D01*
X36643105Y-26460512D01*
X36643104Y-26460512D01*
X36520612Y-26583004D01*
X36520612Y-26583005D01*
X36520610Y-26583007D01*
X36476879Y-26643197D01*
X36418783Y-26723159D01*
X36340133Y-26877515D01*
X36340132Y-26877518D01*
X36286601Y-27042274D01*
X36259500Y-27213381D01*
X36259500Y-27386618D01*
X36286601Y-27557725D01*
X36340132Y-27722481D01*
X36340133Y-27722484D01*
X36388461Y-27817331D01*
X36418783Y-27876840D01*
X36520610Y-28016993D01*
X36643107Y-28139490D01*
X36783260Y-28241317D01*
X36858966Y-28279891D01*
X36937615Y-28319966D01*
X36937621Y-28319968D01*
X37021387Y-28347185D01*
X37079063Y-28386622D01*
X37106262Y-28450980D01*
X37094348Y-28519827D01*
X37047104Y-28571303D01*
X37021388Y-28583047D01*
X36861037Y-28635148D01*
X36678698Y-28728055D01*
X36513139Y-28848341D01*
X36368441Y-28993039D01*
X36248155Y-29158598D01*
X36155247Y-29340939D01*
X36092013Y-29535557D01*
X36092012Y-29535560D01*
X36083390Y-29589999D01*
X36083390Y-29590000D01*
X38036000Y-29590000D01*
X38103039Y-29609685D01*
X38148794Y-29662489D01*
X38160000Y-29714000D01*
X38160000Y-29966000D01*
X38140315Y-30033039D01*
X38087511Y-30078794D01*
X38036000Y-30090000D01*
X36083390Y-30090000D01*
X36092012Y-30144439D01*
X36092013Y-30144442D01*
X36155247Y-30339060D01*
X36248155Y-30521401D01*
X36368441Y-30686960D01*
X36513139Y-30831658D01*
X36678698Y-30951944D01*
X36861037Y-31044851D01*
X37021388Y-31096952D01*
X37079063Y-31136389D01*
X37106262Y-31200748D01*
X37094348Y-31269594D01*
X37047104Y-31321070D01*
X37021389Y-31332814D01*
X36937615Y-31360034D01*
X36783259Y-31438683D01*
X36715454Y-31487947D01*
X36643107Y-31540510D01*
X36643105Y-31540512D01*
X36643104Y-31540512D01*
X36520612Y-31663004D01*
X36520612Y-31663005D01*
X36520610Y-31663007D01*
X36507388Y-31681206D01*
X36418783Y-31803159D01*
X36340133Y-31957515D01*
X36340132Y-31957518D01*
X36286601Y-32122274D01*
X36259500Y-32293381D01*
X36259500Y-32466618D01*
X36286601Y-32637725D01*
X36340132Y-32802481D01*
X36340133Y-32802484D01*
X36398650Y-32917328D01*
X36418783Y-32956840D01*
X36520610Y-33096993D01*
X36643107Y-33219490D01*
X36783260Y-33321317D01*
X36845023Y-33352787D01*
X36937615Y-33399966D01*
X36937618Y-33399967D01*
X37019996Y-33426732D01*
X37102376Y-33453499D01*
X37273481Y-33480600D01*
X37273482Y-33480600D01*
X38546518Y-33480600D01*
X38546519Y-33480600D01*
X38717624Y-33453499D01*
X38882384Y-33399966D01*
X39036740Y-33321317D01*
X39176893Y-33219490D01*
X39299390Y-33096993D01*
X39401217Y-32956840D01*
X39479866Y-32802484D01*
X39533399Y-32637724D01*
X39560500Y-32466619D01*
X39560500Y-32293381D01*
X39533399Y-32122276D01*
X39487824Y-31982008D01*
X39479867Y-31957518D01*
X39479866Y-31957515D01*
X39401216Y-31803159D01*
X39299390Y-31663007D01*
X39176893Y-31540510D01*
X39036740Y-31438683D01*
X38882384Y-31360033D01*
X38882381Y-31360032D01*
X38798611Y-31332814D01*
X38740935Y-31293376D01*
X38713737Y-31229018D01*
X38725652Y-31160171D01*
X38772896Y-31108696D01*
X38798611Y-31096952D01*
X38958962Y-31044851D01*
X39141301Y-30951944D01*
X39306860Y-30831658D01*
X39451558Y-30686960D01*
X39571844Y-30521401D01*
X39585015Y-30495553D01*
X39632989Y-30444757D01*
X39700810Y-30427962D01*
X39766945Y-30450499D01*
X39810397Y-30505214D01*
X39819500Y-30551848D01*
X39819500Y-46744108D01*
X39819500Y-46875892D01*
X39836554Y-46939539D01*
X39853608Y-47003187D01*
X39876686Y-47043159D01*
X39919500Y-47117314D01*
X40012686Y-47210500D01*
X40026731Y-47218608D01*
X40027488Y-47219046D01*
X40075704Y-47269613D01*
X40088926Y-47338220D01*
X40075974Y-47382726D01*
X40041805Y-47449787D01*
X39988887Y-47612652D01*
X39962100Y-47781780D01*
X39962100Y-49078219D01*
X39988887Y-49247347D01*
X40041805Y-49410211D01*
X40119545Y-49562785D01*
X40119546Y-49562788D01*
X40161392Y-49620382D01*
X40220196Y-49701319D01*
X40341281Y-49822404D01*
X40419488Y-49879225D01*
X40479811Y-49923053D01*
X40479812Y-49923053D01*
X40479816Y-49923056D01*
X40632391Y-50000796D01*
X40795249Y-50053712D01*
X40964380Y-50080500D01*
X40964381Y-50080500D01*
X41135619Y-50080500D01*
X41135620Y-50080500D01*
X41304751Y-50053712D01*
X41467609Y-50000796D01*
X41620184Y-49923056D01*
X41758719Y-49822404D01*
X41879804Y-49701319D01*
X41980456Y-49562784D01*
X42058196Y-49410209D01*
X42111112Y-49247351D01*
X42137900Y-49078220D01*
X42137900Y-47781780D01*
X42111112Y-47612649D01*
X42065678Y-47472818D01*
X42063683Y-47402977D01*
X42099763Y-47343144D01*
X42162464Y-47312316D01*
X42183609Y-47310500D01*
X42456391Y-47310500D01*
X42523430Y-47330185D01*
X42569185Y-47382989D01*
X42579129Y-47452147D01*
X42574322Y-47472818D01*
X42528887Y-47612651D01*
X42528887Y-47612652D01*
X42502100Y-47781780D01*
X42502100Y-49078219D01*
X42528887Y-49247347D01*
X42581805Y-49410211D01*
X42659545Y-49562785D01*
X42659546Y-49562788D01*
X42701392Y-49620382D01*
X42760196Y-49701319D01*
X42881281Y-49822404D01*
X42959488Y-49879225D01*
X43019811Y-49923053D01*
X43019812Y-49923053D01*
X43019816Y-49923056D01*
X43172391Y-50000796D01*
X43335249Y-50053712D01*
X43504380Y-50080500D01*
X43504381Y-50080500D01*
X43675619Y-50080500D01*
X43675620Y-50080500D01*
X43844751Y-50053712D01*
X44007609Y-50000796D01*
X44160184Y-49923056D01*
X44298719Y-49822404D01*
X44419804Y-49701319D01*
X44520456Y-49562784D01*
X44598196Y-49410209D01*
X44651112Y-49247351D01*
X44677900Y-49078220D01*
X44677900Y-47781780D01*
X44651112Y-47612649D01*
X44605678Y-47472818D01*
X44603683Y-47402977D01*
X44639763Y-47343144D01*
X44702464Y-47312316D01*
X44723609Y-47310500D01*
X44996391Y-47310500D01*
X45063430Y-47330185D01*
X45109185Y-47382989D01*
X45119129Y-47452147D01*
X45114322Y-47472818D01*
X45068887Y-47612651D01*
X45068887Y-47612652D01*
X45042100Y-47781780D01*
X45042100Y-49078219D01*
X45068887Y-49247347D01*
X45121805Y-49410211D01*
X45199545Y-49562785D01*
X45199546Y-49562788D01*
X45241392Y-49620382D01*
X45300196Y-49701319D01*
X45421281Y-49822404D01*
X45499488Y-49879225D01*
X45559811Y-49923053D01*
X45559812Y-49923053D01*
X45559816Y-49923056D01*
X45712391Y-50000796D01*
X45875249Y-50053712D01*
X46044380Y-50080500D01*
X46044381Y-50080500D01*
X46215619Y-50080500D01*
X46215620Y-50080500D01*
X46384751Y-50053712D01*
X46547609Y-50000796D01*
X46700184Y-49923056D01*
X46838719Y-49822404D01*
X46959804Y-49701319D01*
X47060456Y-49562784D01*
X47138196Y-49410209D01*
X47191112Y-49247351D01*
X47217900Y-49078220D01*
X47217900Y-47781780D01*
X47191112Y-47612649D01*
X47145678Y-47472818D01*
X47143683Y-47402977D01*
X47179763Y-47343144D01*
X47242464Y-47312316D01*
X47263609Y-47310500D01*
X47536391Y-47310500D01*
X47603430Y-47330185D01*
X47649185Y-47382989D01*
X47659129Y-47452147D01*
X47654322Y-47472818D01*
X47608887Y-47612651D01*
X47608887Y-47612652D01*
X47582100Y-47781780D01*
X47582100Y-49078219D01*
X47608887Y-49247347D01*
X47661805Y-49410211D01*
X47739545Y-49562785D01*
X47739546Y-49562788D01*
X47781392Y-49620382D01*
X47840196Y-49701319D01*
X47961281Y-49822404D01*
X48039488Y-49879225D01*
X48099811Y-49923053D01*
X48099812Y-49923053D01*
X48099816Y-49923056D01*
X48252391Y-50000796D01*
X48415249Y-50053712D01*
X48584380Y-50080500D01*
X48584381Y-50080500D01*
X48755619Y-50080500D01*
X48755620Y-50080500D01*
X48924751Y-50053712D01*
X49087609Y-50000796D01*
X49240184Y-49923056D01*
X49378719Y-49822404D01*
X49499804Y-49701319D01*
X49600456Y-49562784D01*
X49678196Y-49410209D01*
X49731112Y-49247351D01*
X49757900Y-49078220D01*
X49757900Y-47781780D01*
X49731112Y-47612649D01*
X49685678Y-47472818D01*
X49683683Y-47402977D01*
X49719763Y-47343144D01*
X49782464Y-47312316D01*
X49803609Y-47310500D01*
X50076391Y-47310500D01*
X50143430Y-47330185D01*
X50189185Y-47382989D01*
X50199129Y-47452147D01*
X50194322Y-47472818D01*
X50148887Y-47612651D01*
X50148887Y-47612652D01*
X50122100Y-47781780D01*
X50122100Y-49078219D01*
X50148887Y-49247347D01*
X50201805Y-49410211D01*
X50279545Y-49562785D01*
X50279546Y-49562788D01*
X50321392Y-49620382D01*
X50380196Y-49701319D01*
X50501281Y-49822404D01*
X50579488Y-49879225D01*
X50639811Y-49923053D01*
X50639812Y-49923053D01*
X50639816Y-49923056D01*
X50792391Y-50000796D01*
X50955249Y-50053712D01*
X51124380Y-50080500D01*
X51124381Y-50080500D01*
X51295619Y-50080500D01*
X51295620Y-50080500D01*
X51464751Y-50053712D01*
X51627609Y-50000796D01*
X51780184Y-49923056D01*
X51918719Y-49822404D01*
X52039804Y-49701319D01*
X52140456Y-49562784D01*
X52218196Y-49410209D01*
X52271112Y-49247351D01*
X52297900Y-49078220D01*
X52297900Y-47781780D01*
X52285995Y-47706618D01*
X52699500Y-47706618D01*
X52726601Y-47877725D01*
X52780132Y-48042481D01*
X52780133Y-48042484D01*
X52858783Y-48196840D01*
X52960610Y-48336993D01*
X53083107Y-48459490D01*
X53223260Y-48561317D01*
X53298966Y-48599891D01*
X53377615Y-48639966D01*
X53377618Y-48639967D01*
X53459996Y-48666732D01*
X53542376Y-48693499D01*
X53713481Y-48720600D01*
X53713482Y-48720600D01*
X54986518Y-48720600D01*
X54986519Y-48720600D01*
X55157624Y-48693499D01*
X55322384Y-48639966D01*
X55476740Y-48561317D01*
X55616893Y-48459490D01*
X55739390Y-48336993D01*
X55841217Y-48196840D01*
X55919866Y-48042484D01*
X55973399Y-47877724D01*
X56000500Y-47706619D01*
X56000500Y-47533381D01*
X55973399Y-47362276D01*
X55946632Y-47279896D01*
X55919867Y-47197518D01*
X55919866Y-47197515D01*
X55841216Y-47043159D01*
X55739390Y-46903007D01*
X55616893Y-46780510D01*
X55476740Y-46678683D01*
X55322384Y-46600033D01*
X55322381Y-46600032D01*
X55157625Y-46546501D01*
X55072071Y-46532950D01*
X54986519Y-46519400D01*
X53713481Y-46519400D01*
X53656446Y-46528433D01*
X53542374Y-46546501D01*
X53377618Y-46600032D01*
X53377615Y-46600033D01*
X53223259Y-46678683D01*
X53143297Y-46736779D01*
X53083107Y-46780510D01*
X53083105Y-46780512D01*
X53083104Y-46780512D01*
X52960612Y-46903004D01*
X52960612Y-46903005D01*
X52960610Y-46903007D01*
X52916879Y-46963197D01*
X52858783Y-47043159D01*
X52780133Y-47197515D01*
X52780132Y-47197518D01*
X52726601Y-47362274D01*
X52699500Y-47533381D01*
X52699500Y-47706618D01*
X52285995Y-47706618D01*
X52271112Y-47612649D01*
X52218196Y-47449791D01*
X52190845Y-47396111D01*
X52177949Y-47327441D01*
X52204226Y-47262701D01*
X52239328Y-47232430D01*
X52277314Y-47210500D01*
X52370500Y-47117314D01*
X52436392Y-47003186D01*
X52470500Y-46875892D01*
X52470500Y-45296334D01*
X52490185Y-45229295D01*
X52542989Y-45183540D01*
X52612147Y-45173596D01*
X52675703Y-45202621D01*
X52713477Y-45261399D01*
X52716973Y-45276936D01*
X52726601Y-45337725D01*
X52780132Y-45502481D01*
X52780133Y-45502484D01*
X52858783Y-45656840D01*
X52960610Y-45796993D01*
X53083107Y-45919490D01*
X53223260Y-46021317D01*
X53298966Y-46059891D01*
X53377615Y-46099966D01*
X53377618Y-46099967D01*
X53459996Y-46126732D01*
X53542376Y-46153499D01*
X53713481Y-46180600D01*
X53713482Y-46180600D01*
X54986518Y-46180600D01*
X54986519Y-46180600D01*
X55157624Y-46153499D01*
X55322384Y-46099966D01*
X55476740Y-46021317D01*
X55616893Y-45919490D01*
X55739390Y-45796993D01*
X55841217Y-45656840D01*
X55919866Y-45502484D01*
X55973399Y-45337724D01*
X56000500Y-45166619D01*
X56000500Y-44993381D01*
X55973399Y-44822276D01*
X55919866Y-44657516D01*
X55919866Y-44657515D01*
X55879791Y-44578866D01*
X55841217Y-44503160D01*
X55739390Y-44363007D01*
X55616893Y-44240510D01*
X55476740Y-44138683D01*
X55322384Y-44060033D01*
X55322381Y-44060032D01*
X55157625Y-44006501D01*
X55072071Y-43992950D01*
X54986519Y-43979400D01*
X53713481Y-43979400D01*
X53656446Y-43988433D01*
X53542374Y-44006501D01*
X53377618Y-44060032D01*
X53377615Y-44060033D01*
X53223259Y-44138683D01*
X53143297Y-44196779D01*
X53083107Y-44240510D01*
X53083105Y-44240512D01*
X53083104Y-44240512D01*
X52960612Y-44363004D01*
X52960612Y-44363005D01*
X52960610Y-44363007D01*
X52916879Y-44423197D01*
X52858783Y-44503159D01*
X52780133Y-44657515D01*
X52780132Y-44657518D01*
X52726601Y-44822274D01*
X52716973Y-44883063D01*
X52687044Y-44946198D01*
X52627732Y-44983129D01*
X52557870Y-44982131D01*
X52499637Y-44943521D01*
X52471523Y-44879557D01*
X52470500Y-44863665D01*
X52470500Y-42756334D01*
X52490185Y-42689295D01*
X52542989Y-42643540D01*
X52612147Y-42633596D01*
X52675703Y-42662621D01*
X52713477Y-42721399D01*
X52716973Y-42736936D01*
X52726601Y-42797725D01*
X52780132Y-42962481D01*
X52780133Y-42962484D01*
X52858783Y-43116840D01*
X52960610Y-43256993D01*
X53083107Y-43379490D01*
X53223260Y-43481317D01*
X53298966Y-43519891D01*
X53377615Y-43559966D01*
X53377618Y-43559967D01*
X53459996Y-43586732D01*
X53542376Y-43613499D01*
X53713481Y-43640600D01*
X53713482Y-43640600D01*
X54986518Y-43640600D01*
X54986519Y-43640600D01*
X55157624Y-43613499D01*
X55322384Y-43559966D01*
X55476740Y-43481317D01*
X55616893Y-43379490D01*
X55739390Y-43256993D01*
X55841217Y-43116840D01*
X55919866Y-42962484D01*
X55973399Y-42797724D01*
X56000500Y-42626619D01*
X56000500Y-42453381D01*
X55973399Y-42282276D01*
X55919866Y-42117516D01*
X55919866Y-42117515D01*
X55841216Y-41963159D01*
X55739390Y-41823007D01*
X55616893Y-41700510D01*
X55476740Y-41598683D01*
X55322384Y-41520033D01*
X55322381Y-41520032D01*
X55157625Y-41466501D01*
X55072071Y-41452950D01*
X54986519Y-41439400D01*
X53713481Y-41439400D01*
X53656446Y-41448433D01*
X53542374Y-41466501D01*
X53377618Y-41520032D01*
X53377615Y-41520033D01*
X53223259Y-41598683D01*
X53143297Y-41656779D01*
X53083107Y-41700510D01*
X53083105Y-41700512D01*
X53083104Y-41700512D01*
X52960612Y-41823004D01*
X52960612Y-41823005D01*
X52960610Y-41823007D01*
X52916879Y-41883197D01*
X52858783Y-41963159D01*
X52780133Y-42117515D01*
X52780132Y-42117518D01*
X52726601Y-42282274D01*
X52716973Y-42343063D01*
X52687044Y-42406198D01*
X52627732Y-42443129D01*
X52557870Y-42442131D01*
X52499637Y-42403521D01*
X52471523Y-42339557D01*
X52470500Y-42323665D01*
X52470500Y-40216334D01*
X52490185Y-40149295D01*
X52542989Y-40103540D01*
X52612147Y-40093596D01*
X52675703Y-40122621D01*
X52713477Y-40181399D01*
X52716973Y-40196936D01*
X52726601Y-40257725D01*
X52780132Y-40422481D01*
X52780133Y-40422484D01*
X52858780Y-40576835D01*
X52858783Y-40576840D01*
X52960610Y-40716993D01*
X53083107Y-40839490D01*
X53223260Y-40941317D01*
X53298966Y-40979891D01*
X53377615Y-41019966D01*
X53377618Y-41019967D01*
X53459996Y-41046732D01*
X53542376Y-41073499D01*
X53713481Y-41100600D01*
X53713482Y-41100600D01*
X54986518Y-41100600D01*
X54986519Y-41100600D01*
X55157624Y-41073499D01*
X55322384Y-41019966D01*
X55476740Y-40941317D01*
X55616893Y-40839490D01*
X55739390Y-40716993D01*
X55841217Y-40576840D01*
X55841220Y-40576835D01*
X55896571Y-40468205D01*
X55944545Y-40417409D01*
X56007055Y-40400500D01*
X61052725Y-40400500D01*
X61052727Y-40400500D01*
X61154588Y-40373207D01*
X61245913Y-40320480D01*
X62329574Y-39236819D01*
X62390897Y-39203334D01*
X62417255Y-39200500D01*
X62976000Y-39200500D01*
X63043039Y-39220185D01*
X63088794Y-39272989D01*
X63100000Y-39324500D01*
X63100000Y-39780000D01*
X64016988Y-39780000D01*
X63984075Y-39837007D01*
X63950000Y-39964174D01*
X63950000Y-40095826D01*
X63984075Y-40222993D01*
X64016988Y-40280000D01*
X63100000Y-40280000D01*
X63100000Y-40927844D01*
X63106401Y-40987372D01*
X63106403Y-40987379D01*
X63156645Y-41122086D01*
X63156649Y-41122093D01*
X63242809Y-41237187D01*
X63242812Y-41237190D01*
X63357906Y-41323350D01*
X63357913Y-41323354D01*
X63492620Y-41373596D01*
X63492627Y-41373598D01*
X63552155Y-41379999D01*
X63552172Y-41380000D01*
X64200000Y-41380000D01*
X64200000Y-40463012D01*
X64257007Y-40495925D01*
X64384174Y-40530000D01*
X64515826Y-40530000D01*
X64642993Y-40495925D01*
X64700000Y-40463012D01*
X64700000Y-41380000D01*
X65347828Y-41380000D01*
X65347844Y-41379999D01*
X65407372Y-41373598D01*
X65407379Y-41373596D01*
X65542086Y-41323354D01*
X65542093Y-41323350D01*
X65657187Y-41237190D01*
X65657190Y-41237187D01*
X65743350Y-41122093D01*
X65743354Y-41122086D01*
X65793596Y-40987379D01*
X65793598Y-40987372D01*
X65799999Y-40927844D01*
X65800000Y-40927827D01*
X65800000Y-40733268D01*
X65819685Y-40666229D01*
X65872489Y-40620474D01*
X65941647Y-40610530D01*
X66005203Y-40639555D01*
X66022950Y-40658537D01*
X66136128Y-40808407D01*
X66293698Y-40952052D01*
X66474981Y-41064298D01*
X66673802Y-41141321D01*
X66883390Y-41180500D01*
X66883392Y-41180500D01*
X67096608Y-41180500D01*
X67096610Y-41180500D01*
X67306198Y-41141321D01*
X67505019Y-41064298D01*
X67686302Y-40952052D01*
X67843872Y-40808407D01*
X67972366Y-40638255D01*
X68026270Y-40530000D01*
X68067403Y-40447394D01*
X68067403Y-40447393D01*
X68067405Y-40447389D01*
X68125756Y-40242310D01*
X68145429Y-40030000D01*
X68125756Y-39817690D01*
X68067405Y-39612611D01*
X68066609Y-39609813D01*
X68067195Y-39539946D01*
X68098192Y-39488199D01*
X68483908Y-39102483D01*
X68545229Y-39069000D01*
X68614921Y-39073984D01*
X68670854Y-39115856D01*
X68695271Y-39181320D01*
X68695587Y-39190076D01*
X68699310Y-44291422D01*
X68679674Y-44358475D01*
X68662991Y-44379193D01*
X62529101Y-50513083D01*
X62467778Y-50546568D01*
X62441374Y-50549402D01*
X35809452Y-50539545D01*
X35742420Y-50519836D01*
X35696685Y-50467015D01*
X35685498Y-50415545D01*
X35685498Y-47706618D01*
X36259500Y-47706618D01*
X36286601Y-47877725D01*
X36340132Y-48042481D01*
X36340133Y-48042484D01*
X36418783Y-48196840D01*
X36520610Y-48336993D01*
X36643107Y-48459490D01*
X36783260Y-48561317D01*
X36858966Y-48599891D01*
X36937615Y-48639966D01*
X36937618Y-48639967D01*
X37019996Y-48666732D01*
X37102376Y-48693499D01*
X37273481Y-48720600D01*
X37273482Y-48720600D01*
X38546518Y-48720600D01*
X38546519Y-48720600D01*
X38717624Y-48693499D01*
X38882384Y-48639966D01*
X39036740Y-48561317D01*
X39176893Y-48459490D01*
X39299390Y-48336993D01*
X39401217Y-48196840D01*
X39479866Y-48042484D01*
X39533399Y-47877724D01*
X39560500Y-47706619D01*
X39560500Y-47533381D01*
X39533399Y-47362276D01*
X39506632Y-47279896D01*
X39479867Y-47197518D01*
X39479866Y-47197515D01*
X39401216Y-47043159D01*
X39299390Y-46903007D01*
X39176893Y-46780510D01*
X39036740Y-46678683D01*
X38882384Y-46600033D01*
X38882381Y-46600032D01*
X38717625Y-46546501D01*
X38632071Y-46532950D01*
X38546519Y-46519400D01*
X37273481Y-46519400D01*
X37216446Y-46528433D01*
X37102374Y-46546501D01*
X36937618Y-46600032D01*
X36937615Y-46600033D01*
X36783259Y-46678683D01*
X36703297Y-46736779D01*
X36643107Y-46780510D01*
X36643105Y-46780512D01*
X36643104Y-46780512D01*
X36520612Y-46903004D01*
X36520612Y-46903005D01*
X36520610Y-46903007D01*
X36476879Y-46963197D01*
X36418783Y-47043159D01*
X36340133Y-47197515D01*
X36340132Y-47197518D01*
X36286601Y-47362274D01*
X36259500Y-47533381D01*
X36259500Y-47706618D01*
X35685498Y-47706618D01*
X35685498Y-45166618D01*
X36259500Y-45166618D01*
X36286601Y-45337725D01*
X36340132Y-45502481D01*
X36340133Y-45502484D01*
X36418783Y-45656840D01*
X36520610Y-45796993D01*
X36643107Y-45919490D01*
X36783260Y-46021317D01*
X36858966Y-46059891D01*
X36937615Y-46099966D01*
X36937618Y-46099967D01*
X37019996Y-46126732D01*
X37102376Y-46153499D01*
X37273481Y-46180600D01*
X37273482Y-46180600D01*
X38546518Y-46180600D01*
X38546519Y-46180600D01*
X38717624Y-46153499D01*
X38882384Y-46099966D01*
X39036740Y-46021317D01*
X39176893Y-45919490D01*
X39299390Y-45796993D01*
X39401217Y-45656840D01*
X39479866Y-45502484D01*
X39533399Y-45337724D01*
X39560500Y-45166619D01*
X39560500Y-44993381D01*
X39533399Y-44822276D01*
X39479866Y-44657516D01*
X39479866Y-44657515D01*
X39439791Y-44578866D01*
X39401217Y-44503160D01*
X39299390Y-44363007D01*
X39176893Y-44240510D01*
X39036740Y-44138683D01*
X38882384Y-44060033D01*
X38882381Y-44060032D01*
X38717625Y-44006501D01*
X38632071Y-43992950D01*
X38546519Y-43979400D01*
X37273481Y-43979400D01*
X37216446Y-43988433D01*
X37102374Y-44006501D01*
X36937618Y-44060032D01*
X36937615Y-44060033D01*
X36783259Y-44138683D01*
X36703297Y-44196779D01*
X36643107Y-44240510D01*
X36643105Y-44240512D01*
X36643104Y-44240512D01*
X36520612Y-44363004D01*
X36520612Y-44363005D01*
X36520610Y-44363007D01*
X36476879Y-44423197D01*
X36418783Y-44503159D01*
X36340133Y-44657515D01*
X36340132Y-44657518D01*
X36286601Y-44822274D01*
X36259500Y-44993381D01*
X36259500Y-45166618D01*
X35685498Y-45166618D01*
X35685498Y-42626618D01*
X36259500Y-42626618D01*
X36286601Y-42797725D01*
X36340132Y-42962481D01*
X36340133Y-42962484D01*
X36418783Y-43116840D01*
X36520610Y-43256993D01*
X36643107Y-43379490D01*
X36783260Y-43481317D01*
X36858966Y-43519891D01*
X36937615Y-43559966D01*
X36937618Y-43559967D01*
X37019996Y-43586732D01*
X37102376Y-43613499D01*
X37273481Y-43640600D01*
X37273482Y-43640600D01*
X38546518Y-43640600D01*
X38546519Y-43640600D01*
X38717624Y-43613499D01*
X38882384Y-43559966D01*
X39036740Y-43481317D01*
X39176893Y-43379490D01*
X39299390Y-43256993D01*
X39401217Y-43116840D01*
X39479866Y-42962484D01*
X39533399Y-42797724D01*
X39560500Y-42626619D01*
X39560500Y-42453381D01*
X39533399Y-42282276D01*
X39479866Y-42117516D01*
X39479866Y-42117515D01*
X39401216Y-41963159D01*
X39299390Y-41823007D01*
X39176893Y-41700510D01*
X39036740Y-41598683D01*
X38882384Y-41520033D01*
X38882381Y-41520032D01*
X38717625Y-41466501D01*
X38632071Y-41452950D01*
X38546519Y-41439400D01*
X37273481Y-41439400D01*
X37216446Y-41448433D01*
X37102374Y-41466501D01*
X36937618Y-41520032D01*
X36937615Y-41520033D01*
X36783259Y-41598683D01*
X36703297Y-41656779D01*
X36643107Y-41700510D01*
X36643105Y-41700512D01*
X36643104Y-41700512D01*
X36520612Y-41823004D01*
X36520612Y-41823005D01*
X36520610Y-41823007D01*
X36476879Y-41883197D01*
X36418783Y-41963159D01*
X36340133Y-42117515D01*
X36340132Y-42117518D01*
X36286601Y-42282274D01*
X36259500Y-42453381D01*
X36259500Y-42626618D01*
X35685498Y-42626618D01*
X35685498Y-40086618D01*
X36259500Y-40086618D01*
X36286601Y-40257725D01*
X36340132Y-40422481D01*
X36340133Y-40422484D01*
X36418780Y-40576835D01*
X36418783Y-40576840D01*
X36520610Y-40716993D01*
X36643107Y-40839490D01*
X36783260Y-40941317D01*
X36858966Y-40979891D01*
X36937615Y-41019966D01*
X36937618Y-41019967D01*
X37019996Y-41046732D01*
X37102376Y-41073499D01*
X37273481Y-41100600D01*
X37273482Y-41100600D01*
X38546518Y-41100600D01*
X38546519Y-41100600D01*
X38717624Y-41073499D01*
X38882384Y-41019966D01*
X39036740Y-40941317D01*
X39176893Y-40839490D01*
X39299390Y-40716993D01*
X39401217Y-40576840D01*
X39479866Y-40422484D01*
X39533399Y-40257724D01*
X39560500Y-40086619D01*
X39560500Y-39913381D01*
X39533399Y-39742276D01*
X39479866Y-39577516D01*
X39479866Y-39577515D01*
X39401216Y-39423159D01*
X39400189Y-39421745D01*
X39299390Y-39283007D01*
X39176893Y-39160510D01*
X39036740Y-39058683D01*
X38882384Y-38980033D01*
X38882381Y-38980032D01*
X38717625Y-38926501D01*
X38632071Y-38912950D01*
X38546519Y-38899400D01*
X37273481Y-38899400D01*
X37216446Y-38908433D01*
X37102374Y-38926501D01*
X36937618Y-38980032D01*
X36937615Y-38980033D01*
X36783259Y-39058683D01*
X36715452Y-39107948D01*
X36643107Y-39160510D01*
X36643105Y-39160512D01*
X36643104Y-39160512D01*
X36520612Y-39283004D01*
X36520612Y-39283005D01*
X36520610Y-39283007D01*
X36490464Y-39324500D01*
X36418783Y-39423159D01*
X36340133Y-39577515D01*
X36340132Y-39577518D01*
X36286601Y-39742274D01*
X36259500Y-39913381D01*
X36259500Y-40086618D01*
X35685498Y-40086618D01*
X35685498Y-37546618D01*
X36259500Y-37546618D01*
X36286601Y-37717725D01*
X36340132Y-37882481D01*
X36340133Y-37882484D01*
X36416215Y-38031800D01*
X36418783Y-38036840D01*
X36520610Y-38176993D01*
X36643107Y-38299490D01*
X36783260Y-38401317D01*
X36833259Y-38426793D01*
X36937615Y-38479966D01*
X36937618Y-38479967D01*
X37019996Y-38506732D01*
X37102376Y-38533499D01*
X37273481Y-38560600D01*
X37273482Y-38560600D01*
X38546518Y-38560600D01*
X38546519Y-38560600D01*
X38717624Y-38533499D01*
X38882384Y-38479966D01*
X39036740Y-38401317D01*
X39176893Y-38299490D01*
X39299390Y-38176993D01*
X39401217Y-38036840D01*
X39479866Y-37882484D01*
X39533399Y-37717724D01*
X39560500Y-37546619D01*
X39560500Y-37373381D01*
X39533399Y-37202276D01*
X39479866Y-37037516D01*
X39479866Y-37037515D01*
X39401216Y-36883159D01*
X39299390Y-36743007D01*
X39176893Y-36620510D01*
X39036740Y-36518683D01*
X38882384Y-36440033D01*
X38882381Y-36440032D01*
X38717625Y-36386501D01*
X38632071Y-36372950D01*
X38546519Y-36359400D01*
X37273481Y-36359400D01*
X37216446Y-36368433D01*
X37102374Y-36386501D01*
X36937618Y-36440032D01*
X36937615Y-36440033D01*
X36783259Y-36518683D01*
X36703297Y-36576779D01*
X36643107Y-36620510D01*
X36643105Y-36620512D01*
X36643104Y-36620512D01*
X36520612Y-36743004D01*
X36520612Y-36743005D01*
X36520610Y-36743007D01*
X36479764Y-36799227D01*
X36418783Y-36883159D01*
X36340133Y-37037515D01*
X36340132Y-37037518D01*
X36286601Y-37202274D01*
X36259500Y-37373381D01*
X36259500Y-37546618D01*
X35685498Y-37546618D01*
X35685498Y-35006618D01*
X36259500Y-35006618D01*
X36286601Y-35177725D01*
X36340132Y-35342481D01*
X36340133Y-35342484D01*
X36418783Y-35496840D01*
X36520610Y-35636993D01*
X36643107Y-35759490D01*
X36783260Y-35861317D01*
X36858966Y-35899891D01*
X36937615Y-35939966D01*
X36937618Y-35939967D01*
X37019996Y-35966732D01*
X37102376Y-35993499D01*
X37273481Y-36020600D01*
X37273482Y-36020600D01*
X38546518Y-36020600D01*
X38546519Y-36020600D01*
X38717624Y-35993499D01*
X38882384Y-35939966D01*
X39036740Y-35861317D01*
X39176893Y-35759490D01*
X39299390Y-35636993D01*
X39401217Y-35496840D01*
X39479866Y-35342484D01*
X39533399Y-35177724D01*
X39560500Y-35006619D01*
X39560500Y-34833381D01*
X39533399Y-34662276D01*
X39486365Y-34517517D01*
X39479867Y-34497518D01*
X39479866Y-34497515D01*
X39401216Y-34343159D01*
X39299390Y-34203007D01*
X39176893Y-34080510D01*
X39036740Y-33978683D01*
X38882384Y-33900033D01*
X38882381Y-33900032D01*
X38717625Y-33846501D01*
X38632071Y-33832950D01*
X38546519Y-33819400D01*
X37273481Y-33819400D01*
X37216446Y-33828433D01*
X37102374Y-33846501D01*
X36937618Y-33900032D01*
X36937615Y-33900033D01*
X36783259Y-33978683D01*
X36738760Y-34011014D01*
X36643107Y-34080510D01*
X36643105Y-34080512D01*
X36643104Y-34080512D01*
X36520612Y-34203004D01*
X36520612Y-34203005D01*
X36520610Y-34203007D01*
X36489017Y-34246491D01*
X36418783Y-34343159D01*
X36340133Y-34497515D01*
X36340132Y-34497518D01*
X36286601Y-34662274D01*
X36259500Y-34833381D01*
X36259500Y-35006618D01*
X35685498Y-35006618D01*
X35685498Y-24124500D01*
X35705183Y-24057461D01*
X35757987Y-24011706D01*
X35809498Y-24000500D01*
X68560591Y-24000500D01*
X68627630Y-24020185D01*
G37*
%TD.AperFunction*%
%TD*%
M02*
