%TF.GenerationSoftware,KiCad,Pcbnew,8.0.0*%
%TF.CreationDate,2024-03-16T16:39:28+00:00*%
%TF.ProjectId,pcb,7063622e-6b69-4636-9164-5f7063625858,rev?*%
%TF.SameCoordinates,Original*%
%TF.FileFunction,Soldermask,Top*%
%TF.FilePolarity,Negative*%
%FSLAX46Y46*%
G04 Gerber Fmt 4.6, Leading zero omitted, Abs format (unit mm)*
G04 Created by KiCad (PCBNEW 8.0.0) date 2024-03-16 16:39:28*
%MOMM*%
%LPD*%
G01*
G04 APERTURE LIST*
G04 Aperture macros list*
%AMRoundRect*
0 Rectangle with rounded corners*
0 $1 Rounding radius*
0 $2 $3 $4 $5 $6 $7 $8 $9 X,Y pos of 4 corners*
0 Add a 4 corners polygon primitive as box body*
4,1,4,$2,$3,$4,$5,$6,$7,$8,$9,$2,$3,0*
0 Add four circle primitives for the rounded corners*
1,1,$1+$1,$2,$3*
1,1,$1+$1,$4,$5*
1,1,$1+$1,$6,$7*
1,1,$1+$1,$8,$9*
0 Add four rect primitives between the rounded corners*
20,1,$1+$1,$2,$3,$4,$5,0*
20,1,$1+$1,$4,$5,$6,$7,0*
20,1,$1+$1,$6,$7,$8,$9,0*
20,1,$1+$1,$8,$9,$2,$3,0*%
G04 Aperture macros list end*
%ADD10RoundRect,0.200000X-0.275000X0.200000X-0.275000X-0.200000X0.275000X-0.200000X0.275000X0.200000X0*%
%ADD11RoundRect,0.400050X-0.400050X0.899950X-0.400050X-0.899950X0.400050X-0.899950X0.400050X0.899950X0*%
%ADD12RoundRect,0.393700X-0.906300X0.393700X-0.906300X-0.393700X0.906300X-0.393700X0.906300X0.393700X0*%
%ADD13O,1.700000X1.700000*%
%ADD14R,1.700000X1.700000*%
G04 APERTURE END LIST*
D10*
%TO.C,R2*%
X46500000Y-53675000D03*
X46500000Y-55325000D03*
%TD*%
D11*
%TO.C,REF\u002A\u002A*%
X49240000Y-49600000D03*
X46700000Y-49600000D03*
X44160000Y-49600000D03*
X41620000Y-49600000D03*
X39080000Y-49600000D03*
X36540000Y-49600000D03*
X34000000Y-49600000D03*
X31460000Y-49600000D03*
X28920000Y-49600000D03*
D12*
X28110000Y-46460000D03*
X28110000Y-43920000D03*
X28110000Y-41380000D03*
X28110000Y-38840000D03*
X28110000Y-36300000D03*
D11*
X28920000Y-33160000D03*
X31460000Y-33160000D03*
X34000000Y-33160000D03*
X36540000Y-33160000D03*
X49240000Y-33160000D03*
X46700000Y-33160000D03*
X44160000Y-33160000D03*
X39080000Y-33160000D03*
X41620000Y-33160000D03*
%TD*%
D13*
%TO.C,REF\u002A\u002A*%
X29840000Y-61540000D03*
D14*
X29840000Y-59000000D03*
D13*
X32380000Y-61540000D03*
X32380000Y-59000000D03*
X34920000Y-61540000D03*
X34920000Y-59000000D03*
X37460000Y-61540000D03*
X37460000Y-59000000D03*
X40000000Y-61540000D03*
X40000000Y-59000000D03*
X42540000Y-61540000D03*
X42540000Y-59000000D03*
X45080000Y-61540000D03*
X45080000Y-59000000D03*
X47620000Y-61540000D03*
X47620000Y-59000000D03*
%TD*%
D10*
%TO.C,R3*%
X44000000Y-53675000D03*
X44000000Y-55325000D03*
%TD*%
%TO.C,R1*%
X49000000Y-53675000D03*
X49000000Y-55325000D03*
%TD*%
%TO.C,R4*%
X41500000Y-53675000D03*
X41500000Y-55325000D03*
%TD*%
M02*
