%TF.GenerationSoftware,KiCad,Pcbnew,8.0.1*%
%TF.CreationDate,2024-04-07T04:16:07+01:00*%
%TF.ProjectId,pcb,7063622e-6b69-4636-9164-5f7063625858,rev?*%
%TF.SameCoordinates,Original*%
%TF.FileFunction,Legend,Top*%
%TF.FilePolarity,Positive*%
%FSLAX46Y46*%
G04 Gerber Fmt 4.6, Leading zero omitted, Abs format (unit mm)*
G04 Created by KiCad (PCBNEW 8.0.1) date 2024-04-07 04:16:07*
%MOMM*%
%LPD*%
G01*
G04 APERTURE LIST*
%ADD10C,0.140000*%
%ADD11C,0.300000*%
%ADD12C,0.120000*%
%ADD13C,0.000000*%
%ADD14C,0.100000*%
G04 APERTURE END LIST*
D10*
X57433332Y-45780092D02*
X57199999Y-45446759D01*
X57033332Y-45780092D02*
X57033332Y-45080092D01*
X57033332Y-45080092D02*
X57299999Y-45080092D01*
X57299999Y-45080092D02*
X57366666Y-45113425D01*
X57366666Y-45113425D02*
X57399999Y-45146759D01*
X57399999Y-45146759D02*
X57433332Y-45213425D01*
X57433332Y-45213425D02*
X57433332Y-45313425D01*
X57433332Y-45313425D02*
X57399999Y-45380092D01*
X57399999Y-45380092D02*
X57366666Y-45413425D01*
X57366666Y-45413425D02*
X57299999Y-45446759D01*
X57299999Y-45446759D02*
X57033332Y-45446759D01*
X57733332Y-45780092D02*
X57733332Y-45080092D01*
X57733332Y-45080092D02*
X57999999Y-45080092D01*
X57999999Y-45080092D02*
X58066666Y-45113425D01*
X58066666Y-45113425D02*
X58099999Y-45146759D01*
X58099999Y-45146759D02*
X58133332Y-45213425D01*
X58133332Y-45213425D02*
X58133332Y-45313425D01*
X58133332Y-45313425D02*
X58099999Y-45380092D01*
X58099999Y-45380092D02*
X58066666Y-45413425D01*
X58066666Y-45413425D02*
X57999999Y-45446759D01*
X57999999Y-45446759D02*
X57733332Y-45446759D01*
X58399999Y-45146759D02*
X58433332Y-45113425D01*
X58433332Y-45113425D02*
X58499999Y-45080092D01*
X58499999Y-45080092D02*
X58666666Y-45080092D01*
X58666666Y-45080092D02*
X58733332Y-45113425D01*
X58733332Y-45113425D02*
X58766666Y-45146759D01*
X58766666Y-45146759D02*
X58799999Y-45213425D01*
X58799999Y-45213425D02*
X58799999Y-45280092D01*
X58799999Y-45280092D02*
X58766666Y-45380092D01*
X58766666Y-45380092D02*
X58366666Y-45780092D01*
X58366666Y-45780092D02*
X58799999Y-45780092D01*
X59233333Y-45080092D02*
X59299999Y-45080092D01*
X59299999Y-45080092D02*
X59366666Y-45113425D01*
X59366666Y-45113425D02*
X59399999Y-45146759D01*
X59399999Y-45146759D02*
X59433333Y-45213425D01*
X59433333Y-45213425D02*
X59466666Y-45346759D01*
X59466666Y-45346759D02*
X59466666Y-45513425D01*
X59466666Y-45513425D02*
X59433333Y-45646759D01*
X59433333Y-45646759D02*
X59399999Y-45713425D01*
X59399999Y-45713425D02*
X59366666Y-45746759D01*
X59366666Y-45746759D02*
X59299999Y-45780092D01*
X59299999Y-45780092D02*
X59233333Y-45780092D01*
X59233333Y-45780092D02*
X59166666Y-45746759D01*
X59166666Y-45746759D02*
X59133333Y-45713425D01*
X59133333Y-45713425D02*
X59099999Y-45646759D01*
X59099999Y-45646759D02*
X59066666Y-45513425D01*
X59066666Y-45513425D02*
X59066666Y-45346759D01*
X59066666Y-45346759D02*
X59099999Y-45213425D01*
X59099999Y-45213425D02*
X59133333Y-45146759D01*
X59133333Y-45146759D02*
X59166666Y-45113425D01*
X59166666Y-45113425D02*
X59233333Y-45080092D01*
X60066666Y-45313425D02*
X60066666Y-45780092D01*
X59900000Y-45046759D02*
X59733333Y-45546759D01*
X59733333Y-45546759D02*
X60166666Y-45546759D01*
X60566667Y-45080092D02*
X60633333Y-45080092D01*
X60633333Y-45080092D02*
X60700000Y-45113425D01*
X60700000Y-45113425D02*
X60733333Y-45146759D01*
X60733333Y-45146759D02*
X60766667Y-45213425D01*
X60766667Y-45213425D02*
X60800000Y-45346759D01*
X60800000Y-45346759D02*
X60800000Y-45513425D01*
X60800000Y-45513425D02*
X60766667Y-45646759D01*
X60766667Y-45646759D02*
X60733333Y-45713425D01*
X60733333Y-45713425D02*
X60700000Y-45746759D01*
X60700000Y-45746759D02*
X60633333Y-45780092D01*
X60633333Y-45780092D02*
X60566667Y-45780092D01*
X60566667Y-45780092D02*
X60500000Y-45746759D01*
X60500000Y-45746759D02*
X60466667Y-45713425D01*
X60466667Y-45713425D02*
X60433333Y-45646759D01*
X60433333Y-45646759D02*
X60400000Y-45513425D01*
X60400000Y-45513425D02*
X60400000Y-45346759D01*
X60400000Y-45346759D02*
X60433333Y-45213425D01*
X60433333Y-45213425D02*
X60466667Y-45146759D01*
X60466667Y-45146759D02*
X60500000Y-45113425D01*
X60500000Y-45113425D02*
X60566667Y-45080092D01*
X61100000Y-45513425D02*
X61633334Y-45513425D01*
X61900001Y-45080092D02*
X62366667Y-45080092D01*
X62366667Y-45080092D02*
X61900001Y-45780092D01*
X61900001Y-45780092D02*
X62366667Y-45780092D01*
X62900001Y-45746759D02*
X62833334Y-45780092D01*
X62833334Y-45780092D02*
X62700001Y-45780092D01*
X62700001Y-45780092D02*
X62633334Y-45746759D01*
X62633334Y-45746759D02*
X62600001Y-45680092D01*
X62600001Y-45680092D02*
X62600001Y-45413425D01*
X62600001Y-45413425D02*
X62633334Y-45346759D01*
X62633334Y-45346759D02*
X62700001Y-45313425D01*
X62700001Y-45313425D02*
X62833334Y-45313425D01*
X62833334Y-45313425D02*
X62900001Y-45346759D01*
X62900001Y-45346759D02*
X62933334Y-45413425D01*
X62933334Y-45413425D02*
X62933334Y-45480092D01*
X62933334Y-45480092D02*
X62600001Y-45546759D01*
X63233334Y-45780092D02*
X63233334Y-45313425D01*
X63233334Y-45446759D02*
X63266668Y-45380092D01*
X63266668Y-45380092D02*
X63300001Y-45346759D01*
X63300001Y-45346759D02*
X63366668Y-45313425D01*
X63366668Y-45313425D02*
X63433334Y-45313425D01*
X63766667Y-45780092D02*
X63700001Y-45746759D01*
X63700001Y-45746759D02*
X63666667Y-45713425D01*
X63666667Y-45713425D02*
X63633334Y-45646759D01*
X63633334Y-45646759D02*
X63633334Y-45446759D01*
X63633334Y-45446759D02*
X63666667Y-45380092D01*
X63666667Y-45380092D02*
X63700001Y-45346759D01*
X63700001Y-45346759D02*
X63766667Y-45313425D01*
X63766667Y-45313425D02*
X63866667Y-45313425D01*
X63866667Y-45313425D02*
X63933334Y-45346759D01*
X63933334Y-45346759D02*
X63966667Y-45380092D01*
X63966667Y-45380092D02*
X64000001Y-45446759D01*
X64000001Y-45446759D02*
X64000001Y-45646759D01*
X64000001Y-45646759D02*
X63966667Y-45713425D01*
X63966667Y-45713425D02*
X63933334Y-45746759D01*
X63933334Y-45746759D02*
X63866667Y-45780092D01*
X63866667Y-45780092D02*
X63766667Y-45780092D01*
X58666667Y-46707053D02*
X59000000Y-46707053D01*
X58600000Y-46907053D02*
X58833334Y-46207053D01*
X58833334Y-46207053D02*
X59066667Y-46907053D01*
X59600000Y-46907053D02*
X59600000Y-46207053D01*
X59600000Y-46873720D02*
X59533334Y-46907053D01*
X59533334Y-46907053D02*
X59400000Y-46907053D01*
X59400000Y-46907053D02*
X59333334Y-46873720D01*
X59333334Y-46873720D02*
X59300000Y-46840386D01*
X59300000Y-46840386D02*
X59266667Y-46773720D01*
X59266667Y-46773720D02*
X59266667Y-46573720D01*
X59266667Y-46573720D02*
X59300000Y-46507053D01*
X59300000Y-46507053D02*
X59333334Y-46473720D01*
X59333334Y-46473720D02*
X59400000Y-46440386D01*
X59400000Y-46440386D02*
X59533334Y-46440386D01*
X59533334Y-46440386D02*
X59600000Y-46473720D01*
X60233333Y-46907053D02*
X60233333Y-46540386D01*
X60233333Y-46540386D02*
X60200000Y-46473720D01*
X60200000Y-46473720D02*
X60133333Y-46440386D01*
X60133333Y-46440386D02*
X60000000Y-46440386D01*
X60000000Y-46440386D02*
X59933333Y-46473720D01*
X60233333Y-46873720D02*
X60166667Y-46907053D01*
X60166667Y-46907053D02*
X60000000Y-46907053D01*
X60000000Y-46907053D02*
X59933333Y-46873720D01*
X59933333Y-46873720D02*
X59900000Y-46807053D01*
X59900000Y-46807053D02*
X59900000Y-46740386D01*
X59900000Y-46740386D02*
X59933333Y-46673720D01*
X59933333Y-46673720D02*
X60000000Y-46640386D01*
X60000000Y-46640386D02*
X60166667Y-46640386D01*
X60166667Y-46640386D02*
X60233333Y-46607053D01*
X60566666Y-46440386D02*
X60566666Y-47140386D01*
X60566666Y-46473720D02*
X60633333Y-46440386D01*
X60633333Y-46440386D02*
X60766666Y-46440386D01*
X60766666Y-46440386D02*
X60833333Y-46473720D01*
X60833333Y-46473720D02*
X60866666Y-46507053D01*
X60866666Y-46507053D02*
X60900000Y-46573720D01*
X60900000Y-46573720D02*
X60900000Y-46773720D01*
X60900000Y-46773720D02*
X60866666Y-46840386D01*
X60866666Y-46840386D02*
X60833333Y-46873720D01*
X60833333Y-46873720D02*
X60766666Y-46907053D01*
X60766666Y-46907053D02*
X60633333Y-46907053D01*
X60633333Y-46907053D02*
X60566666Y-46873720D01*
X61099999Y-46440386D02*
X61366666Y-46440386D01*
X61199999Y-46207053D02*
X61199999Y-46807053D01*
X61199999Y-46807053D02*
X61233333Y-46873720D01*
X61233333Y-46873720D02*
X61299999Y-46907053D01*
X61299999Y-46907053D02*
X61366666Y-46907053D01*
X61866666Y-46873720D02*
X61799999Y-46907053D01*
X61799999Y-46907053D02*
X61666666Y-46907053D01*
X61666666Y-46907053D02*
X61599999Y-46873720D01*
X61599999Y-46873720D02*
X61566666Y-46807053D01*
X61566666Y-46807053D02*
X61566666Y-46540386D01*
X61566666Y-46540386D02*
X61599999Y-46473720D01*
X61599999Y-46473720D02*
X61666666Y-46440386D01*
X61666666Y-46440386D02*
X61799999Y-46440386D01*
X61799999Y-46440386D02*
X61866666Y-46473720D01*
X61866666Y-46473720D02*
X61899999Y-46540386D01*
X61899999Y-46540386D02*
X61899999Y-46607053D01*
X61899999Y-46607053D02*
X61566666Y-46673720D01*
X62199999Y-46907053D02*
X62199999Y-46440386D01*
X62199999Y-46573720D02*
X62233333Y-46507053D01*
X62233333Y-46507053D02*
X62266666Y-46473720D01*
X62266666Y-46473720D02*
X62333333Y-46440386D01*
X62333333Y-46440386D02*
X62399999Y-46440386D01*
X52258771Y-24907053D02*
X52258771Y-24207053D01*
X52258771Y-24207053D02*
X52425438Y-24207053D01*
X52425438Y-24207053D02*
X52525438Y-24240386D01*
X52525438Y-24240386D02*
X52592105Y-24307053D01*
X52592105Y-24307053D02*
X52625438Y-24373720D01*
X52625438Y-24373720D02*
X52658771Y-24507053D01*
X52658771Y-24507053D02*
X52658771Y-24607053D01*
X52658771Y-24607053D02*
X52625438Y-24740386D01*
X52625438Y-24740386D02*
X52592105Y-24807053D01*
X52592105Y-24807053D02*
X52525438Y-24873720D01*
X52525438Y-24873720D02*
X52425438Y-24907053D01*
X52425438Y-24907053D02*
X52258771Y-24907053D01*
X53092105Y-24207053D02*
X53158771Y-24207053D01*
X53158771Y-24207053D02*
X53225438Y-24240386D01*
X53225438Y-24240386D02*
X53258771Y-24273720D01*
X53258771Y-24273720D02*
X53292105Y-24340386D01*
X53292105Y-24340386D02*
X53325438Y-24473720D01*
X53325438Y-24473720D02*
X53325438Y-24640386D01*
X53325438Y-24640386D02*
X53292105Y-24773720D01*
X53292105Y-24773720D02*
X53258771Y-24840386D01*
X53258771Y-24840386D02*
X53225438Y-24873720D01*
X53225438Y-24873720D02*
X53158771Y-24907053D01*
X53158771Y-24907053D02*
X53092105Y-24907053D01*
X53092105Y-24907053D02*
X53025438Y-24873720D01*
X53025438Y-24873720D02*
X52992105Y-24840386D01*
X52992105Y-24840386D02*
X52958771Y-24773720D01*
X52958771Y-24773720D02*
X52925438Y-24640386D01*
X52925438Y-24640386D02*
X52925438Y-24473720D01*
X52925438Y-24473720D02*
X52958771Y-24340386D01*
X52958771Y-24340386D02*
X52992105Y-24273720D01*
X52992105Y-24273720D02*
X53025438Y-24240386D01*
X53025438Y-24240386D02*
X53092105Y-24207053D01*
X54358771Y-25173720D02*
X54325438Y-25140386D01*
X54325438Y-25140386D02*
X54258771Y-25040386D01*
X54258771Y-25040386D02*
X54225438Y-24973720D01*
X54225438Y-24973720D02*
X54192105Y-24873720D01*
X54192105Y-24873720D02*
X54158771Y-24707053D01*
X54158771Y-24707053D02*
X54158771Y-24573720D01*
X54158771Y-24573720D02*
X54192105Y-24407053D01*
X54192105Y-24407053D02*
X54225438Y-24307053D01*
X54225438Y-24307053D02*
X54258771Y-24240386D01*
X54258771Y-24240386D02*
X54325438Y-24140386D01*
X54325438Y-24140386D02*
X54358771Y-24107053D01*
X54525438Y-24207053D02*
X54758772Y-24907053D01*
X54758772Y-24907053D02*
X54992105Y-24207053D01*
X55592105Y-24907053D02*
X55192105Y-24907053D01*
X55392105Y-24907053D02*
X55392105Y-24207053D01*
X55392105Y-24207053D02*
X55325438Y-24307053D01*
X55325438Y-24307053D02*
X55258772Y-24373720D01*
X55258772Y-24373720D02*
X55192105Y-24407053D01*
X55892105Y-24640386D02*
X56425439Y-24640386D01*
X56658772Y-24207053D02*
X56892106Y-24907053D01*
X56892106Y-24907053D02*
X57125439Y-24207053D01*
X57725439Y-24907053D02*
X57325439Y-24907053D01*
X57525439Y-24907053D02*
X57525439Y-24207053D01*
X57525439Y-24207053D02*
X57458772Y-24307053D01*
X57458772Y-24307053D02*
X57392106Y-24373720D01*
X57392106Y-24373720D02*
X57325439Y-24407053D01*
X58025439Y-24840386D02*
X58058773Y-24873720D01*
X58058773Y-24873720D02*
X58025439Y-24907053D01*
X58025439Y-24907053D02*
X57992106Y-24873720D01*
X57992106Y-24873720D02*
X58025439Y-24840386D01*
X58025439Y-24840386D02*
X58025439Y-24907053D01*
X58692106Y-24207053D02*
X58358772Y-24207053D01*
X58358772Y-24207053D02*
X58325439Y-24540386D01*
X58325439Y-24540386D02*
X58358772Y-24507053D01*
X58358772Y-24507053D02*
X58425439Y-24473720D01*
X58425439Y-24473720D02*
X58592106Y-24473720D01*
X58592106Y-24473720D02*
X58658772Y-24507053D01*
X58658772Y-24507053D02*
X58692106Y-24540386D01*
X58692106Y-24540386D02*
X58725439Y-24607053D01*
X58725439Y-24607053D02*
X58725439Y-24773720D01*
X58725439Y-24773720D02*
X58692106Y-24840386D01*
X58692106Y-24840386D02*
X58658772Y-24873720D01*
X58658772Y-24873720D02*
X58592106Y-24907053D01*
X58592106Y-24907053D02*
X58425439Y-24907053D01*
X58425439Y-24907053D02*
X58358772Y-24873720D01*
X58358772Y-24873720D02*
X58325439Y-24840386D01*
X58958773Y-25173720D02*
X58992106Y-25140386D01*
X58992106Y-25140386D02*
X59058773Y-25040386D01*
X59058773Y-25040386D02*
X59092106Y-24973720D01*
X59092106Y-24973720D02*
X59125439Y-24873720D01*
X59125439Y-24873720D02*
X59158773Y-24707053D01*
X59158773Y-24707053D02*
X59158773Y-24573720D01*
X59158773Y-24573720D02*
X59125439Y-24407053D01*
X59125439Y-24407053D02*
X59092106Y-24307053D01*
X59092106Y-24307053D02*
X59058773Y-24240386D01*
X59058773Y-24240386D02*
X58992106Y-24140386D01*
X58992106Y-24140386D02*
X58958773Y-24107053D01*
D11*
X60260000Y-40000000D02*
G75*
G02*
X59260000Y-40000000I-500000J0D01*
G01*
X59260000Y-40000000D02*
G75*
G02*
X60260000Y-40000000I500000J0D01*
G01*
D12*
X57474999Y-34071331D02*
X57132142Y-34071331D01*
X57303571Y-34071331D02*
X57303571Y-33471331D01*
X57303571Y-33471331D02*
X57246428Y-33557045D01*
X57246428Y-33557045D02*
X57189285Y-33614188D01*
X57189285Y-33614188D02*
X57132142Y-33642760D01*
X57846428Y-33471331D02*
X57903571Y-33471331D01*
X57903571Y-33471331D02*
X57960714Y-33499902D01*
X57960714Y-33499902D02*
X57989286Y-33528474D01*
X57989286Y-33528474D02*
X58017857Y-33585617D01*
X58017857Y-33585617D02*
X58046428Y-33699902D01*
X58046428Y-33699902D02*
X58046428Y-33842760D01*
X58046428Y-33842760D02*
X58017857Y-33957045D01*
X58017857Y-33957045D02*
X57989286Y-34014188D01*
X57989286Y-34014188D02*
X57960714Y-34042760D01*
X57960714Y-34042760D02*
X57903571Y-34071331D01*
X57903571Y-34071331D02*
X57846428Y-34071331D01*
X57846428Y-34071331D02*
X57789286Y-34042760D01*
X57789286Y-34042760D02*
X57760714Y-34014188D01*
X57760714Y-34014188D02*
X57732143Y-33957045D01*
X57732143Y-33957045D02*
X57703571Y-33842760D01*
X57703571Y-33842760D02*
X57703571Y-33699902D01*
X57703571Y-33699902D02*
X57732143Y-33585617D01*
X57732143Y-33585617D02*
X57760714Y-33528474D01*
X57760714Y-33528474D02*
X57789286Y-33499902D01*
X57789286Y-33499902D02*
X57846428Y-33471331D01*
X58417857Y-33471331D02*
X58475000Y-33471331D01*
X58475000Y-33471331D02*
X58532143Y-33499902D01*
X58532143Y-33499902D02*
X58560715Y-33528474D01*
X58560715Y-33528474D02*
X58589286Y-33585617D01*
X58589286Y-33585617D02*
X58617857Y-33699902D01*
X58617857Y-33699902D02*
X58617857Y-33842760D01*
X58617857Y-33842760D02*
X58589286Y-33957045D01*
X58589286Y-33957045D02*
X58560715Y-34014188D01*
X58560715Y-34014188D02*
X58532143Y-34042760D01*
X58532143Y-34042760D02*
X58475000Y-34071331D01*
X58475000Y-34071331D02*
X58417857Y-34071331D01*
X58417857Y-34071331D02*
X58360715Y-34042760D01*
X58360715Y-34042760D02*
X58332143Y-34014188D01*
X58332143Y-34014188D02*
X58303572Y-33957045D01*
X58303572Y-33957045D02*
X58275000Y-33842760D01*
X58275000Y-33842760D02*
X58275000Y-33699902D01*
X58275000Y-33699902D02*
X58303572Y-33585617D01*
X58303572Y-33585617D02*
X58332143Y-33528474D01*
X58332143Y-33528474D02*
X58360715Y-33499902D01*
X58360715Y-33499902D02*
X58417857Y-33471331D01*
X57424999Y-29071331D02*
X57082142Y-29071331D01*
X57253571Y-29071331D02*
X57253571Y-28471331D01*
X57253571Y-28471331D02*
X57196428Y-28557045D01*
X57196428Y-28557045D02*
X57139285Y-28614188D01*
X57139285Y-28614188D02*
X57082142Y-28642760D01*
X57796428Y-28471331D02*
X57853571Y-28471331D01*
X57853571Y-28471331D02*
X57910714Y-28499902D01*
X57910714Y-28499902D02*
X57939286Y-28528474D01*
X57939286Y-28528474D02*
X57967857Y-28585617D01*
X57967857Y-28585617D02*
X57996428Y-28699902D01*
X57996428Y-28699902D02*
X57996428Y-28842760D01*
X57996428Y-28842760D02*
X57967857Y-28957045D01*
X57967857Y-28957045D02*
X57939286Y-29014188D01*
X57939286Y-29014188D02*
X57910714Y-29042760D01*
X57910714Y-29042760D02*
X57853571Y-29071331D01*
X57853571Y-29071331D02*
X57796428Y-29071331D01*
X57796428Y-29071331D02*
X57739286Y-29042760D01*
X57739286Y-29042760D02*
X57710714Y-29014188D01*
X57710714Y-29014188D02*
X57682143Y-28957045D01*
X57682143Y-28957045D02*
X57653571Y-28842760D01*
X57653571Y-28842760D02*
X57653571Y-28699902D01*
X57653571Y-28699902D02*
X57682143Y-28585617D01*
X57682143Y-28585617D02*
X57710714Y-28528474D01*
X57710714Y-28528474D02*
X57739286Y-28499902D01*
X57739286Y-28499902D02*
X57796428Y-28471331D01*
X58367857Y-28471331D02*
X58425000Y-28471331D01*
X58425000Y-28471331D02*
X58482143Y-28499902D01*
X58482143Y-28499902D02*
X58510715Y-28528474D01*
X58510715Y-28528474D02*
X58539286Y-28585617D01*
X58539286Y-28585617D02*
X58567857Y-28699902D01*
X58567857Y-28699902D02*
X58567857Y-28842760D01*
X58567857Y-28842760D02*
X58539286Y-28957045D01*
X58539286Y-28957045D02*
X58510715Y-29014188D01*
X58510715Y-29014188D02*
X58482143Y-29042760D01*
X58482143Y-29042760D02*
X58425000Y-29071331D01*
X58425000Y-29071331D02*
X58367857Y-29071331D01*
X58367857Y-29071331D02*
X58310715Y-29042760D01*
X58310715Y-29042760D02*
X58282143Y-29014188D01*
X58282143Y-29014188D02*
X58253572Y-28957045D01*
X58253572Y-28957045D02*
X58225000Y-28842760D01*
X58225000Y-28842760D02*
X58225000Y-28699902D01*
X58225000Y-28699902D02*
X58253572Y-28585617D01*
X58253572Y-28585617D02*
X58282143Y-28528474D01*
X58282143Y-28528474D02*
X58310715Y-28499902D01*
X58310715Y-28499902D02*
X58367857Y-28471331D01*
X57474999Y-31671331D02*
X57132142Y-31671331D01*
X57303571Y-31671331D02*
X57303571Y-31071331D01*
X57303571Y-31071331D02*
X57246428Y-31157045D01*
X57246428Y-31157045D02*
X57189285Y-31214188D01*
X57189285Y-31214188D02*
X57132142Y-31242760D01*
X57846428Y-31071331D02*
X57903571Y-31071331D01*
X57903571Y-31071331D02*
X57960714Y-31099902D01*
X57960714Y-31099902D02*
X57989286Y-31128474D01*
X57989286Y-31128474D02*
X58017857Y-31185617D01*
X58017857Y-31185617D02*
X58046428Y-31299902D01*
X58046428Y-31299902D02*
X58046428Y-31442760D01*
X58046428Y-31442760D02*
X58017857Y-31557045D01*
X58017857Y-31557045D02*
X57989286Y-31614188D01*
X57989286Y-31614188D02*
X57960714Y-31642760D01*
X57960714Y-31642760D02*
X57903571Y-31671331D01*
X57903571Y-31671331D02*
X57846428Y-31671331D01*
X57846428Y-31671331D02*
X57789286Y-31642760D01*
X57789286Y-31642760D02*
X57760714Y-31614188D01*
X57760714Y-31614188D02*
X57732143Y-31557045D01*
X57732143Y-31557045D02*
X57703571Y-31442760D01*
X57703571Y-31442760D02*
X57703571Y-31299902D01*
X57703571Y-31299902D02*
X57732143Y-31185617D01*
X57732143Y-31185617D02*
X57760714Y-31128474D01*
X57760714Y-31128474D02*
X57789286Y-31099902D01*
X57789286Y-31099902D02*
X57846428Y-31071331D01*
X58417857Y-31071331D02*
X58475000Y-31071331D01*
X58475000Y-31071331D02*
X58532143Y-31099902D01*
X58532143Y-31099902D02*
X58560715Y-31128474D01*
X58560715Y-31128474D02*
X58589286Y-31185617D01*
X58589286Y-31185617D02*
X58617857Y-31299902D01*
X58617857Y-31299902D02*
X58617857Y-31442760D01*
X58617857Y-31442760D02*
X58589286Y-31557045D01*
X58589286Y-31557045D02*
X58560715Y-31614188D01*
X58560715Y-31614188D02*
X58532143Y-31642760D01*
X58532143Y-31642760D02*
X58475000Y-31671331D01*
X58475000Y-31671331D02*
X58417857Y-31671331D01*
X58417857Y-31671331D02*
X58360715Y-31642760D01*
X58360715Y-31642760D02*
X58332143Y-31614188D01*
X58332143Y-31614188D02*
X58303572Y-31557045D01*
X58303572Y-31557045D02*
X58275000Y-31442760D01*
X58275000Y-31442760D02*
X58275000Y-31299902D01*
X58275000Y-31299902D02*
X58303572Y-31185617D01*
X58303572Y-31185617D02*
X58332143Y-31128474D01*
X58332143Y-31128474D02*
X58360715Y-31099902D01*
X58360715Y-31099902D02*
X58417857Y-31071331D01*
X57424999Y-26471331D02*
X57082142Y-26471331D01*
X57253571Y-26471331D02*
X57253571Y-25871331D01*
X57253571Y-25871331D02*
X57196428Y-25957045D01*
X57196428Y-25957045D02*
X57139285Y-26014188D01*
X57139285Y-26014188D02*
X57082142Y-26042760D01*
X57796428Y-25871331D02*
X57853571Y-25871331D01*
X57853571Y-25871331D02*
X57910714Y-25899902D01*
X57910714Y-25899902D02*
X57939286Y-25928474D01*
X57939286Y-25928474D02*
X57967857Y-25985617D01*
X57967857Y-25985617D02*
X57996428Y-26099902D01*
X57996428Y-26099902D02*
X57996428Y-26242760D01*
X57996428Y-26242760D02*
X57967857Y-26357045D01*
X57967857Y-26357045D02*
X57939286Y-26414188D01*
X57939286Y-26414188D02*
X57910714Y-26442760D01*
X57910714Y-26442760D02*
X57853571Y-26471331D01*
X57853571Y-26471331D02*
X57796428Y-26471331D01*
X57796428Y-26471331D02*
X57739286Y-26442760D01*
X57739286Y-26442760D02*
X57710714Y-26414188D01*
X57710714Y-26414188D02*
X57682143Y-26357045D01*
X57682143Y-26357045D02*
X57653571Y-26242760D01*
X57653571Y-26242760D02*
X57653571Y-26099902D01*
X57653571Y-26099902D02*
X57682143Y-25985617D01*
X57682143Y-25985617D02*
X57710714Y-25928474D01*
X57710714Y-25928474D02*
X57739286Y-25899902D01*
X57739286Y-25899902D02*
X57796428Y-25871331D01*
X58367857Y-25871331D02*
X58425000Y-25871331D01*
X58425000Y-25871331D02*
X58482143Y-25899902D01*
X58482143Y-25899902D02*
X58510715Y-25928474D01*
X58510715Y-25928474D02*
X58539286Y-25985617D01*
X58539286Y-25985617D02*
X58567857Y-26099902D01*
X58567857Y-26099902D02*
X58567857Y-26242760D01*
X58567857Y-26242760D02*
X58539286Y-26357045D01*
X58539286Y-26357045D02*
X58510715Y-26414188D01*
X58510715Y-26414188D02*
X58482143Y-26442760D01*
X58482143Y-26442760D02*
X58425000Y-26471331D01*
X58425000Y-26471331D02*
X58367857Y-26471331D01*
X58367857Y-26471331D02*
X58310715Y-26442760D01*
X58310715Y-26442760D02*
X58282143Y-26414188D01*
X58282143Y-26414188D02*
X58253572Y-26357045D01*
X58253572Y-26357045D02*
X58225000Y-26242760D01*
X58225000Y-26242760D02*
X58225000Y-26099902D01*
X58225000Y-26099902D02*
X58253572Y-25985617D01*
X58253572Y-25985617D02*
X58282143Y-25928474D01*
X58282143Y-25928474D02*
X58310715Y-25899902D01*
X58310715Y-25899902D02*
X58367857Y-25871331D01*
D13*
%TO.C,G\u002A\u002A\u002A*%
G36*
X63030853Y-42780976D02*
G01*
X63053210Y-42791839D01*
X63053443Y-42814648D01*
X63049010Y-42829814D01*
X63045211Y-42874779D01*
X63072887Y-42886344D01*
X63109563Y-42874675D01*
X63114706Y-42863946D01*
X63129549Y-42835233D01*
X63176932Y-42813168D01*
X63261137Y-42797171D01*
X63386447Y-42786662D01*
X63557144Y-42781060D01*
X63736287Y-42779721D01*
X63934273Y-42781191D01*
X64086493Y-42786837D01*
X64200497Y-42798652D01*
X64283836Y-42818629D01*
X64344062Y-42848759D01*
X64388723Y-42891037D01*
X64425371Y-42947455D01*
X64434104Y-42963881D01*
X64450086Y-43023019D01*
X64462617Y-43125027D01*
X64471695Y-43259526D01*
X64477322Y-43416136D01*
X64479498Y-43584476D01*
X64478221Y-43754169D01*
X64473493Y-43914834D01*
X64465314Y-44056092D01*
X64453683Y-44167563D01*
X64438600Y-44238868D01*
X64434104Y-44249563D01*
X64398275Y-44309799D01*
X64356307Y-44355401D01*
X64300650Y-44388361D01*
X64223753Y-44410673D01*
X64118065Y-44424328D01*
X63976037Y-44431319D01*
X63790116Y-44433640D01*
X63736287Y-44433723D01*
X63524682Y-44431753D01*
X63362017Y-44425356D01*
X63244010Y-44413953D01*
X63166378Y-44396964D01*
X63124840Y-44373807D01*
X63114706Y-44349499D01*
X63092918Y-44329855D01*
X63072887Y-44327101D01*
X63044117Y-44341257D01*
X63049010Y-44383631D01*
X63055437Y-44412829D01*
X63044480Y-44428807D01*
X63005770Y-44434352D01*
X62928932Y-44432249D01*
X62878278Y-44429501D01*
X62771684Y-44418740D01*
X62688703Y-44395036D01*
X62618746Y-44350584D01*
X62551220Y-44277581D01*
X62475537Y-44168223D01*
X62434349Y-44102395D01*
X62370106Y-44007305D01*
X62316914Y-43946686D01*
X62279270Y-43924343D01*
X62261668Y-43944078D01*
X62260925Y-43955634D01*
X62246669Y-43989607D01*
X62208722Y-44054898D01*
X62154314Y-44139333D01*
X62134192Y-44169013D01*
X62040828Y-44291343D01*
X61953175Y-44371043D01*
X61858891Y-44415695D01*
X61745636Y-44432884D01*
X61703269Y-44433823D01*
X61567227Y-44433823D01*
X61567227Y-44273739D01*
X61620589Y-44273739D01*
X61623178Y-44342051D01*
X61641096Y-44372405D01*
X61689564Y-44380205D01*
X61726056Y-44380462D01*
X61813882Y-44372585D01*
X61890528Y-44353290D01*
X61898478Y-44349955D01*
X61940524Y-44315474D01*
X62001712Y-44245999D01*
X62073341Y-44152057D01*
X62130044Y-44069808D01*
X62196554Y-43970167D01*
X62251986Y-43889426D01*
X62290084Y-43836543D01*
X62304314Y-43820168D01*
X62321890Y-43841086D01*
X62361471Y-43897438D01*
X62416443Y-43979619D01*
X62457119Y-44042065D01*
X62549103Y-44178150D01*
X62625708Y-44273212D01*
X62695331Y-44334001D01*
X62766369Y-44367264D01*
X62847220Y-44379750D01*
X62878178Y-44380462D01*
X63007984Y-44380462D01*
X63007984Y-44275350D01*
X63004772Y-44207375D01*
X62985271Y-44175969D01*
X62934683Y-44164361D01*
X62907931Y-44161957D01*
X62864211Y-44155827D01*
X62827268Y-44140611D01*
X62789449Y-44108742D01*
X62743099Y-44052648D01*
X62680564Y-43964763D01*
X62623011Y-43880199D01*
X62438143Y-43606722D01*
X62500795Y-43606722D01*
X62667677Y-43859557D01*
X62743258Y-43971520D01*
X62798447Y-44045310D01*
X62840389Y-44088461D01*
X62876226Y-44108510D01*
X62907931Y-44113024D01*
X62981303Y-44113655D01*
X62981303Y-43916201D01*
X63034664Y-43916201D01*
X63041507Y-44076940D01*
X63061897Y-44188268D01*
X63075021Y-44221026D01*
X63105906Y-44272555D01*
X63143140Y-44311530D01*
X63194172Y-44339696D01*
X63266449Y-44358797D01*
X63367419Y-44370579D01*
X63504531Y-44376785D01*
X63685232Y-44379162D01*
X63751040Y-44379394D01*
X64240631Y-44380462D01*
X64331345Y-44289748D01*
X64422059Y-44199033D01*
X64422059Y-43606722D01*
X64422059Y-43014411D01*
X64331345Y-42923697D01*
X64240631Y-42832983D01*
X63743431Y-42832983D01*
X63563168Y-42833619D01*
X63428254Y-42835957D01*
X63330688Y-42840637D01*
X63262467Y-42848303D01*
X63215590Y-42859597D01*
X63182056Y-42875160D01*
X63176829Y-42878458D01*
X63115997Y-42933270D01*
X63073945Y-43010277D01*
X63048189Y-43117990D01*
X63036246Y-43264923D01*
X63034664Y-43365739D01*
X63035635Y-43488280D01*
X63039645Y-43566936D01*
X63048339Y-43611164D01*
X63063361Y-43630423D01*
X63081355Y-43634214D01*
X63113818Y-43637237D01*
X63099573Y-43651399D01*
X63081355Y-43662221D01*
X63057884Y-43684765D01*
X63043661Y-43726389D01*
X63036614Y-43798378D01*
X63034666Y-43912020D01*
X63034664Y-43916201D01*
X62981303Y-43916201D01*
X62981303Y-43606722D01*
X62981303Y-43099790D01*
X62907931Y-43100421D01*
X62871601Y-43106522D01*
X62835369Y-43129183D01*
X62792090Y-43175939D01*
X62734623Y-43254325D01*
X62667677Y-43353887D01*
X62500795Y-43606722D01*
X62438143Y-43606722D01*
X62623011Y-43333245D01*
X62701443Y-43218580D01*
X62758328Y-43141009D01*
X62801321Y-43092963D01*
X62838075Y-43066874D01*
X62876245Y-43055173D01*
X62907931Y-43051488D01*
X62972381Y-43042780D01*
X63000739Y-43019946D01*
X63007803Y-42966214D01*
X63007984Y-42938095D01*
X63007984Y-42832983D01*
X62878178Y-42832983D01*
X62792124Y-42839984D01*
X62718715Y-42865485D01*
X62649554Y-42916235D01*
X62576242Y-42998983D01*
X62490384Y-43120477D01*
X62457119Y-43171380D01*
X62395711Y-43265160D01*
X62345412Y-43339327D01*
X62312838Y-43384276D01*
X62304314Y-43393277D01*
X62286698Y-43372408D01*
X62246232Y-43315776D01*
X62189169Y-43232340D01*
X62130044Y-43143636D01*
X62041544Y-43015401D01*
X61968624Y-42927339D01*
X61902073Y-42872366D01*
X61832683Y-42843403D01*
X61751243Y-42833366D01*
X61726056Y-42832983D01*
X61658548Y-42835603D01*
X61628551Y-42853734D01*
X61620842Y-42902779D01*
X61620589Y-42939706D01*
X61623988Y-43008289D01*
X61641147Y-43038861D01*
X61682508Y-43046669D01*
X61693960Y-43046837D01*
X61758977Y-43053845D01*
X61796262Y-43066847D01*
X61824182Y-43097593D01*
X61871719Y-43161192D01*
X61931460Y-43246480D01*
X61995991Y-43342291D01*
X62057899Y-43437462D01*
X62109772Y-43520827D01*
X62144194Y-43581221D01*
X62154202Y-43605921D01*
X62140150Y-43637887D01*
X62101896Y-43704230D01*
X62045295Y-43795238D01*
X61976709Y-43900431D01*
X61900395Y-44013577D01*
X61845392Y-44089263D01*
X61804224Y-44134958D01*
X61769416Y-44158133D01*
X61733490Y-44166257D01*
X61709902Y-44167017D01*
X61652702Y-44170504D01*
X61627281Y-44191212D01*
X61620776Y-44244508D01*
X61620589Y-44273739D01*
X61567227Y-44273739D01*
X61567227Y-44113655D01*
X61669725Y-44113655D01*
X61715224Y-44111847D01*
X61751298Y-44101257D01*
X61786061Y-44074139D01*
X61827625Y-44022744D01*
X61884104Y-43939325D01*
X61935460Y-43859902D01*
X62098699Y-43606149D01*
X61933684Y-43352969D01*
X61861516Y-43243445D01*
X61809997Y-43171150D01*
X61771024Y-43128361D01*
X61736491Y-43107358D01*
X61698292Y-43100417D01*
X61667948Y-43099790D01*
X61567227Y-43099790D01*
X61567227Y-42939706D01*
X61567227Y-42779622D01*
X61703269Y-42779622D01*
X61825223Y-42789609D01*
X61924248Y-42824626D01*
X62012683Y-42892258D01*
X62102870Y-43000088D01*
X62134192Y-43044431D01*
X62192411Y-43132483D01*
X62236529Y-43205365D01*
X62259317Y-43250905D01*
X62260925Y-43257811D01*
X62272989Y-43288325D01*
X62306185Y-43275839D01*
X62356018Y-43224154D01*
X62417994Y-43137075D01*
X62434349Y-43111050D01*
X62517483Y-42982010D01*
X62587506Y-42892975D01*
X62655008Y-42836141D01*
X62730579Y-42803705D01*
X62824811Y-42787862D01*
X62878278Y-42783944D01*
X62976000Y-42779274D01*
X63030853Y-42780976D01*
G37*
G36*
X56990489Y-42861714D02*
G01*
X57110627Y-42867297D01*
X57203659Y-42875560D01*
X57256477Y-42885652D01*
X57256549Y-42885679D01*
X57323911Y-42922971D01*
X57372582Y-42980868D01*
X57405038Y-43066831D01*
X57423755Y-43188325D01*
X57431212Y-43352812D01*
X57431623Y-43413288D01*
X57431723Y-43740126D01*
X57351681Y-43740126D01*
X57271639Y-43740126D01*
X57271639Y-43411953D01*
X57268840Y-43242990D01*
X57260415Y-43126637D01*
X57246324Y-43062436D01*
X57239622Y-43051764D01*
X57193809Y-43034877D01*
X57098222Y-43024113D01*
X56956134Y-43019814D01*
X56932794Y-43019748D01*
X56657984Y-43019748D01*
X56657984Y-43686764D01*
X56657984Y-44353781D01*
X56591282Y-44353781D01*
X56524580Y-44353781D01*
X56524580Y-43606722D01*
X56524580Y-42859664D01*
X56856352Y-42859664D01*
X56990489Y-42861714D01*
G37*
G36*
X57771039Y-42863876D02*
G01*
X57890017Y-42869161D01*
X57968448Y-42876896D01*
X58019137Y-42890477D01*
X58054890Y-42913301D01*
X58087741Y-42947864D01*
X58107581Y-42971991D01*
X58122857Y-42997025D01*
X58134165Y-43029827D01*
X58142102Y-43077262D01*
X58147265Y-43146193D01*
X58150250Y-43243484D01*
X58151654Y-43375997D01*
X58152074Y-43550596D01*
X58152101Y-43688252D01*
X58152101Y-44353781D01*
X58085400Y-44353781D01*
X58018698Y-44353781D01*
X58018698Y-43738372D01*
X58017482Y-43532512D01*
X58013983Y-43357637D01*
X58008429Y-43219201D01*
X58001044Y-43122656D01*
X57992055Y-43073458D01*
X57991078Y-43071355D01*
X57972061Y-43046930D01*
X57939393Y-43031614D01*
X57882030Y-43023362D01*
X57788930Y-43020129D01*
X57712319Y-43019748D01*
X57461180Y-43019748D01*
X57489939Y-42937248D01*
X57518698Y-42854749D01*
X57771039Y-42863876D01*
G37*
G36*
X59138254Y-42861981D02*
G01*
X59284746Y-42870104D01*
X59392525Y-42885785D01*
X59468838Y-42910781D01*
X59520931Y-42946844D01*
X59556051Y-42995729D01*
X59562480Y-43008948D01*
X59573474Y-43060613D01*
X59582076Y-43155125D01*
X59588286Y-43282022D01*
X59592103Y-43430844D01*
X59593529Y-43591131D01*
X59592562Y-43752421D01*
X59589203Y-43904253D01*
X59583452Y-44036167D01*
X59575309Y-44137702D01*
X59564774Y-44198396D01*
X59562480Y-44204496D01*
X59530796Y-44256103D01*
X59484423Y-44294675D01*
X59416154Y-44321915D01*
X59318782Y-44339527D01*
X59185100Y-44349214D01*
X59007903Y-44352677D01*
X58935149Y-44352737D01*
X58734734Y-44349949D01*
X58584727Y-44342571D01*
X58482354Y-44330403D01*
X58431602Y-44316537D01*
X58365876Y-44273969D01*
X58321844Y-44208108D01*
X58296309Y-44110235D01*
X58286072Y-43971632D01*
X58285505Y-43918144D01*
X58286297Y-43809989D01*
X58291074Y-43743058D01*
X58303433Y-43705218D01*
X58326972Y-43684334D01*
X58358876Y-43670691D01*
X58432248Y-43642920D01*
X58423752Y-43845066D01*
X58423209Y-43954385D01*
X58429773Y-44051852D01*
X58442043Y-44117507D01*
X58443102Y-44120455D01*
X58470949Y-44193697D01*
X58919844Y-44193697D01*
X59109648Y-44192135D01*
X59249512Y-44187301D01*
X59342769Y-44178973D01*
X59392753Y-44166929D01*
X59400757Y-44161680D01*
X59412473Y-44123772D01*
X59421715Y-44042740D01*
X59428483Y-43928764D01*
X59432778Y-43792025D01*
X59434599Y-43642702D01*
X59433946Y-43490976D01*
X59430819Y-43347027D01*
X59425219Y-43221035D01*
X59417145Y-43123180D01*
X59406597Y-43063643D01*
X59400757Y-43051764D01*
X59365430Y-43038338D01*
X59288021Y-43028708D01*
X59165198Y-43022650D01*
X58993626Y-43019944D01*
X58919844Y-43019748D01*
X58470949Y-43019748D01*
X58444928Y-43088186D01*
X58432390Y-43147535D01*
X58423164Y-43241468D01*
X58418990Y-43351234D01*
X58418908Y-43368333D01*
X58418183Y-43473669D01*
X58413711Y-43536576D01*
X58402050Y-43567986D01*
X58379753Y-43578829D01*
X58352206Y-43580042D01*
X58321370Y-43578296D01*
X58301894Y-43566412D01*
X58291167Y-43534420D01*
X58286580Y-43472352D01*
X58285523Y-43370237D01*
X58285505Y-43325250D01*
X58290722Y-43164503D01*
X58308412Y-43048113D01*
X58341632Y-42967915D01*
X58393440Y-42915743D01*
X58448759Y-42889237D01*
X58506637Y-42878435D01*
X58606812Y-42869509D01*
X58738236Y-42863114D01*
X58889858Y-42859910D01*
X58945800Y-42859664D01*
X59138254Y-42861981D01*
G37*
G36*
X60253204Y-42860057D02*
G01*
X60457841Y-42860904D01*
X60616150Y-42864139D01*
X60735158Y-42871297D01*
X60821890Y-42883908D01*
X60883374Y-42903508D01*
X60926636Y-42931627D01*
X60958703Y-42969800D01*
X60986601Y-43019560D01*
X60986881Y-43020119D01*
X61003893Y-43061534D01*
X61016312Y-43113536D01*
X61024811Y-43184595D01*
X61030065Y-43283182D01*
X61032746Y-43417768D01*
X61033529Y-43596823D01*
X61033531Y-43606722D01*
X61032372Y-43825406D01*
X61025758Y-43996561D01*
X61008986Y-44126016D01*
X60977354Y-44219598D01*
X60926156Y-44283135D01*
X60850691Y-44322454D01*
X60746254Y-44343384D01*
X60608141Y-44351753D01*
X60431650Y-44353387D01*
X60430911Y-44353388D01*
X60054994Y-44353781D01*
X60024031Y-44285824D01*
X60001401Y-44232299D01*
X59993068Y-44205782D01*
X60018226Y-44201615D01*
X60087612Y-44198070D01*
X60192095Y-44195416D01*
X60322543Y-44193924D01*
X60401282Y-44193697D01*
X60583835Y-44191853D01*
X60716002Y-44186184D01*
X60800637Y-44176480D01*
X60840593Y-44162536D01*
X60841513Y-44161680D01*
X60853229Y-44123772D01*
X60862471Y-44042740D01*
X60869240Y-43928764D01*
X60873534Y-43792025D01*
X60875355Y-43642702D01*
X60874702Y-43490976D01*
X60871576Y-43347027D01*
X60865975Y-43221035D01*
X60857901Y-43123180D01*
X60847353Y-43063643D01*
X60841513Y-43051764D01*
X60807424Y-43038751D01*
X60732535Y-43029295D01*
X60613321Y-43023171D01*
X60446255Y-43020159D01*
X60334580Y-43019748D01*
X59859664Y-43019748D01*
X59859664Y-43686764D01*
X59859664Y-44353781D01*
X59779622Y-44353781D01*
X59699580Y-44353781D01*
X59699580Y-43606722D01*
X59699580Y-42859664D01*
X60253204Y-42860057D01*
G37*
G36*
X64038884Y-43054208D02*
G01*
X64128297Y-43062247D01*
X64171078Y-43075193D01*
X64171694Y-43075683D01*
X64184980Y-43112712D01*
X64195619Y-43192653D01*
X64203564Y-43305118D01*
X64208766Y-43439722D01*
X64211176Y-43586078D01*
X64210748Y-43733798D01*
X64207433Y-43872497D01*
X64201182Y-43991788D01*
X64191949Y-44081283D01*
X64179684Y-44130598D01*
X64176597Y-44135000D01*
X64137962Y-44148168D01*
X64058935Y-44158131D01*
X63950495Y-44164916D01*
X63823620Y-44168549D01*
X63689290Y-44169056D01*
X63558482Y-44166462D01*
X63442176Y-44160795D01*
X63351351Y-44152080D01*
X63296985Y-44140344D01*
X63286697Y-44132879D01*
X63282996Y-44096607D01*
X63280449Y-44015801D01*
X63279148Y-43899278D01*
X63279187Y-43755855D01*
X63280658Y-43594350D01*
X63280864Y-43579255D01*
X63287571Y-43099790D01*
X63328152Y-43099790D01*
X63328152Y-43606722D01*
X63328152Y-44113655D01*
X63741702Y-44113655D01*
X64155252Y-44113655D01*
X64155252Y-43606722D01*
X64155252Y-43099790D01*
X63741702Y-43099790D01*
X63328152Y-43099790D01*
X63287571Y-43099790D01*
X63288131Y-43059769D01*
X63711452Y-43052405D01*
X63900662Y-43050964D01*
X64038884Y-43054208D01*
G37*
%TO.C,REF\u002A\u002A*%
D14*
X60350000Y-25150000D02*
X63650000Y-25150000D01*
X63650000Y-23850000D01*
X60350000Y-23850000D01*
X60350000Y-25150000D01*
X60625000Y-26015000D02*
X65850000Y-26015000D01*
X65850000Y-41365000D01*
X60625000Y-41365000D01*
X60625000Y-26015000D01*
D12*
%TO.C,100*%
X57637742Y-34377500D02*
X58112258Y-34377500D01*
X57637742Y-35422500D02*
X58112258Y-35422500D01*
X57587742Y-29477500D02*
X58062258Y-29477500D01*
X57587742Y-30522500D02*
X58062258Y-30522500D01*
%TO.C,REF\u002A\u002A*%
X37130000Y-25710000D02*
X37130000Y-49210000D01*
X37130000Y-49210000D02*
X55130000Y-49210000D01*
X55130000Y-25710000D02*
X37130000Y-25710000D01*
X55130000Y-49210000D02*
X55130000Y-25710000D01*
%TO.C,100*%
X57637742Y-31977500D02*
X58112258Y-31977500D01*
X57637742Y-33022500D02*
X58112258Y-33022500D01*
X57587742Y-26777500D02*
X58062258Y-26777500D01*
X57587742Y-27822500D02*
X58062258Y-27822500D01*
%TD*%
M02*
