%TF.GenerationSoftware,KiCad,Pcbnew,8.0.1*%
%TF.CreationDate,2024-03-19T13:28:27+00:00*%
%TF.ProjectId,pcb,7063622e-6b69-4636-9164-5f7063625858,rev?*%
%TF.SameCoordinates,Original*%
%TF.FileFunction,Copper,L2,Bot*%
%TF.FilePolarity,Positive*%
%FSLAX46Y46*%
G04 Gerber Fmt 4.6, Leading zero omitted, Abs format (unit mm)*
G04 Created by KiCad (PCBNEW 8.0.1) date 2024-03-19 13:28:27*
%MOMM*%
%LPD*%
G01*
G04 APERTURE LIST*
%TA.AperFunction,ComponentPad*%
%ADD10O,1.700000X1.700000*%
%TD*%
%TA.AperFunction,ComponentPad*%
%ADD11R,1.700000X1.700000*%
%TD*%
%TA.AperFunction,ViaPad*%
%ADD12C,0.600000*%
%TD*%
%TA.AperFunction,Conductor*%
%ADD13C,0.300000*%
%TD*%
G04 APERTURE END LIST*
D10*
%TO.P,REF\u002A\u002A,1*%
%TO.N,GPIO4*%
X66990000Y-40030000D03*
D11*
%TO.P,REF\u002A\u002A,2*%
%TO.N,GND*%
X64450000Y-40030000D03*
D10*
%TO.P,REF\u002A\u002A,3*%
%TO.N,GPIO5*%
X66990000Y-37490000D03*
%TO.P,REF\u002A\u002A,4*%
%TO.N,N/C*%
X64450000Y-37490000D03*
%TO.P,REF\u002A\u002A,5*%
X66990000Y-34950000D03*
%TO.P,REF\u002A\u002A,6*%
%TO.N,+5V*%
X64450000Y-34950000D03*
%TO.P,REF\u002A\u002A,7*%
%TO.N,LAD3*%
X66990000Y-32410000D03*
%TO.P,REF\u002A\u002A,8*%
%TO.N,LAD2*%
X64450000Y-32410000D03*
%TO.P,REF\u002A\u002A,9*%
%TO.N,N/C*%
X66990000Y-29870000D03*
%TO.P,REF\u002A\u002A,10*%
%TO.N,LAD1*%
X64450000Y-29870000D03*
%TO.P,REF\u002A\u002A,11*%
%TO.N,LAD0*%
X66990000Y-27330000D03*
%TO.P,REF\u002A\u002A,12*%
%TO.N,N/C*%
X64450000Y-27330000D03*
%TD*%
D12*
%TO.N,+5V*%
X37900000Y-25750000D03*
%TO.N,GND*%
X36000000Y-30500000D03*
X36000000Y-29500000D03*
X36000000Y-30000000D03*
%TD*%
D13*
%TO.N,+5V*%
X37900000Y-25100000D02*
X37900000Y-25750000D01*
X61000000Y-24500000D02*
X38500000Y-24500000D01*
X62000000Y-32500000D02*
X62000000Y-25500000D01*
X38500000Y-24500000D02*
X37900000Y-25100000D01*
X64450000Y-34950000D02*
X62000000Y-32500000D01*
X62000000Y-25500000D02*
X61000000Y-24500000D01*
%TD*%
%TA.AperFunction,Conductor*%
%TO.N,GND*%
G36*
X38130074Y-24020185D02*
G01*
X38175829Y-24072989D01*
X38185773Y-24142147D01*
X38156748Y-24205703D01*
X38150716Y-24212181D01*
X37539513Y-24823383D01*
X37539509Y-24823389D01*
X37480201Y-24926112D01*
X37480200Y-24926117D01*
X37449500Y-25040691D01*
X37449500Y-25308580D01*
X37429815Y-25375619D01*
X37423876Y-25384066D01*
X37375464Y-25447157D01*
X37314956Y-25593237D01*
X37314955Y-25593239D01*
X37294318Y-25749998D01*
X37294318Y-25750001D01*
X37314955Y-25906760D01*
X37314956Y-25906762D01*
X37375464Y-26052841D01*
X37471718Y-26178282D01*
X37597159Y-26274536D01*
X37743238Y-26335044D01*
X37821619Y-26345363D01*
X37899999Y-26355682D01*
X37900000Y-26355682D01*
X37900001Y-26355682D01*
X37952254Y-26348802D01*
X38056762Y-26335044D01*
X38202841Y-26274536D01*
X38328282Y-26178282D01*
X38424536Y-26052841D01*
X38485044Y-25906762D01*
X38505682Y-25750000D01*
X38500627Y-25711607D01*
X38485044Y-25593239D01*
X38485044Y-25593238D01*
X38424536Y-25447159D01*
X38424535Y-25447158D01*
X38424535Y-25447157D01*
X38388882Y-25400694D01*
X38363687Y-25335525D01*
X38377725Y-25267080D01*
X38399573Y-25237529D01*
X38650284Y-24986819D01*
X38711607Y-24953334D01*
X38737965Y-24950500D01*
X60762035Y-24950500D01*
X60829074Y-24970185D01*
X60849716Y-24986819D01*
X61513181Y-25650284D01*
X61546666Y-25711607D01*
X61549500Y-25737965D01*
X61549500Y-32559309D01*
X61566381Y-32622310D01*
X61580201Y-32673887D01*
X61639511Y-32776614D01*
X61639513Y-32776616D01*
X63326142Y-34463245D01*
X63359627Y-34524568D01*
X63357727Y-34584860D01*
X63314244Y-34737687D01*
X63294571Y-34949999D01*
X63294571Y-34950000D01*
X63314244Y-35162310D01*
X63372596Y-35367392D01*
X63372596Y-35367394D01*
X63467632Y-35558253D01*
X63467634Y-35558255D01*
X63596128Y-35728407D01*
X63753698Y-35872052D01*
X63934981Y-35984298D01*
X64133802Y-36061321D01*
X64330613Y-36098111D01*
X64392893Y-36129779D01*
X64428166Y-36190092D01*
X64425232Y-36259900D01*
X64385023Y-36317040D01*
X64330613Y-36341888D01*
X64133802Y-36378679D01*
X64133799Y-36378679D01*
X64133799Y-36378680D01*
X63934982Y-36455701D01*
X63934980Y-36455702D01*
X63753699Y-36567947D01*
X63596127Y-36711593D01*
X63467632Y-36881746D01*
X63372596Y-37072605D01*
X63372596Y-37072607D01*
X63314244Y-37277689D01*
X63294571Y-37489999D01*
X63294571Y-37490000D01*
X63314244Y-37702310D01*
X63372596Y-37907392D01*
X63372596Y-37907394D01*
X63467632Y-38098253D01*
X63467634Y-38098255D01*
X63596128Y-38268407D01*
X63753698Y-38412052D01*
X63753700Y-38412053D01*
X63753701Y-38412054D01*
X63815911Y-38450573D01*
X63862547Y-38502601D01*
X63873651Y-38571582D01*
X63845698Y-38635617D01*
X63787563Y-38674373D01*
X63750634Y-38680000D01*
X63552155Y-38680000D01*
X63492627Y-38686401D01*
X63492620Y-38686403D01*
X63357913Y-38736645D01*
X63357906Y-38736649D01*
X63242812Y-38822809D01*
X63242809Y-38822812D01*
X63156649Y-38937906D01*
X63156645Y-38937913D01*
X63106403Y-39072620D01*
X63106401Y-39072627D01*
X63100000Y-39132155D01*
X63100000Y-39780000D01*
X64016988Y-39780000D01*
X63984075Y-39837007D01*
X63950000Y-39964174D01*
X63950000Y-40095826D01*
X63984075Y-40222993D01*
X64016988Y-40280000D01*
X63100000Y-40280000D01*
X63100000Y-40927844D01*
X63106401Y-40987372D01*
X63106403Y-40987379D01*
X63156645Y-41122086D01*
X63156649Y-41122093D01*
X63242809Y-41237187D01*
X63242812Y-41237190D01*
X63357906Y-41323350D01*
X63357913Y-41323354D01*
X63492620Y-41373596D01*
X63492627Y-41373598D01*
X63552155Y-41379999D01*
X63552172Y-41380000D01*
X64200000Y-41380000D01*
X64200000Y-40463012D01*
X64257007Y-40495925D01*
X64384174Y-40530000D01*
X64515826Y-40530000D01*
X64642993Y-40495925D01*
X64700000Y-40463012D01*
X64700000Y-41380000D01*
X65347828Y-41380000D01*
X65347844Y-41379999D01*
X65407372Y-41373598D01*
X65407379Y-41373596D01*
X65542086Y-41323354D01*
X65542093Y-41323350D01*
X65657187Y-41237190D01*
X65657190Y-41237187D01*
X65743350Y-41122093D01*
X65743354Y-41122086D01*
X65793596Y-40987379D01*
X65793598Y-40987372D01*
X65799999Y-40927844D01*
X65800000Y-40927827D01*
X65800000Y-40733268D01*
X65819685Y-40666229D01*
X65872489Y-40620474D01*
X65941647Y-40610530D01*
X66005203Y-40639555D01*
X66022950Y-40658537D01*
X66136128Y-40808407D01*
X66293698Y-40952052D01*
X66474981Y-41064298D01*
X66673802Y-41141321D01*
X66883390Y-41180500D01*
X66883392Y-41180500D01*
X67096608Y-41180500D01*
X67096610Y-41180500D01*
X67306198Y-41141321D01*
X67505019Y-41064298D01*
X67686302Y-40952052D01*
X67843872Y-40808407D01*
X67972366Y-40638255D01*
X68026270Y-40530000D01*
X68067403Y-40447394D01*
X68067403Y-40447393D01*
X68067405Y-40447389D01*
X68125756Y-40242310D01*
X68145429Y-40030000D01*
X68125756Y-39817690D01*
X68067405Y-39612611D01*
X68067403Y-39612606D01*
X68067403Y-39612605D01*
X67972367Y-39421746D01*
X67843872Y-39251593D01*
X67712874Y-39132172D01*
X67686302Y-39107948D01*
X67505019Y-38995702D01*
X67505017Y-38995701D01*
X67355829Y-38937906D01*
X67306198Y-38918679D01*
X67109385Y-38881888D01*
X67047106Y-38850221D01*
X67011833Y-38789908D01*
X67014767Y-38720100D01*
X67054976Y-38662960D01*
X67109384Y-38638111D01*
X67306198Y-38601321D01*
X67505019Y-38524298D01*
X67686302Y-38412052D01*
X67843872Y-38268407D01*
X67972366Y-38098255D01*
X68067405Y-37907389D01*
X68125756Y-37702310D01*
X68145429Y-37490000D01*
X68125756Y-37277690D01*
X68067405Y-37072611D01*
X68067403Y-37072606D01*
X68067403Y-37072605D01*
X67972367Y-36881746D01*
X67843872Y-36711593D01*
X67686302Y-36567948D01*
X67505019Y-36455702D01*
X67505017Y-36455701D01*
X67405608Y-36417190D01*
X67306198Y-36378679D01*
X67109385Y-36341888D01*
X67047106Y-36310221D01*
X67011833Y-36249908D01*
X67014767Y-36180100D01*
X67054976Y-36122960D01*
X67109384Y-36098111D01*
X67306198Y-36061321D01*
X67505019Y-35984298D01*
X67686302Y-35872052D01*
X67843872Y-35728407D01*
X67972366Y-35558255D01*
X68067405Y-35367389D01*
X68125756Y-35162310D01*
X68145429Y-34950000D01*
X68125756Y-34737690D01*
X68067405Y-34532611D01*
X68067403Y-34532606D01*
X68067403Y-34532605D01*
X67972367Y-34341746D01*
X67843872Y-34171593D01*
X67686302Y-34027948D01*
X67505019Y-33915702D01*
X67505017Y-33915701D01*
X67359884Y-33859477D01*
X67306198Y-33838679D01*
X67109385Y-33801888D01*
X67047106Y-33770221D01*
X67011833Y-33709908D01*
X67014767Y-33640100D01*
X67054976Y-33582960D01*
X67109384Y-33558111D01*
X67306198Y-33521321D01*
X67505019Y-33444298D01*
X67686302Y-33332052D01*
X67843872Y-33188407D01*
X67972366Y-33018255D01*
X68067405Y-32827389D01*
X68125756Y-32622310D01*
X68145429Y-32410000D01*
X68125756Y-32197690D01*
X68067405Y-31992611D01*
X68067403Y-31992606D01*
X68067403Y-31992605D01*
X67972367Y-31801746D01*
X67843872Y-31631593D01*
X67686302Y-31487948D01*
X67505019Y-31375702D01*
X67505017Y-31375701D01*
X67405608Y-31337190D01*
X67306198Y-31298679D01*
X67109385Y-31261888D01*
X67047106Y-31230221D01*
X67011833Y-31169908D01*
X67014767Y-31100100D01*
X67054976Y-31042960D01*
X67109384Y-31018111D01*
X67306198Y-30981321D01*
X67505019Y-30904298D01*
X67686302Y-30792052D01*
X67843872Y-30648407D01*
X67972366Y-30478255D01*
X68067405Y-30287389D01*
X68125756Y-30082310D01*
X68145429Y-29870000D01*
X68125756Y-29657690D01*
X68067405Y-29452611D01*
X68067403Y-29452606D01*
X68067403Y-29452605D01*
X67972367Y-29261746D01*
X67843872Y-29091593D01*
X67686302Y-28947948D01*
X67505019Y-28835702D01*
X67505017Y-28835701D01*
X67405608Y-28797190D01*
X67306198Y-28758679D01*
X67109385Y-28721888D01*
X67047106Y-28690221D01*
X67011833Y-28629908D01*
X67014767Y-28560100D01*
X67054976Y-28502960D01*
X67109384Y-28478111D01*
X67306198Y-28441321D01*
X67505019Y-28364298D01*
X67686302Y-28252052D01*
X67843872Y-28108407D01*
X67972366Y-27938255D01*
X68067405Y-27747389D01*
X68125756Y-27542310D01*
X68145429Y-27330000D01*
X68125756Y-27117690D01*
X68067405Y-26912611D01*
X68067403Y-26912606D01*
X68067403Y-26912605D01*
X67972367Y-26721746D01*
X67843872Y-26551593D01*
X67686302Y-26407948D01*
X67505019Y-26295702D01*
X67505017Y-26295701D01*
X67405608Y-26257190D01*
X67306198Y-26218679D01*
X67096610Y-26179500D01*
X66883390Y-26179500D01*
X66673802Y-26218679D01*
X66673799Y-26218679D01*
X66673799Y-26218680D01*
X66474982Y-26295701D01*
X66474980Y-26295702D01*
X66293699Y-26407947D01*
X66136127Y-26551593D01*
X66007632Y-26721746D01*
X65912596Y-26912605D01*
X65912596Y-26912607D01*
X65854244Y-27117689D01*
X65843471Y-27233951D01*
X65817685Y-27298888D01*
X65773130Y-27330804D01*
X65809503Y-27351668D01*
X65841693Y-27413681D01*
X65843471Y-27426048D01*
X65854244Y-27542310D01*
X65912596Y-27747392D01*
X65912596Y-27747394D01*
X66007632Y-27938253D01*
X66007634Y-27938255D01*
X66136128Y-28108407D01*
X66293698Y-28252052D01*
X66474981Y-28364298D01*
X66673802Y-28441321D01*
X66870613Y-28478111D01*
X66932893Y-28509779D01*
X66968166Y-28570092D01*
X66965232Y-28639900D01*
X66925023Y-28697040D01*
X66870613Y-28721888D01*
X66673802Y-28758679D01*
X66673799Y-28758679D01*
X66673799Y-28758680D01*
X66474982Y-28835701D01*
X66474980Y-28835702D01*
X66293699Y-28947947D01*
X66136127Y-29091593D01*
X66007632Y-29261746D01*
X65912596Y-29452605D01*
X65912596Y-29452607D01*
X65854244Y-29657689D01*
X65843471Y-29773951D01*
X65817685Y-29838888D01*
X65773130Y-29870804D01*
X65809503Y-29891668D01*
X65841693Y-29953681D01*
X65843471Y-29966048D01*
X65854244Y-30082310D01*
X65912596Y-30287392D01*
X65912596Y-30287394D01*
X66007632Y-30478253D01*
X66007634Y-30478255D01*
X66136128Y-30648407D01*
X66293698Y-30792052D01*
X66474981Y-30904298D01*
X66673802Y-30981321D01*
X66870613Y-31018111D01*
X66932893Y-31049779D01*
X66968166Y-31110092D01*
X66965232Y-31179900D01*
X66925023Y-31237040D01*
X66870613Y-31261888D01*
X66673802Y-31298679D01*
X66673799Y-31298679D01*
X66673799Y-31298680D01*
X66474982Y-31375701D01*
X66474980Y-31375702D01*
X66293699Y-31487947D01*
X66136127Y-31631593D01*
X66007632Y-31801746D01*
X65912596Y-31992605D01*
X65912596Y-31992607D01*
X65854244Y-32197689D01*
X65843471Y-32313951D01*
X65817685Y-32378888D01*
X65773130Y-32410804D01*
X65809503Y-32431668D01*
X65841693Y-32493681D01*
X65843470Y-32506047D01*
X65854244Y-32622310D01*
X65898148Y-32776613D01*
X65912596Y-32827392D01*
X65912596Y-32827394D01*
X66007632Y-33018253D01*
X66064125Y-33093061D01*
X66136128Y-33188407D01*
X66293698Y-33332052D01*
X66474981Y-33444298D01*
X66673802Y-33521321D01*
X66870613Y-33558111D01*
X66932893Y-33589779D01*
X66968166Y-33650092D01*
X66965232Y-33719900D01*
X66925023Y-33777040D01*
X66870613Y-33801888D01*
X66673802Y-33838679D01*
X66673799Y-33838679D01*
X66673799Y-33838680D01*
X66474982Y-33915701D01*
X66474980Y-33915702D01*
X66293699Y-34027947D01*
X66136127Y-34171593D01*
X66007632Y-34341746D01*
X65912596Y-34532605D01*
X65912596Y-34532607D01*
X65854244Y-34737689D01*
X65843471Y-34853951D01*
X65817685Y-34918888D01*
X65773130Y-34950804D01*
X65809503Y-34971668D01*
X65841693Y-35033681D01*
X65843471Y-35046048D01*
X65854244Y-35162310D01*
X65912596Y-35367392D01*
X65912596Y-35367394D01*
X66007632Y-35558253D01*
X66007634Y-35558255D01*
X66136128Y-35728407D01*
X66293698Y-35872052D01*
X66474981Y-35984298D01*
X66673802Y-36061321D01*
X66870613Y-36098111D01*
X66932893Y-36129779D01*
X66968166Y-36190092D01*
X66965232Y-36259900D01*
X66925023Y-36317040D01*
X66870613Y-36341888D01*
X66673802Y-36378679D01*
X66673799Y-36378679D01*
X66673799Y-36378680D01*
X66474982Y-36455701D01*
X66474980Y-36455702D01*
X66293699Y-36567947D01*
X66136127Y-36711593D01*
X66007632Y-36881746D01*
X65912596Y-37072605D01*
X65912596Y-37072607D01*
X65854244Y-37277689D01*
X65843471Y-37393951D01*
X65817685Y-37458888D01*
X65773130Y-37490804D01*
X65809503Y-37511668D01*
X65841693Y-37573681D01*
X65843471Y-37586048D01*
X65854244Y-37702310D01*
X65912596Y-37907392D01*
X65912596Y-37907394D01*
X66007632Y-38098253D01*
X66007634Y-38098255D01*
X66136128Y-38268407D01*
X66293698Y-38412052D01*
X66474981Y-38524298D01*
X66673802Y-38601321D01*
X66870613Y-38638111D01*
X66932893Y-38669779D01*
X66968166Y-38730092D01*
X66965232Y-38799900D01*
X66925023Y-38857040D01*
X66870613Y-38881888D01*
X66673802Y-38918679D01*
X66673799Y-38918679D01*
X66673799Y-38918680D01*
X66474982Y-38995701D01*
X66474980Y-38995702D01*
X66293699Y-39107947D01*
X66136127Y-39251593D01*
X66022954Y-39401458D01*
X65966845Y-39443094D01*
X65897133Y-39447785D01*
X65835951Y-39414043D01*
X65802724Y-39352579D01*
X65800000Y-39326731D01*
X65800000Y-39132172D01*
X65799999Y-39132155D01*
X65793598Y-39072627D01*
X65793596Y-39072620D01*
X65743354Y-38937913D01*
X65743350Y-38937906D01*
X65657190Y-38822812D01*
X65657187Y-38822809D01*
X65542093Y-38736649D01*
X65542086Y-38736645D01*
X65407379Y-38686403D01*
X65407372Y-38686401D01*
X65347844Y-38680000D01*
X65149366Y-38680000D01*
X65082327Y-38660315D01*
X65036572Y-38607511D01*
X65026628Y-38538353D01*
X65055653Y-38474797D01*
X65084089Y-38450573D01*
X65104449Y-38437966D01*
X65146302Y-38412052D01*
X65303872Y-38268407D01*
X65432366Y-38098255D01*
X65527405Y-37907389D01*
X65585756Y-37702310D01*
X65596529Y-37586047D01*
X65622315Y-37521111D01*
X65666869Y-37489194D01*
X65630497Y-37468331D01*
X65598307Y-37406318D01*
X65596529Y-37393951D01*
X65595849Y-37386613D01*
X65585756Y-37277690D01*
X65527405Y-37072611D01*
X65527403Y-37072606D01*
X65527403Y-37072605D01*
X65432367Y-36881746D01*
X65303872Y-36711593D01*
X65146302Y-36567948D01*
X64965019Y-36455702D01*
X64965017Y-36455701D01*
X64865608Y-36417190D01*
X64766198Y-36378679D01*
X64569385Y-36341888D01*
X64507106Y-36310221D01*
X64471833Y-36249908D01*
X64474767Y-36180100D01*
X64514976Y-36122960D01*
X64569384Y-36098111D01*
X64766198Y-36061321D01*
X64965019Y-35984298D01*
X65146302Y-35872052D01*
X65303872Y-35728407D01*
X65432366Y-35558255D01*
X65527405Y-35367389D01*
X65585756Y-35162310D01*
X65596529Y-35046047D01*
X65622315Y-34981111D01*
X65666869Y-34949194D01*
X65630497Y-34928331D01*
X65598307Y-34866318D01*
X65596529Y-34853951D01*
X65595849Y-34846613D01*
X65585756Y-34737690D01*
X65527405Y-34532611D01*
X65527403Y-34532606D01*
X65527403Y-34532605D01*
X65432367Y-34341746D01*
X65303872Y-34171593D01*
X65146302Y-34027948D01*
X64965019Y-33915702D01*
X64965017Y-33915701D01*
X64819884Y-33859477D01*
X64766198Y-33838679D01*
X64569385Y-33801888D01*
X64507106Y-33770221D01*
X64471833Y-33709908D01*
X64474767Y-33640100D01*
X64514976Y-33582960D01*
X64569384Y-33558111D01*
X64766198Y-33521321D01*
X64965019Y-33444298D01*
X65146302Y-33332052D01*
X65303872Y-33188407D01*
X65432366Y-33018255D01*
X65527405Y-32827389D01*
X65585756Y-32622310D01*
X65596529Y-32506047D01*
X65622315Y-32441111D01*
X65666869Y-32409194D01*
X65630497Y-32388331D01*
X65598307Y-32326318D01*
X65596529Y-32313951D01*
X65591718Y-32262035D01*
X65585756Y-32197690D01*
X65527405Y-31992611D01*
X65527403Y-31992606D01*
X65527403Y-31992605D01*
X65432367Y-31801746D01*
X65303872Y-31631593D01*
X65146302Y-31487948D01*
X64965019Y-31375702D01*
X64965017Y-31375701D01*
X64865608Y-31337190D01*
X64766198Y-31298679D01*
X64569385Y-31261888D01*
X64507106Y-31230221D01*
X64471833Y-31169908D01*
X64474767Y-31100100D01*
X64514976Y-31042960D01*
X64569384Y-31018111D01*
X64766198Y-30981321D01*
X64965019Y-30904298D01*
X65146302Y-30792052D01*
X65303872Y-30648407D01*
X65432366Y-30478255D01*
X65527405Y-30287389D01*
X65585756Y-30082310D01*
X65596529Y-29966047D01*
X65622315Y-29901111D01*
X65666869Y-29869194D01*
X65630497Y-29848331D01*
X65598307Y-29786318D01*
X65596529Y-29773951D01*
X65595849Y-29766613D01*
X65585756Y-29657690D01*
X65527405Y-29452611D01*
X65527403Y-29452606D01*
X65527403Y-29452605D01*
X65432367Y-29261746D01*
X65303872Y-29091593D01*
X65146302Y-28947948D01*
X64965019Y-28835702D01*
X64965017Y-28835701D01*
X64865608Y-28797190D01*
X64766198Y-28758679D01*
X64569385Y-28721888D01*
X64507106Y-28690221D01*
X64471833Y-28629908D01*
X64474767Y-28560100D01*
X64514976Y-28502960D01*
X64569384Y-28478111D01*
X64766198Y-28441321D01*
X64965019Y-28364298D01*
X65146302Y-28252052D01*
X65303872Y-28108407D01*
X65432366Y-27938255D01*
X65527405Y-27747389D01*
X65585756Y-27542310D01*
X65596529Y-27426047D01*
X65622315Y-27361111D01*
X65666869Y-27329194D01*
X65630497Y-27308331D01*
X65598307Y-27246318D01*
X65596529Y-27233951D01*
X65595849Y-27226613D01*
X65585756Y-27117690D01*
X65527405Y-26912611D01*
X65527403Y-26912606D01*
X65527403Y-26912605D01*
X65432367Y-26721746D01*
X65303872Y-26551593D01*
X65146302Y-26407948D01*
X64965019Y-26295702D01*
X64965017Y-26295701D01*
X64865608Y-26257190D01*
X64766198Y-26218679D01*
X64556610Y-26179500D01*
X64343390Y-26179500D01*
X64133802Y-26218679D01*
X64133799Y-26218679D01*
X64133799Y-26218680D01*
X63934982Y-26295701D01*
X63934980Y-26295702D01*
X63753699Y-26407947D01*
X63596127Y-26551593D01*
X63467632Y-26721746D01*
X63372596Y-26912605D01*
X63372596Y-26912607D01*
X63314244Y-27117689D01*
X63294571Y-27329999D01*
X63294571Y-27330000D01*
X63314244Y-27542310D01*
X63372596Y-27747392D01*
X63372596Y-27747394D01*
X63467632Y-27938253D01*
X63467634Y-27938255D01*
X63596128Y-28108407D01*
X63753698Y-28252052D01*
X63934981Y-28364298D01*
X64133802Y-28441321D01*
X64330613Y-28478111D01*
X64392893Y-28509779D01*
X64428166Y-28570092D01*
X64425232Y-28639900D01*
X64385023Y-28697040D01*
X64330613Y-28721888D01*
X64133802Y-28758679D01*
X64133799Y-28758679D01*
X64133799Y-28758680D01*
X63934982Y-28835701D01*
X63934980Y-28835702D01*
X63753699Y-28947947D01*
X63596127Y-29091593D01*
X63467632Y-29261746D01*
X63372596Y-29452605D01*
X63372596Y-29452607D01*
X63314244Y-29657689D01*
X63294571Y-29869999D01*
X63294571Y-29870000D01*
X63314244Y-30082310D01*
X63372596Y-30287392D01*
X63372596Y-30287394D01*
X63467632Y-30478253D01*
X63467634Y-30478255D01*
X63596128Y-30648407D01*
X63753698Y-30792052D01*
X63934981Y-30904298D01*
X64133802Y-30981321D01*
X64330613Y-31018111D01*
X64392893Y-31049779D01*
X64428166Y-31110092D01*
X64425232Y-31179900D01*
X64385023Y-31237040D01*
X64330613Y-31261888D01*
X64133802Y-31298679D01*
X64133799Y-31298679D01*
X64133799Y-31298680D01*
X63934982Y-31375701D01*
X63934980Y-31375702D01*
X63753699Y-31487947D01*
X63596127Y-31631593D01*
X63467632Y-31801746D01*
X63372596Y-31992605D01*
X63372596Y-31992607D01*
X63372595Y-31992611D01*
X63314244Y-32197690D01*
X63294571Y-32410000D01*
X63314244Y-32622310D01*
X63372595Y-32827389D01*
X63438518Y-32959781D01*
X63450778Y-33028566D01*
X63423905Y-33093061D01*
X63366428Y-33132789D01*
X63296598Y-33135135D01*
X63239836Y-33102733D01*
X62486819Y-32349716D01*
X62453334Y-32288393D01*
X62450500Y-32262035D01*
X62450500Y-25440693D01*
X62450500Y-25440691D01*
X62419799Y-25326114D01*
X62417261Y-25321718D01*
X62360490Y-25223387D01*
X61349284Y-24212181D01*
X61315799Y-24150858D01*
X61320783Y-24081166D01*
X61362655Y-24025233D01*
X61428119Y-24000816D01*
X61436965Y-24000500D01*
X68560591Y-24000500D01*
X68627630Y-24020185D01*
X68673385Y-24072989D01*
X68684590Y-24124407D01*
X68690568Y-32313397D01*
X68699310Y-44291421D01*
X68679674Y-44358475D01*
X68662991Y-44379193D01*
X62529101Y-50513083D01*
X62467778Y-50546568D01*
X62441374Y-50549402D01*
X35809452Y-50539545D01*
X35742420Y-50519836D01*
X35696685Y-50467015D01*
X35685498Y-50415545D01*
X35685498Y-46875891D01*
X39819500Y-46875891D01*
X39853608Y-47003187D01*
X39886554Y-47060250D01*
X39919500Y-47117314D01*
X40012686Y-47210500D01*
X40126814Y-47276392D01*
X40254108Y-47310500D01*
X40254110Y-47310500D01*
X52035890Y-47310500D01*
X52035892Y-47310500D01*
X52163186Y-47276392D01*
X52277314Y-47210500D01*
X52370500Y-47117314D01*
X52436392Y-47003186D01*
X52470500Y-46875892D01*
X52470500Y-25694108D01*
X52436392Y-25566814D01*
X52370500Y-25452686D01*
X52277314Y-25359500D01*
X52211872Y-25321717D01*
X52163187Y-25293608D01*
X52064181Y-25267080D01*
X52035892Y-25259500D01*
X40385892Y-25259500D01*
X40254108Y-25259500D01*
X40126812Y-25293608D01*
X40012686Y-25359500D01*
X40012683Y-25359502D01*
X39919502Y-25452683D01*
X39919500Y-25452686D01*
X39853608Y-25566812D01*
X39819500Y-25694108D01*
X39819500Y-46875891D01*
X35685498Y-46875891D01*
X35685498Y-24124500D01*
X35705183Y-24057461D01*
X35757987Y-24011706D01*
X35809498Y-24000500D01*
X38063035Y-24000500D01*
X38130074Y-24020185D01*
G37*
%TD.AperFunction*%
%TD*%
M02*
